<svg xmlns="http://www.w3.org/2000/svg" viewBox="0 0 1253.41 858.65"><defs><style>.cls-1,.cls-2{fill:none;}.cls-1{stroke:#000;}.cls-3{font-size:12px;font-family:Lato-Light, Lato;}.cls-4{letter-spacing:-0.03em;}.cls-5{letter-spacing:-0.01em;}.cls-6{letter-spacing:-0.01em;}.cls-7{letter-spacing:-0.02em;}.cls-8{letter-spacing:-0.01em;}.cls-9{letter-spacing:-0.07em;}.cls-10{letter-spacing:0em;}.cls-11{letter-spacing:-0.01em;}.cls-12{letter-spacing:0em;}.cls-13{letter-spacing:-0.01em;}.cls-14{letter-spacing:0em;}.cls-15{letter-spacing:-0.01em;}.cls-16{letter-spacing:0em;}.cls-17{letter-spacing:-0.03em;}.cls-18{letter-spacing:-0.01em;}.cls-19{letter-spacing:-0.03em;}.cls-20{letter-spacing:-0.01em;}.cls-21{letter-spacing:-0.01em;}.cls-22{letter-spacing:-0.03em;}.cls-23{letter-spacing:-0.05em;}.cls-24{letter-spacing:-0.01em;}.cls-25{letter-spacing:-0.02em;}.cls-26{letter-spacing:-0.02em;}.cls-27{letter-spacing:-0.07em;}.cls-28{letter-spacing:-0.01em;}.cls-29{letter-spacing:-0.03em;}</style></defs><title>amsterdamMap_2</title><g id="Layer_2" data-name="Layer 2"><g id="MapAndPaths"><g id="Map"><polyline id="Path" class="cls-1" points="1 90.15 315 80.15 322 83.15 340 85.15 351 67.15 366 16.15 344 10.15 342 17.15 338 18.15 341 9.15 322 2.15"/><polyline id="Path-2" class="cls-1" points="332 2.15 368 9.15 370 2.15"/><polyline id="Path-3" class="cls-1" points="379 2.15 378 10.15 390 15.15 395 17.15 459 10.15 465 11.15 467 2.15"/><polyline id="Path-4" class="cls-1" points="485 3.15 490 19.15 480 149.15 516 151.15 513 126.15 519 96.15 523 101.15 520 104.15 540 140.15 554 134.15 533 97.15 528 99.15 522 88.15 518 87.15 501 17.15 498 18.15 499 8.15 498 1.15"/><polyline id="Path-5" class="cls-1" points="595.06 2.15 624.06 129.15 644.06 134.15 649.06 143.15 657.06 148.15 719.06 102.15 727.06 91.15 734.06 72.15 734.06 58.15 716.06 0.15"/><polyline id="Path-6" class="cls-1" points="600 2.15 608 37.15 612 36.15 604 1.15"/><polyline id="Path-7" class="cls-1" points="664 3.15 668 11.15 674 8.15 672 2.15"/><polyline id="Path-8" class="cls-1" points="725.06 2.15 743.06 60.15 743.06 74.15 738.06 89.15 728.06 104.15 676.06 144.15 669.06 146.15 665.06 152.15 672.06 158.15 668.06 171.15 676.06 181.15 741.06 132.15 747.06 139.15 694.06 183.15 691.06 188.15 694.06 194.15 714.06 203.15 722.06 196.15 720.06 192.15 713.06 199.15 700.06 186.15 738.06 156.15 744.06 154.15 741.06 159.15 745.06 163.15 724.06 186.15 724.06 189.15 730.06 188.15 748.06 167.15 751.06 169.15 774.06 146.15 777.06 150.15 755.06 171.15 758.06 177.15 752.06 184.15 798.06 192.15 799.06 199.15 803.06 203.15 823.06 204.15 826.06 209.15 934.06 187.15 922.06 119.15 931.06 117.15 935.06 140.15 933.06 144.15 942.06 185.15 1050.06 165.15 1053.06 161.15 1061.06 156.15 1050.06 130.15 1068.06 124.15 1084.06 150.15 1133.06 138.15 1130.06 129.15 1114.06 118.15 1125.06 98.15 1134.06 104.15 1135.06 109.15 1143.06 108.15 1145.06 120.15 1154.06 125.15 1156.06 119.15 1173.06 127.15 1213.06 120.15 1228.06 130.15 1252.06 133.15"/><polyline id="Path-9" class="cls-1" points="1247 3.5 1233 60.5 1242 65.5 1243 72.5 1249 72.5 1251 68.5"/><polyline id="Path-11" class="cls-1" points="2 95.5 310 86.5 313 88.5 310 90.5 307 90.5 197 203.5 191 244.5 140 336.5 136 336.5 109 223.5 104 224.5 131 342.5 136 345.5 98 411.5 92 419.5 81 443.5 79 450.5 1 589.5"/><polyline id="Path-12" class="cls-1" points="2 603.5 81 461.5 86 458.5 93 458.5 165 627.5"/><polyline id="Path-13" class="cls-1" points="165 627.15 138 640.15 1 694.15"/><polyline id="Path-14" class="cls-1" points="1.06 701.15 103.06 660.15 149.06 641.15 255.06 588.15 265.06 599.15 268.06 600.15 276.06 610.15 283.06 631.15 284.06 650.15 290.06 662.15 293.06 664.15 311.06 673.15 320.06 683.15 324.06 705.15 333.06 713.15 338.06 715.15 364.06 719.15 414.06 760.15 409.06 768.15 406.06 773.15 403.06 851.15 403.06 858"/><polyline id="Path-15" class="cls-1" points="409.06 858.5 412.06 773.5 412.06 769.5 419.06 760.5 423.06 760.5 426.06 763.5 436.06 779.5 432.06 781.5 438.06 788.5 445.06 797.5 457.06 806.5 469.06 811.5 573.06 821.5 593.06 822.5 601.06 820.5 606.06 818.5 615.06 817.5 647.06 804.5 655.06 804.5 685.06 793.5 694.06 829.5 703.06 858.5"/><polyline id="Path-16" class="cls-1" points="732 858.5 716 801.5 711 784.5 721 779.5 725 779.5 741 766.5 750 756.5 769 750.5 788 752.5 797 748.5 812 733.5 841 731.5 859 725.5 869 720.5 888 712.5 902 711.5 916 710.5 927 704.5 944 682.5 952 679.5 981 673.5 996 655.5 999 655.5 1025 629.5 1049 610.5 1050 606.5 1062 598.5 1072 597.5 1122 596.5 1130 594.5 1139 595.5 1144 596.5 1214 595.5 1251 594.5"/><polyline id="Path-17" class="cls-1" points="1251.56 583.5 1063 586.5 1060 587.5 1059 583.5 1062 579.5 1069 578.5 1251.56 575.5"/><path id="Path-18" class="cls-1" d="M1128,858.15l124-45"/><path id="Path-19" class="cls-1" d="M1139,858.15l113-40"/><polyline id="Path-20" class="cls-1" points="1251.56 569.5 1039 570.5 1036 572.5 953 526.5 957 518.5 964 513.5 968 517.5 971 519.5 984 506.5 985 500.5 1009 476.5 1044 509.5 1037 516.5 1043 522.5 1095 469.5 1090 465.5 1049 507.5 1035 494.5 1032 494.5 1029 490.5 1021 485.5 1011 474.5 1080 404.5 1027 376.5 1006 366.5 970 355.5 968 359.5 958 355.5 953 352.5 858 327.5 833 331.5 832 328.5 829.06 328.5 830.06 331.5 811.06 335.5 811.06 340.5 807.06 340.5 803.06 295.5 855.06 302.5 856.06 299.5 827.06 291.5 833.06 265.5 964.06 302.5 964.06 306.15 1040.06 328.15 1041.06 324.15 1050.06 327.15 1049.06 331.15 1252.06 387.15"/><polyline id="Path-21" class="cls-1" points="1252.06 492.15 1240.06 494.15 1241.06 499.15 1234.06 498.15 1234.06 493.5 1218.06 492.5 1215.06 495.5 1220.06 503.5 1221.06 508.5 1227.06 515.5 1236.06 515.5 1236.06 508.5 1241.06 508.5 1241.06 511.5 1248.06 511.5 1248.06 516.5 1251.56 516.5"/><polyline id="Path-22" class="cls-1" points="1253 374.15 1224 333.15 1189 334.15 1188 329.15 1193 328.15 1191 319.15 950 249.15 944 250.15 939 254.15 935 250.15 911 254.15 909 243.15 988 228.15 1069 253.15 1157 276.15 1221 295.15 1253 297.15"/><polyline id="Path-23" class="cls-1" points="1251.56 337.5 1238.06 337.5 1238.06 341.5 1247.06 353.5 1252.06 362.5"/><polygon id="Path-24" class="cls-1" points="319 85.15 202 204.15 200 212.15 207 213.15 278 185.15 287 183.15 291 176.15 306 165.15 330 108.15 334 96.15 332 90.15 319 85.15"/><polygon id="Path-25" class="cls-1" points="95.06 442.15 126.06 382.15 132.06 384.15 129.06 377.15 147.06 342.15 147.06 336.15 172.06 295.15 182.06 298.15 175.06 291.15 209.06 223.15 279.06 195.15 282.06 189.15 288.06 186.15 289.06 191.15 293.06 202.15 226.06 376.15 222.06 407.15 216.06 411.15 212.06 410.15 99.06 449.15 95.06 442.15"/><polygon id="Path-26" class="cls-1" points="100 455.15 171 623.15 208 606.15 168 507.15 164 489.15 168 468.15 182 433.15 176 428.15 100 455.15"/><polygon id="Path-2-2" data-name="Path" class="cls-1" points="215.06 601.15 172.06 497.15 172.06 485.15 174.06 465.15 193.06 422.15 213.06 415.15 220.06 413.15 219.06 418.15 208.06 433.15 206.06 446.15 224.06 516.15 231.06 531.15 244.06 536.15 253.06 563.15 254.06 585.15 248.06 587.15 215.06 601.15"/><polygon id="Path-3-2" data-name="Path" class="cls-1" points="395.06 48.5 396.06 42.5 397.06 26.5 400.06 22.5 408.06 20.5 410.06 23.5 418.06 20.5 458.06 17.5 461.06 15.5 466.06 16.5 465.06 23.5 472.06 23.5 472.06 27.5 465.06 26.5 464.06 38.5 466.06 39.5 463.06 46.5 459.06 45.5 454.06 43.5 417.06 46.5 417.06 49.5 415.06 47.5 395.06 48.5"/><polyline id="Path-4-2" data-name="Path" class="cls-1" points="402 59.5 401 67.5 399 104.5 402 105.5 423 126.5 426 126.5 427 121.5 430 97.5 429 92.5 431 86.5 430 80.5 432 75.5 431 56.5 425 57.5 421 55.5 417.06 55.5 417.06 58.5 410 58.5 409 55.5 408 58.5"/><polygon id="Path-5-2" data-name="Path" class="cls-1" points="337.06 103.5 334.06 108.5 334.06 113.5 333.06 120.5 339.06 128.5 346.06 133.5 348.06 137.5 432.06 215.5 436.06 214.5 441.06 204.5 444.06 204.5 450.06 193.5 448.06 192.5 466.06 159.5 464.06 150.5 464.06 125.5 466.06 123.5 467.06 103.5 464.06 101.5 466.06 58.5 468.06 54.5 467.06 50.5 455.06 49.5 449.06 53.5 440.06 56.5 439.06 60.5 437.06 90.5 434.06 91.5 434.06 99.15 435.06 107.15 435.06 113.5 431.06 118.5 431.06 132.5 428.06 135.5 389.06 100.5 390.06 79.5 392.06 79.5 393.06 74.5 391.06 74.5 392.06 42.5 395.06 25.5 393.06 23.5 393.06 20.5 375.06 17.5 372.06 30.5 370.06 31.5 369.06 40.5 357.06 68.5 354.06 69.5 356.06 72.5 355.06 75.5 351.06 74.5 346.06 82.5 351.06 85.5 347.06 97.5 340.06 104.5 337.06 103.5"/><polygon id="Path-27" class="cls-1" points="347 144.15 263 360.15 365 325.15 370 323.15 374 324.15 431 223.15 347 144.15"/><polygon id="Path-28" class="cls-1" points="229 494.15 212 448.15 214 438.15 223 427.15 231 410.15 233 402.15 236 401.15 245 403.15 243 418.15 240 424.15 239 434.15 235 450.15 251 487.15 247 488.15 229 494.15"/><polygon id="Path-6-2" data-name="Path" class="cls-1" points="262 363.5 255 381.5 250 396.5 286 383.5 315 372.5 319 372.5 349 360.5 354 361.5 373 327.5 370 326.5 341 337.5 338 337.5 309 348.5 306 348.5 262 363.5"/><polygon id="Path-29" class="cls-1" points="250 399.5 316 374.5 320 374.5 347 363.5 353 363.5 348 373.5 342 449.5 339 449.5 255 485.5 239 449.5 240 441.5 242 434.5 250 399.5"/><polygon id="Path-30" class="cls-1" points="256 488.5 260 488.5 339 452.5 342 452.5 339 529.5 338 531.5 334 530.5 285 558.5 275 533.5 273 527.5 256 488.5"/><polygon id="Path-31" class="cls-1" points="251.06 490.5 232.06 501.5 235.06 508.5 262.06 565.5 259.06 567.5 263.06 576.5 260.06 578.5 266.06 589.5 282.06 605.5 289.06 625.5 296.06 627.5 305.06 623.5 342.06 600.5 339.06 591.5 335.06 589.5 337.06 570.5 333.06 570.5 296.06 590.5 289.06 578.5 289.06 574.5 271.06 535.5 269.06 529.5 251.06 490.5"/><polygon id="Path-32" class="cls-1" points="286 560.5 335 534.5 338 534.5 336 566.5 299 586.5 292 576.5 293 572.5 286 560.5"/><polygon id="Path-33" class="cls-1" points="341.06 588.5 343.06 529.5 344.06 526.5 345.06 489.5 346.06 486.5 352.06 376.5 370.06 345.5 392.06 357.5 379.06 384.5 378.06 390.5 373.06 490.5 371.06 492.5 370.06 530.5 369.06 532.5 368.06 569.5 369.06 573.5 373.06 579.5 373.06 583.5 370.06 583.5 346.06 598.5 344.06 595.5 341.06 588.5"/><polygon id="Path-34" class="cls-1" points="371.06 341.15 373.06 344.15 393.06 354.15 423.06 301.15 426.06 297.15 453.06 246.15 456.06 244.15 438.06 228.15 438.06 226.15 436.06 224.15 434.06 227.15 371.06 341.15"/><polygon id="Path-35" class="cls-1" points="398 356.15 400 359.15 424 372.15 488 258.15 486 255.15 460 247.15 398 356.15"/><polygon id="Path-36" class="cls-1" points="437.06 222.5 439.06 224.5 441.06 222.5 460.06 240.5 465.06 243.5 486.06 250.5 489.06 253.5 491.06 252.5 519.06 262.5 522.06 264.5 526.06 264.5 527.06 260.5 529.06 261.5 533.06 256.5 533.06 252.5 536.06 249.5 543.06 244.5 542.06 243.5 549.06 230.5 554.06 225.5 572.06 196.5 544.06 166.5 542.06 166.5 535.06 160.5 520.06 154.5 517 154.5 502 159.5 498 159.5 478 161.5 471 166.5 459 183.5 453 194.5 451.06 194.5 445.06 205.5 446.06 206.5 437.06 222.5"/><polygon id="Path-37" class="cls-1" points="461 317.15 495 257.15 519 265.15 520 268.15 492 311.15 490 313.15 479 329.15 461 317.15"/><polygon id="Path-38" class="cls-1" points="460.06 320.5 478.06 331.5 447.06 380.5 445.06 381.5 439.06 409.5 441.06 410.5 439.06 416.5 437.06 417.5 433.06 435.5 433.06 441.5 428.06 491.5 426.06 497.5 422.06 537.5 424.06 540.5 412.06 548.5 410.06 548.5 410.06 532.5 411.06 530.5 412.06 494.5 413.06 491.5 416.06 440.5 417.06 411.5 419.06 393.5 430.06 373.5 432.06 370.5 460.06 320.5"/><polygon id="Path-39" class="cls-1" points="405.06 564.5 405.06 532.5 406.06 530.5 407.06 494.5 408.06 491.5 410.06 441.5 412.06 439.5 412.06 413.5 414.06 408.5 413.06 393.5 423.06 375.5 397.06 360.5 384.06 384.5 382.06 395.5 381.06 437.5 378.06 488.5 377.06 491.5 375.06 530.5 374.06 532.5 373.06 565.5 374.06 571.5 377.06 575.5 377.06 579.5 381.06 579.5 405.06 564.5"/><polygon id="Path-40" class="cls-1" points="578.06 199.5 557.06 234.5 557.06 238.5 560.06 244.5 563.06 246.5 565.06 246.5 581.06 259.5 584.06 259.5 584.06 261.5 584.06 265.5 579.06 272.5 577.06 272.5 550.06 246.5 546 246.5 531 261.5 462 367.5 457 377.5 451 382.5 453 385.5 443 421.5 440 439.5 438 442.5 433 492.5 432 496.5 428 533.5 458 572.5 484 578.5 504.06 578.5 512.06 580.5 521.06 573.5 521.06 569.5 519.06 563.5 501.06 540.5 496.06 525.5 497.06 522.5 517.06 521.5 518.06 518.5 527.06 518.5 534.06 479.5 547.06 457.5 593.06 396.5 597.06 393.5 625.06 350.5 627.06 346.5 663.06 321.5 661.06 317.5 661.06 312.5 664.06 309.5 674.06 312.5 690.06 285.5 693.06 284.5 698.06 271.5 578.06 199.5"/><polygon id="Path-41" class="cls-1" points="679.06 316.15 694.06 290.15 704.06 275.15 708.06 276.15 788.06 290.15 788.06 293.15 790.06 295.15 792.06 313.15 792.06 325.15 796.06 345.15 793.06 353.15 784.06 362.15 797.06 375.15 814.06 380.15 814.06 375.15 825.06 373.15 827.06 397.15 827.06 421.5 822.06 440.5 818.06 452.5 819.06 455.5 829.06 460.5 828.06 464.5 832.06 467.5 824.06 473.5 812.06 488.5 800.06 501.5 796.06 501.5 785.06 516.5 778.06 524.5 775.06 523.5 734.06 567.5 724.06 578.5 705.06 590.5 694.06 594.5 693.06 592.5 649.06 606.5 645.06 597.5 642.06 595.5 641.06 586.5 621.06 575.5 619.06 577.5 617.06 575.5 618.06 573.5 608.06 565.5 605.06 566.5 602.06 563.5 609.06 553.5 609.06 550.5 612.06 550.5 627.06 527.5 630.06 527.5 640.06 511.5 650.06 501.5 684.06 523.5 761.06 473.5 734.06 448.5 735.06 445.5 749.06 434.5 746.06 431.5 752.06 427.5 756.06 429.5 766.06 427.5 794.06 440.5 797.06 438.5 811.06 413.5 814.06 396.5 814.06 383.5 795.06 377.5 782.06 364.5 773.06 367.5 747.06 357.5 743.06 364.5 735.06 359.5 740.06 353.5 740.06 348.15 714.06 336.15 679.06 316.15"/><polygon id="Path-42" class="cls-1" points="697.06 340.5 705.06 345.5 698.06 356.5 701.06 357.5 702.06 355.5 707.06 360.5 705.06 362.5 716.06 372.5 710.06 380.5 712.06 382.5 718.06 375.5 722.06 377.5 714.06 388.5 722.06 395.5 730.06 386.5 733.06 388.5 725.06 397.5 734.06 404.5 741.06 396.5 744.06 398.5 737.06 408.5 746.06 415.5 753.06 407.5 756.06 409.5 748.06 418.5 747.06 422.5 750.06 424.5 743.06 428.5 741.06 427.5 731.06 432.5 725.06 437.5 721.06 436.5 721.06 433.5 686.06 401.5 683.06 401.5 683.06 398.5 678.06 383.5 681.06 371.5 676.06 367.5 684.06 357.5 687.06 356.5 690.06 352.5 697.06 340.5"/><polygon id="Path-43" class="cls-1" points="663.06 335.15 669.06 331.15 675.06 337.15 681.06 346.15 682.06 356.15 673.06 365.15 670.06 363.15 665.06 385.15 672.06 404.15 674.06 406.15 674.06 408.15 710.06 441.15 714.06 442.15 714.06 446.15 711.06 447.15 697.06 457.15 644.06 409.15 640.06 408.15 663.06 335.15"/><polygon id="Path-44" class="cls-1" points="540 475.5 572 429.5 576 428.5 601 393.5 613 374.5 616 373.5 627 354.5 631 356.5 632 362.5 630 369.5 626 376.5 610 401.5 568 462.5 564 469.5 552 491.5 549 496.5 538 518.5 532 518.5 540 475.5"/><polygon id="Path-45" class="cls-1" points="629.06 348.5 636.06 342.5 639.06 341.5 664.06 322.5 668.06 328.5 662.06 332.5 659.06 333.5 659.06 335.5 656.06 334.5 640.06 383.5 642.06 385.5 641.06 390.5 637.06 390.5 631.06 413.5 639.06 413.5 640.06 410.5 643.06 411.5 664.06 431.5 665.06 435.5 661.06 447.5 658.06 459.5 652.06 468.5 644.06 475.5 639.06 477.5 641.06 485.5 647.06 500.5 629.06 517.5 624.06 514.5 617.06 508.5 590.06 499.5 601.06 476.5 605.06 471.5 619.06 448.5 614.06 444.5 600.06 471.5 600.06 474.5 597.06 474.5 560.06 538.5 560.06 542.5 552.06 556.5 545.06 561.5 538.06 568.5 530.06 570.5 523.06 562.5 507.06 538.5 502.06 525.5 518.06 522.5 538.06 521.5 542.06 517.5 551.06 499.5 557.06 489.5 570.06 463.5 601.06 417.5 612.06 401.5 630.06 374.5 634.06 365.5 634.06 359.5 629.06 348.5"/><polygon id="Path-46" class="cls-1" points="556 562.5 559 562.5 576 561.5 603 509.5 589 503.5 567 541.5 564 544.5 556 562.5"/><polygon id="Path-47" class="cls-1" points="579.06 561.15 591.06 563.15 599.06 551.15 603.06 549.15 622.06 519.15 624.06 518.15 623.06 515.15 607.06 509.15 579.06 558.15 579.06 561.15"/><polygon id="Path-48" class="cls-1" points="642 480.15 647 492.15 681 467.15 684 468.15 685 465.15 694 459.15 692 455.15 667 434.15 659 464.15 642 480.15"/><polygon id="Path-49" class="cls-1" points="660 496.15 669 509.15 682 517.15 703 504.15 708 500.15 742 477.15 739 473.15 744 469.15 740 463.15 742 462.15 740 460.15 738 461.15 725 452.15 660 496.15"/><polygon id="Path-50" class="cls-1" points="410.06 551.5 410.06 560.5 469.06 616.5 508.06 625.5 558.06 636.5 559.06 635.5 581.06 626.5 583.06 627.5 591.06 626.5 592.06 624.5 630.06 612.5 630.06 604.5 630.06 596.5 626.06 591.5 607.06 580.5 581.06 577.5 575.06 575.5 559.06 577.5 557.06 574.5 552.06 574.5 550.06 576.5 534.06 575.5 524.06 574.5 511.06 583.5 506.06 585.5 489.06 585.5 470.06 581.5 462.06 579.5 456.06 576.5 457.06 573.5 450.06 565.5 448.06 566.5 426.06 542.5 410.06 551.5"/><polygon id="Path-51" class="cls-1" points="381 581.5 407 566.5 410 568.5 468 622.5 554 641.5 553 643.5 554 669.5 556 671.5 553 671.5 550 671.5 483 656.5 453 650.5 381 581.5"/><polygon id="Path-52" class="cls-1" points="348 601.15 374 585.15 396 605.15 399 606.15 450 654.15 555 679.15 557 719.15 429 690.15 348 601.15"/><polygon id="Path-53" class="cls-1" points="314.06 621.5 341.06 604.5 364.06 627.5 369.06 631.5 371.06 636.5 424.06 693.5 410.06 715.5 410.06 718.5 366.06 685.5 364.06 688.5 410.06 724.5 434.06 745.5 428.06 753.5 426.06 752.5 423.06 756.5 421.06 756.5 369.06 715.5 358.06 711.5 349.06 711.5 338.06 710.5 330.06 706.5 328.06 699.5 326.06 687.5 324.06 680.5 310.06 664.5 307.06 661.5 299.06 658.5 293.06 652.5 291.06 644.5 292.06 635.5 297.06 630.5 310.06 624.5 320.06 633.5 314.06 621.5"/><polygon id="Path-54" class="cls-1" points="412.06 718.5 412.06 721.5 413.06 723.5 415.06 723.5 461.06 760.5 480.06 763.5 482.06 761.5 559.06 770.5 559.06 767.5 557.06 728.5 488.06 710.5 428.06 697.5 427.06 694.5 424.06 697.5 414.06 718.5 412.06 718.5"/><polygon id="Path-55" class="cls-1" points="558.06 639.5 556.06 643.5 559.06 668.5 559.06 671.5 562.06 672.5 589.06 662.5 592.06 663.5 600.06 661.5 601.06 658.5 635.06 647.5 641.06 647.5 634.06 622.5 633.06 617.5 631.06 617.5 593.06 629.5 591.06 628.5 584.06 630.5 582.06 632.5 561.06 640.5 558.06 639.5"/><polygon id="Path-56" class="cls-1" points="558.06 677.5 563.06 677.5 591.06 668.5 592.06 665.5 600.06 663.5 605.06 664.5 640.06 651.5 644.06 652.5 650.06 669.5 655.06 691.5 651 691.5 612 704.5 611 706.5 602 707.5 600.06 707.5 563.06 719.5 560.06 719.5 560.06 713.5 558.06 677.5"/><polygon id="Path-57" class="cls-1" points="560.06 723.5 564.06 724.5 602.06 712.5 602.06 710.5 611.06 707.5 613.06 708.5 656.06 695.5 660.06 697.5 662.06 701.5 660.06 703.5 661.06 707.5 664.06 706.5 664.06 700.5 672.06 696.5 678.06 712.5 668.06 715.5 665.06 709.5 663.06 710.5 665.06 720.5 665.06 723.5 662.06 723.5 641.06 730.5 642.06 734.5 663.06 726.5 667.06 726.5 678.06 756.5 678.06 761.5 683.06 777.5 685.06 787.5 654.06 797.5 651.06 799.5 645.06 800.5 614.06 812.5 604.06 812.5 593.06 816.5 495.06 807.5 471.06 804.5 464.06 802.5 452.06 794.5 442.06 785.5 427.06 758.5 435.06 747.5 437.06 747.5 449.06 756.5 459.06 764.5 471.06 765.5 480.06 767.5 561.06 775.5 563.06 770.5 561.06 768.5 562.06 765.5 560.06 723.5"/><polygon id="Path-59" class="cls-1" points="653.06 611.5 662.06 640.5 709.06 625.5 717.06 623.5 759.06 609.5 768.06 608.5 793.06 621.5 795.06 624.5 865.06 662.5 869.06 665.5 883.06 672.5 889.06 673.5 916.06 660.5 924.06 658.5 929.06 654.5 951.06 638.5 965.06 620.5 968.06 613.5 964.06 605.5 961.06 604.5 958.06 603.5 937.06 592.5 938.06 590.5 934.06 588.5 933.06 590.5 923.06 584.5 924.06 582.5 921.06 580.5 920.06 582.5 841.06 539.5 836.06 537.5 797.06 515.5 792.06 520.5 785.06 520.5 768.06 540.5 744.06 568.5 742.06 568.5 735.06 574.5 736.06 575.5 729.06 584.5 724.06 587.5 726.06 589.5 729.06 589.5 734.06 592.5 740.06 593.5 751.06 601.5 751.06 603.5 742.06 600.5 739.06 597.5 732.06 594.5 726.06 593.5 722.06 589.5 708.06 594.5 701.06 595.5 695.06 596.5 653.06 611.5"/><polygon id="Path-60" class="cls-1" points="836.06 369.5 855.06 415.5 880.06 406.5 890.06 416.5 874.06 431.5 871.06 429.5 864.06 434.5 868.06 443.5 851.06 452.5 859.06 468.5 857.06 470.5 867.06 477.5 870.06 479.5 899.06 495.5 905.06 485.5 930.06 458.5 938.06 450.5 946.06 450.5 996.06 398.5 996.06 395.5 992.06 391.5 994.06 380.5 990.06 376.5 966.06 371.5 960.06 371.5 857.06 344.5 836.06 369.5"/><polygon id="Path-61" class="cls-1" points="902 496.15 951 524.15 960 512.15 958 511.15 962 505.15 965 508.15 987 485.15 995 475.15 983 459.15 985 457.15 997 466.15 1015 448.15 1018 450.15 1022 446.15 1021 445.15 1047 415.15 1044 406.15 1005 397.15 954 449.15 947 456.15 941 455.15 938 456.15 937 459.15 938 465.15 919 486.15 911 484.15 906 488.15 902 496.15"/><polygon id="Path-62" class="cls-1" points="801 503.5 812 491.5 815 491.5 828 478.5 827 476.5 835 468.5 836 470.5 847 475.5 866 492.5 864 495.5 879 503.5 881 499.5 925 526.5 924 529.5 934 534.5 937 537.5 931 554.5 930 556.5 928 555.5 923 564.5 925 565.5 922 569.5 919 568.5 908 567.5 874 548.5 817 516.5 805 507.5 801 503.5"/><polygon id="Path-63" class="cls-1" points="925.06 571.5 928.06 566.5 929.06 567.5 934.06 559.5 933.06 557.5 946.06 542.5 952 542.5 958 547.5 1005 573.5 1015 573.5 1019 572.5 1031 577.5 1034 580.5 1051 581.5 1054 585.5 1056 585.5 1057 588.5 1048 597.5 1025 618.5 978 665.5 972 667.5 942 676.5 937 682.5 931 689.5 924 699.5 917 703.5 893 706.5 885 705.5 870 711.5 867 714.5 847 721.5 817 728.5 810.06 728.5 799.06 739.5 790.06 745.5 787.06 746.5 773.06 746.5 764.06 742.5 762.06 744.5 745.06 749.5 728.06 769.5 714.06 776.5 706.06 777.5 703.06 775.5 696.06 753.5 696.06 750.5 678.06 695.5 677.06 689.5 693.06 685.5 694.06 688.5 702.06 715.5 856.06 665.5 882.06 680.5 887.06 679.5 921.06 664.5 921.06 662.5 926.06 662.5 951.06 643.5 974.06 621.5 976.06 616.5 967.06 601.5 933.06 581.5 925.06 571.5"/><polygon id="Path-64" class="cls-1" points="664.06 645.5 669.06 666.5 669.06 669.5 675.06 685.5 680.06 685.5 781.06 653.5 785.06 654.5 795.06 649.5 800.06 649.5 800.06 644.5 804.06 638.5 803.06 635.5 767.06 615.5 764.06 615.5 721.06 628.5 717.06 626.5 664.06 645.5"/><polygon id="Path-65" class="cls-1" points="697.06 684.15 697.06 687.15 705.06 708.15 707.06 709.15 848.06 664.15 849.06 662.15 822.06 647.15 803.06 652.15 801.06 651.15 797.06 652.15 797.06 654.15 736.06 673.15 734.06 672.15 697.06 684.15"/><polygon id="Path-58" class="cls-1" points="295 185.5 301 201.5 232 378.5 227 398.5 241 400.5 247 397.5 249 387.5 345 139.5 343 136.5 339 132.5 327 132.5 325 138.5 310 179.5 295 185.5"/></g><path id="path0" class="cls-2" d="M2,594.5c8.67-14.09,17.38-29.09,26-45,10-18.44,10.15-21.79,19-37,13.47-23.13,15.93-21.68,22-36,5.76-13.6,6.77-22.52,13-24,6.48-1.54,13.46,6.19,16,9,8.42,9.32,8.44,18.16,14,35,1.2,3.64,4.47,11.09,11,26,11.85,27,14,28.63,24,52,5.68,13.28,10.69,26.09,13,32,4.39,11.24,3.19,19.25,8,21,4.13,1.5,6.91-3,20-10,6.7-3.58,5.42-2.11,23-10,12.17-5.47,18.26-8.2,21-10,4.94-3.25,8.73-6.52,16-9,6.86-2.34,9.69-1.54,11-1,3.27,1.34,3.73,3.73,8,9,4.78,5.91,6.2,5.38,10,10a42.59,42.59,0,0,1,8,16c3.07,10.91-.89,12.48,2,22,.68,2.25,3.65,11.62,12,18,4.28,3.27,5.52,2.35,12,7,5.78,4.14,9.16,6.56,11,11,1.66,4,0,4.62,2,14,1.15,5.39,2.22,7.61,3,9a20.42,20.42,0,0,0,6,7c3.46,2.38,5.74,1.8,15,3,6.75.88,10.59,1.38,15,3,3.69,1.36,6.53,3,12,7,9.84,7.11,14.84,10.72,21,17,10.23,10.42,12.37,16.7,19,17,2.45.11,5-.61,8,1,.87.46,2.18,1.32,6,7a84.35,84.35,0,0,1,6,10c2.28,4.49,3.52,7.82,4,9,4.24,10.42,17.26,20.19,30,24,4.63,1.38,4,.42,20,2,14.41,1.43,17.26,2.44,30,4,25.62,3.14,22.76.1,42,3,17.26,2.6,23.91,5.7,33,2,3.78-1.54,7.27-4,14-5,4.88-.75,7.76-.21,13-2,3.35-1.15,4.22-2.07,8-4,3.17-1.62,6.17-2.82,17-6,8.75-2.57,15.26-4.27,18-5,18.45-4.9,27.67-7.35,29-9,10.56-13.09-12.26-45-13-73a46.25,46.25,0,0,0-1-9c-2.55-11.93-9.27-19.58-12-23-10.79-13.49-14.36-29.61-18-46-5.27-23.77.21-30.1-8-40-1.79-2.16-9.55-7.14-25-17-15-9.58-19.61-12.24-20-17s4.35-5.22,13-16c9.31-11.6,8.85-17.11,19-27,3.09-3,3-2.4,8-7a172.71,172.71,0,0,0,16-17c12.41-14.61,32.37-25.44,50-35,15.31-8.3,20.47-9.37,21-14,1-8.9-17.27-12.1-36-34-6.44-7.53-19.75-23.09-16-38,.84-3.34,3.23-7.23,8-15,9.36-15.24,13.12-15.95,13-21-.26-10.67-17.16-13.65-17-24,.08-5.29,4.55-7.81,10-14,12.08-13.72,13.6-28,16-34,11.06-27.72,95.87-17.91,172-31,67.64-11.63,53.27-28.42,133-44,83-16.22,79.26,5.77,155-10,19.25-4,56.94-13.22,81,7a49.27,49.27,0,0,1,9,10"/><path id="path1" class="cls-2" d="M1,91.5c57.32-2.08,103.55-3.28,136-4,99.31-2.21,88.83-.36,105-2,33.74-3.42,45.58-8,64-1,7.46,2.85,21.46,9.71,30,4a48.64,48.64,0,0,0,12-13c.2-.32.22-.36,3-5,5-8.42,5.61-9.34,6-10,5.05-8.62,6.61-19.29,7-22,1.74-12-.86-16.29,3-20,2.57-2.47,5.91-2.66,12-3,5.22-.29,15.46-.87,18,4,1.6,3.08-1.27,5.64-3,13-.8,3.41-.9,5.9,0,19,1.6,23.32,2.32,21.48,2,27-.76,13.36-4.48,15.48-2,22,2.21,5.82,5.48,5,15,15,8.91,9.4,11.39,15.79,15,15,2.48-.54,3.67-4.08,5-8,2.33-6.88,2-12.4,2-17,0-9.57,1.3-7.65,2-21,1-19-1.62-24,3-30,3.4-4.4,8.21-6,11-7,6.36-2.18,15.42-2.69,21,1,6.59,4.36,6.11,13.11,6,42-.17,43,.8,47.76-3,60-2.47,7.94-6,15-13,29-8.31,16.61-15.55,28.35-19,34-22.29,36.45-18.91,35.16-43,75-16.63,27.5-35.31,56.33-33,58,.67.48,2.21-1.94,6-3,8.92-2.49,21.82,5,24,14,1.47,6.08-2.59,10.14-7,19-4.57,9.19-6,18.46-9,37-4.34,27.22,3,33.33,2,63-1.28,38.07-13.74,39.77-10,69,1,7.91,4,29.11,19,48,8.36,10.52,10.57,7.89,29,26s19.84,24.38,32,31c8,4.37,10.22,3.2,33,8,38.9,8.21,39.15,13,59,14,19.47,1,35.5-2.9,44-5,14.48-3.58,13.74-5.43,32-11,28.84-8.81,32.83-4.86,53-13,17.58-7.09,15.14-10.32,32-16,16.08-5.41,18.24-2.46,39-9,13.42-4.23,17-6.89,25-6,6.87.77,12.34,4.19,23,11,17.71,11.31,26.57,17,28,18,21.63,15.57,41.95,30.19,66,31,28.2.95,49.22-17.51,68-34,9.25-8.12,19-16.86,17-25-2.35-9.73-18.88-8.22-34-25-4.57-5.07-12.38-13.74-11-24,1.46-10.87,12.67-19.38,23-22,15.12-3.84,25.37,5.71,49,16,21.18,9.23,38.09,12.52,56,16,32.94,6.41,59.89,4.62,82,3,30.4-2.22,36.08-6.17,69-8a449.35,449.35,0,0,1,50,0"/><path id="path2" class="cls-2" d="M0,698.5q14.43-6.59,30-13c19.53-8,28.37-10.7,48-18,6.29-2.34,31.26-11.67,62-25,47.77-20.71,31.39-17.2,48-23,8.92-3.12,25-8.09,25-15a5.49,5.49,0,0,0-1-3c-6.28-9.81-8.72-21.62-14-32-1.81-3.56.17.17-15-34-10.36-23.33-11.78-26.19-13-33a75.79,75.79,0,0,1,0-29c2-9.89,4.28-10,10-28,4.65-14.67,3.64-16.16,7-20,6.79-7.75,18.7-10.53,25-12,7.55-1.76,14.31-2,17-7,1.35-2.52.95-4.88,3-6,2.64-1.44,5.25,1.43,10,1,3.18-.28,5.25-1.85,7-3,6.13-4,8.6-3,28-10,5-1.82,3.35-1.34,18-7,5.19-2,14.48-8.53,21-8a15.71,15.71,0,0,0,3,0c3.54-.34,5.8-1.81,8-3,5.63-3,5.64-1.44,13-5,4.28-2.07,4.77-2.86,7-3,3.78-.24,5.31,1.83,8,1,1.79-.56,2.8-2,5-6,4.63-8.42,3.69-10.66,6-12,1.8-1,4.36-.85,16,5a145.34,145.34,0,0,1,13,7c17.54,11.05,27.17,8.64,29,15,.84,2.94-.87,4-4,13a144.67,144.67,0,0,0-5,21c-2,11.86-.32,17.45,0,30,.3,11.73-1.11,9.94-4,40-2.92,30.38-.64,23.35-3,45-1.65,15.16-3.75,27.52,0,29,1.42.56,4.28-1.29,10-5,6.87-4.45,7.72-6,10-6,4.7,0,7.68,6.37,12,13,4.19,6.44,11.23,17.26,21,23,6.21,3.65,5.77.7,37,6a29,29,0,0,0,11,0c.79-.16,13.32-2.82,15-10,.51-2.18-.18-3.92-7-14-5.13-7.58-9.67-15.56-15-23-2.81-3.92-5.08-6.93-4-9,.93-1.77,3.77-1.83,8-2,20.52-.85,22.94-2.44,24-4,1.32-1.95-.2-2.8,0-9s1.83-8.85,4-17c2.21-8.3,1.75-10.18,3-15,2.79-10.81,9.17-17.2,16-25,4.75-5.42,11.5-14.61,25-33,12.35-16.82,12.41-19.07,32-47,8.82-12.57,13.23-18.86,16-22,17.84-20.18,31.75-22.91,45-34,27.33-22.89,14.28-50,32-69,25.39-27.26,81-2.55,198,25,104.77,24.68,99.38,14.11,172,35a990.56,990.56,0,0,1,179,71"/><path id="path3" class="cls-2" d="M2,596.5q16.51-27.83,33-57c16.76-29.68,21.88-39.94,41-75,39.56-72.53,40.45-70.49,63-114,32.34-62.39,25.86-57.64,35-69,12.9-16,18.44-36.78,28-55,.49-.94,1.83-3.48,1-6-.94-2.83-3.82-3.24-5-5-3.76-5.62,10-20,10-20,22.47-23.49,33.7-35.23,44-45,10.64-10.1,18.76-18.73,35-36,9.85-10.48,23.43-18.21,30-31a2,2,0,0,1,1-1c1.47-.55,3.48,1.51,4,2,5,4.78,17,1.86,19,6,1.76,3.67-6.84,7.63-10,20-.78,3.06-1.85,7.49,0,12,1.78,4.33,5.15,6,9,9,6.66,5.12,8.37,9.06,14,16,7.63,9.4,14.74,14.78,34,32s29.1,26,39,36c14.93,15.05,20.83,22.75,34,29a159.59,159.59,0,0,0,21,8c11,3.18,12.24,2.06,20,5,13,4.94,14.91,10.18,21,9,2.18-.42,3.82-1.46,14-13,6.58-7.46,9.87-11.19,12-14,11.11-14.65,10.71-20.09,19-31,4-5.26,10.44-13.74,19-18,31.2-15.52,84.28,28.14,106,46,7.12,5.85,9.89,10.08,18,16,7,5.11,26.62,19.43,55,25,16.24,3.19,28.48,2.16,31,9,1.22,3.31-1,5.4-2,12-1.29,8.25.91,12.78,4,25,6.4,25.31,2.47,27.59,8,34,7,8.12,13.2,4.34,21,13,7.4,8.21,8.25,18.73,9,28,1.27,15.76-3.25,17.23-3,36,.15,11,.42,21.54,7,31,5.27,7.57,12.2,11.06,16,13,19.14,9.79,36.94,22.06,56,32,29.53,15.4,54.66,30.93,58,33,27.86,17.28,28.84,20.2,40,23,19.93,5,36.64.65,43,11,4.12,6.71.14,13.49,5,17s11.36-1.73,24-4c12.1-2.17,15.94.93,33,2,13.78.87,15-.92,37-2,32.73-1.61,41.86,1.76,81,0,7.41-.33,13.41-.74,17-1"/><path id="path4" class="cls-2" d="M1,93.5c36.46-1.08,66.15-2.2,86-3,66.31-2.68,132.83-1,199-6,14.63-1.12,29.56,3.58,44,1,1.42-.25,5.06-1,7,1,2.66,2.7.31,8.56-3,19-4.23,13.35-8.24,17.61-6,21,1.73,2.63,4.78,1.44,10,4,6.6,3.24,9.37,8.89,12,13,5.49,8.57,8.76,7.83,25,22,17.32,15.11,12.3,14.81,27,27,9.82,8.15,17.68,19.11,29,25a5.9,5.9,0,0,1,3,3c1.32,3.64-2.94,7.94-6,12-4.12,5.47-3.44,7-9,19-1.29,2.79-3.58,7.56-20,36-14.59,25.26-21.88,37.89-22,38a34.7,34.7,0,0,0-9,16,3.82,3.82,0,0,0,0,2c.85,2.84,5,2.46,11,5,7.52,3.19,8.35,6.92,14,8a3,3,0,0,1,2,1c1.39,1.9-1,5.85-3,9-9.36,15-10,15.24-11,18-1.13,3.18-.66,3.93-1,16-.19,6.67-.69,13.33-1,20-.5,10.82-1,18.55-2,34-1.75,27-2.62,40.45-4,52,0,0-5.51,46.22-2,61,.6,2.53,1.9,4.48,3,10,.5,2.5.69,4.42,2,5,1.52.68,3.55-.92,5-2,7.43-5.54,6.51-2.7,15-9,3.49-2.59,7.48-4.45,11-7a4.06,4.06,0,0,1,3-1c1.89.35,2.55,2.75,4,5,2,3.08,4.32,4.15,7,6,4.37,3,6.1,5.69,21,20,19.08,18.33,20,17.55,22,21a11.18,11.18,0,0,0,12,6c7.31-.81,16.48,4,44,11a202.71,202.71,0,0,0,26,5c7.31.9,11.39,1,16,0,6-1.25,8.21-3.27,15-6,4.6-1.85,7.1-2.33,19-5,30.67-6.87,37.79-9,43-16,1.68-2.27,2.76-3.73,3-6,1.33-12.81-26.65-27.84-50-33-16.69-3.69-30.2-6.68-46-2-6.8,2-17.65,6.52-22,2-1.55-1.61-.88-2.92-2-7-1.49-5.43-5.35-10-13-19-3.12-3.66-6.34-7.19-9-13-1.45-3.18-2-5.44-1-7s3.47-1.77,7-2c12.87-.84,8.43-1.61,19-2,4.52-.17,7.48-.11,11-2a17.52,17.52,0,0,0,4-3c5.2-5.06,7-11.11,9-16,2.87-7.06,3.13-4.4,9-16,5.46-10.8,5.72-14.08,11-22,2.05-3.08,2.21-2.88,6-8,6.47-8.75,10-14.77,14-21,2.93-4.61,1.36-1.92,18-26,6.57-9.51,11.1-20.56,19-29,1.19-1.27,5.75-6,7-13,.37-2.09.7-3.88,0-6-1.52-4.64-6.28-5.94-6-9,.1-1.15.86-1.95,2-3a59.46,59.46,0,0,1,11-8c5.93-3.28,5.23-5,12-10,8-5.92,11-5.18,17-9,10.33-6.63,9.65-14.4,21-31,0,0,5-7.37,16-19,29.17-31,130.75-17.29,154-14,37.89,5.36,68.67,11.41,104,19,98.51,21.16,148.73,32.18,196,54a518.73,518.73,0,0,1,91,54"/><path id="path5" class="cls-2" d="M1,696.5a785.72,785.72,0,0,0,116-44c26.07-12.39,39.1-18.59,51-25,0,0,73.6-39.67,87-39a6.42,6.42,0,0,0,4-1,4.42,4.42,0,0,0,2-3c.08-2-2.48-2.68-4-5-2.06-3.15-.25-6.43,0-11,.24-4.31-1.06-6.92-4-14-7.58-18.27-5.61-17-10-26-6.35-13-8.32-11.2-15-24-2.52-4.83-5.34-12.88-11-29-6.53-18.62-7.6-23.5-7-30a38.79,38.79,0,0,1,4-15c4.18-8.11,8.34-8.25,11-16,2.12-6.17.82-10,4-12,1.14-.73,1.61-.43,9-1,6.29-.49,7.8-.85,9-2,1.63-1.57,1.65-3.59,2-6,1.51-10.35,6.67-10.45,8-20,.79-5.65-.54-9,2-11,1.36-1,2.7-.82,5-1,4.71-.36,6.47-1.86,14-5,.44-.18,5-1.79,14-5,4.11-1.46,13.11-4.66,20-7,32.58-11.08,30.72-7.4,38-12,0,0,12.28-7.77,19-7a17,17,0,0,0,4,0c1.11-.13,4-.47,6-2,2.64-2.07,2.89-5.86,3-7,.6-6,4.78-11.09,19-36,8.42-14.75,5.66-10.7,16-29,5.95-10.53,13.62-24.07,24-41,12.26-20,11-16.53,15-24,10.2-19.13,10-26.3,18-30,7-3.25,9,1.4,25-2a61.73,61.73,0,0,1,15-2,57.72,57.72,0,0,1,10,1c14.51,2.81,25.27,11.81,29,15,9.43,8.06,5.25,8.61,17,20,2.1,2,4.72,4.42,5,8,.36,4.52-3.28,7.52-7,12-7.74,9.31-5.41,12.46-13,24-4.68,7.12-7.91,9.48-15,17-8.36,8.86-16.24,19.91-32,42-5.63,7.89-10.42,14.92-20,29,0,0-9.13,13.41-28,43-6.2,9.72-9.71,15.35-13,24-1.73,4.54-3.26,9.56-6,23-2.27,11.17-4.12,20.25-6,35-5.22,41,.41,38.8-5,56-3.37,10.71-7.71,18.43-5,29,1.68,6.55,5.61,12.43,8,16,3.3,4.93,6.58,8.36,13,15,7.76,8,11.64,12,15,14,7,4.09,13.45,4.86,23,6,8.44,1,14.06.56,21,0,10.22-.82,13.66-2.31,16-5a12.09,12.09,0,0,0,3-7c.3-5.18-3.57-7.67-13-19a84.76,84.76,0,0,1-11-18c-1.14-2.52-2.16-5.14-1-7,1.35-2.16,4.71-1.83,11-2,11.28-.3,17.61-.54,20-4,1.45-2.09.19-3.55,0-9-.21-6,1.18-7.75,6-25,3.3-11.82,2.76-11.37,4-14,3.3-7,6.42-8.58,12-16,6.63-8.81,4.63-9.75,11-19,5.68-8.26,8.4-9.13,18-20,5.73-6.49,9.33-11.34,15-19,9.48-12.8,10.61-16,24-35,9.35-13.29,12.16-16.54,16-20,5.27-4.75,8.32-6.17,18-13,0,0,10.49-7.39,21-16,21.73-17.79,17.33-39.94,32-54,17.86-17.11,45.39-4.42,85-3,43.17,1.55,56.32-11.88,118-29,35.61-9.88,108-30,182-24,35.53,2.88,93.5,13.57,161,56"/><path id="path6" class="cls-2" d="M2,93.5q94-4.23,188-7c41-1.21,82-1.2,123-3a34,34,0,0,1,4,0c7.59.48,9.79,3.34,17,4,3.43.31,5.89.54,8-1,2.69-2,2.47-5,4-9,2.3-5.94,6.57-8.67,9-11,13.14-12.6,3.07-42.8,16-50,1.84-1,6.89-.68,17,0,12.86.87,15.56,2.35,24,3,9.16.71,17.1-.53,33-3,18.33-2.85,22.55-5,27-2,6.91,4.69,6.35,16.49,6,25-3.08,73.72,1.91,69.16-4,96a286.56,286.56,0,0,1-15,48c-10.71,25.76-17.06,29.91-40,68-35.81,59.47-32.93,70.27-51,92a82.22,82.22,0,0,0-16,28c-2.51,7.72-3.16,13.93-4,24-2.71,32.34-3,46-3,46-.6,28.26-.91,42.39-2,59-1.78,27,.36,54.49-5,81a13,13,0,0,0,0,6c.91,3.62,3,4.45,5,8,2.73,4.83.9,6.86,3,11,2.24,4.42,6.2,5.78,10,8,6.94,4.06,8.38,8.09,17,19,9.17,11.61,9,8.93,22,24,14.53,16.9,17.75,23.8,29,32a57.15,57.15,0,0,0,15,8,55.78,55.78,0,0,0,15,3c17.86,1.28,30.47,8.63,72,17,25.94,5.23,32.9,4.76,38,4,5.78-.86,6.76-1.74,29-9,9.19-3,17.79-5.67,35-11,15.21-4.72,26.69-8.13,33-10,35.73-10.62,40.3-11.17,77-22,23.67-7,35.51-10.48,42-13,9.53-3.7,19.87-5.4,29-10,2.39-1.2,6.06-3.17,11-3,2.95.1,6.26,1,15,7,12.57,8.68,13.18,12.05,21,15,5.17,1.95,5.13.56,12,3,9.2,3.27,10.52,6.2,16,7,4.33.63,7.33-.64,17-5,14.79-6.67,22.19-10,24-11,0,0,31.32-17.13,43-35,2.29-3.5,3.34-6.72,3-10a13.84,13.84,0,0,0-3-7c-3.85-5.11-8.28-6-17-10-2.9-1.34-8.6-4.9-20-12-5.13-3.2-8.47-5.37-9-9-.39-2.67,1-4.68,3-8,8.45-13.71,5.66-12.14,12-21,5.86-8.19,8.79-12.28,11-13,9.68-3.16,17.91,12.51,38,25,15.63,9.72,30.08,12.32,45,15,15.72,2.83,25.54,2.16,55,1,20.33-.8,40.68-1.08,61-2,24.47-1.11,59.54-1.86,104,0"/><path id="path7" class="cls-2" d="M2,93.5c56.26-1.85,101.86-3.14,134-4,76.12-2,106.56-2.4,126-4,0,0,24.35-2,46-2h5a5.68,5.68,0,0,1,1,4c-.55,2.87-4,4.08-7,6-4.53,2.89-5.89,6-9,10-9.39,12.11-39.56,38.71-67,68-3.07,3.28-12.62,13.54-26,27a20.21,20.21,0,0,0-5,5c-3.59,5.53-4.19,13.82-1,16,2.55,1.75,6.89-.85,11-3,17.18-9,17.46-3.52,38-13,15.85-7.31,23.77-11,29-15,2.88-2.22,8.38-6.77,12-5,1.59.78,2.41,2.86,4,7a50.41,50.41,0,0,1,3,10c1.25,8.68-3.6,16.63-5,19-10.41,17.64-14.91,38.18-23,57-18.12,42.16-11.17,39.2-24,63-7.17,13.31-13.65,22.23-16,38-2.21,14.83-3,25-3,25-.76,9.71-.77,16.08-5,23-3.21,5.25-5.44,5.24-8,9-4.69,6.89-1.86,17.68,4,39,10.47,38.08,11.59,41.29,16,46s9.2,7.72,14,16c3.65,6.29,5.13,11.83,7,19,4.62,17.72,1.45,18.39,5,27,4.74,11.49,10,9.46,19,25a75.21,75.21,0,0,1,9,22c2.68,12-.29,14,3,21,2.25,4.76,4,4.61,19,18,12.35,11,14,13.72,15,17,1.87,6.28-.67,8.62,2,15a25.2,25.2,0,0,0,11,12c5.19,2.69,7.89,1.43,17,3a88,88,0,0,1,17,5c6.78,2.87,7.77,5.07,23,18,12.71,10.79,19.07,16.19,25,20,5,3.23,7.59,4.42,11,8,6.56,6.87,6.95,12.77,10,19,8,16.24,27.89,22.25,37,25,10.41,3.14,16.74,2.59,30,3,42.14,1.31,42.28,8.86,72,8a187.8,187.8,0,0,0,55-10c13-4.55,11.7-5.87,31-13,13-4.82,23.65-7.92,45-16,14-5.3,17.78-7.11,22-11,8-7.39,7.53-12.89,16-18,8.25-5,17.45-5,20-5,8,.05,9.13,2.47,18,2,4.92-.26,10.15-.6,15-4,3-2.12,2.89-3.32,8-8,3.1-2.84,5.89-5.4,9-7,6.67-3.44,10.83-.44,20-1,6.52-.4,12-2.93,23-8,13.7-6.32,13.54-8.8,22-11,8.17-2.12,8.5.14,21-2,9-1.54,15.08-2.64,21-7,5.69-4.18,4.35-6.29,11-13a58.28,58.28,0,0,1,22-14c10.71-3.65,14.35-.84,22-5,6.45-3.51,8.93-8.33,13-14,6.52-9.08,7.09-6.74,29-28,22.81-22.13,23.46-25.9,33-30,10.77-4.63,20.14-4.21,28-4,26.68.71,53.32-3.19,80-3,20.72.15,50.93.08,89-1"/><path id="path8" class="cls-2" d="M2,93.5c98,.79,154.2-2,188-5,34.89-3.08,70.12-.84,105-4,10.63-1,21.37,1.9,32,1,3-.25,7.86-.78,10,2,1.29,1.68,1.44,4.37-2,14-5,14-8,15.8-7,20,1.24,5.16,6.37,5,15,12s8.65,11.46,17,21c7.41,8.47,12.7,11,22,18,15.52,11.67,16.34,16.29,34,33,5.52,5.23,42.67,40.37,70,48,7.41,2.07,14.48,5.38,22,7,7.33,1.57,13.67,2.2,15,6,.91,2.61-1,5.47-2,7-24.81,36.73-32.53,41-35,52-.39,1.73-1.16,5.91-4,7-3.84,1.48-9.38-3.53-11-5-5.67-5.13-6.22-9.68-10-10-2.38-.2-4.31,1.42-5,2-3.28,2.75-3.43,7-4,10-1.23,6.47-4.54,7.71-11,17-7.47,10.75-4.23,10.82-12,23-7.3,11.44-12,14.33-13,23-.35,3.17.22,3.35,0,10a117.85,117.85,0,0,1-2,18c-2.12,11.95-.88,21.8-1,38-.17,22-2.55,17-4,48-1.46,31.21-2.19,46.81-1,51a9.46,9.46,0,0,1,0,6c-1.46,3.84-5.72,5.35-10,7-13.48,5.21-21.86,8.51-22,12-.09,2.29,3.39,4.12,5,5,10.55,5.8,17.86,16.16,27,24,16.25,13.94,24.37,20.92,30,27,5.85,6.32,8.17,9.63,14,13,8.43,4.88,14.74,4.42,25,6,21.93,3.37,18.21,9.31,38,12,24.56,3.34,36.84,5,37,5,.56,0,2.69-.28,4,1,1.47,1.43,1.12,4,1,5-.33,2.76.85-4.31,1,19,.06,9.79.09,14.69,0,15a7.25,7.25,0,0,0,0,5,6,6,0,0,0,3,3c3.14,1.33,6.76-1.23,10-3,.05,0-.52.28,16-5,19.55-6.25,29.32-9.37,34-11,16.79-5.85,20.54-8,31-10,6.15-1.2,12.23,1.5,15-2,1.94-2.45,1.22-5.94,0-11-3.76-15.56-7.88-27.66-8-28-5.47-16.06-2.62-10.17-7-23-3.37-9.86-5.68-15.19-3-19,1.56-2.21,3.85-2.57,9-4,10.61-3,5.9-2.84,20-7,14.87-4.39,15.21-3.07,28-7,16.05-4.93,19.41-8.2,21-10,3.77-4.27,3.25-6.74,8-13,4.46-5.87,8.48-8.39,13-12,13.29-10.6,11.78-15.34,27-30,10-9.67,9.58-6.53,18-15,13.56-13.65,12.18-19.2,24-30,12.16-11.12,16.31-7.69,22-16,7.58-11.07,5.47-24.84,3-41-3.49-22.81-9.33-23.08-10-41-.64-17,4.33-23.93-1-30-6.88-7.83-18.61-.15-28-8-8.55-7.14-7.78-21-7-35,.8-14.47,1.73-31.17,13-41,7-6.14,17.38-8.94,42-6,43.94,5.24,71.12,21.31,131,42a211.1,211.1,0,0,0,29,8c22.35,4.44,33.12,2.71,48,4,27.67,2.4,26.61,11.55,75,27,14.21,4.54,13.92,3.63,58,15,25.86,6.67,46.74,12.34,60,16"/><path id="path9" class="cls-2" d="M0,599.5c11.14-19.12,27.94-48.2,48-84,18.47-33,20.15-36.72,44-80,69.88-126.8,83.27-145,90-166,5.73-17.89,17.21-33.48,24-51a7.76,7.76,0,0,1,2-3c3.07-2.79,7.84-2.12,9-2,8,.81,24.08-6.61,51-19,25.93-11.93,30.63-16.48,33-19a83,83,0,0,0,13-19c8-16.22,7.26-28.31,14-30,2.7-.68,5.06.7,9,3,9.16,5.35,13.19,12.71,17,18,5.47,7.58,6.39,5.19,23,20,21.74,19.38,32.61,29.07,39,38,3.19,4.45,8.3,12.23,15,12,1.12,0,3.7-.35,8-4,7.14-6.06,9.87-13.58,12-19,6.74-17.17,10.12-25.75,16-31,2.92-2.6,7.57-5.6,24-8,14.48-2.11,31.63-4.62,54,0,26.34,5.44,44.25,17.53,58,27,30.78,21.22,32.95,34.63,69,58,11.23,7.28,20.58,12.18,26,15,29.38,15.3,44.07,22.95,63,25,15.51,1.68,23.92-1.06,31,6,5.58,5.57,6.7,13.62,8,23,2.47,17.84-2.5,24.24,3,32,4.74,6.69,13,8.39,16,9,12.36,2.54,19-4.11,34-7,8.94-1.73,16.3-.82,31,1,30.25,3.74,34.35,11.43,72,19a222.15,222.15,0,0,1,25,6c8.48,2.62,10.12,3.74,26,10,0,0,19.71,7.77,44,20,4.24,2.14,8.71,4.47,10,9,.94,3.3.35,8.33-8,18-9.76,11.31-16.87,13.58-28,22-8.69,6.57-15.46,14.38-29,30-17.22,19.87-14.19,20.3-22,26s-16.32,9.28-23,20c-3.45,5.53-3.46,8.23-3,10,1.61,6.2,10.88,8,20,11,22.81,7.43,18.08,13.33,39,20,29.28,9.33,39,11,39,11,2.37.41,7.31,1.18,10,5,3.37,4.79.22,10.15,3,13,3.65,3.74,13.72-.68,17-2,11.33-4.56,16.12-2,50-1,37.87,1.09,38.22-1.91,118-2h7"/><g id="Sites"><circle cx="482.5" cy="418" r="4"/><text class="cls-3" transform="translate(491.5 422.24)"><tspan class="cls-4">R</tspan><tspan class="cls-5" x="6.91" y="0">o</tspan><tspan class="cls-6" x="13.44" y="0">y</tspan><tspan x="19.36" y="0">al </tspan><tspan class="cls-7" x="31.07" y="0">P</tspan><tspan x="37.81" y="0">ala</tspan><tspan class="cls-8" x="52.07" y="0">c</tspan><tspan x="57.62" y="0">e</tspan></text><circle cx="313.5" cy="804" r="4"/><text class="cls-3" transform="translate(322.5 808.24)"><tspan class="cls-9">V</tspan><tspan class="cls-10" x="7.02" y="0">an </tspan><tspan class="cls-11" x="22.69" y="0">G</tspan><tspan class="cls-12" x="31.43" y="0">o</tspan><tspan x="38.1" y="0">gh </tspan><tspan class="cls-13" x="54.09" y="0">M</tspan><tspan class="cls-14" x="64.88" y="0">useum</tspan></text><circle cx="389.5" cy="765" r="4"/><text class="cls-3" transform="translate(398.5 769.24)"><tspan class="cls-15">R</tspan><tspan x="7.2" y="0">ijksmuseum</tspan></text><circle cx="889.5" cy="606" r="4"/><text class="cls-3" transform="translate(898.5 610.24)"><tspan class="cls-16">A</tspan><tspan x="7.82" y="0">rtis </tspan><tspan class="cls-4" x="27.41" y="0">R</tspan><tspan class="cls-5" x="34.32" y="0">o</tspan><tspan class="cls-6" x="40.85" y="0">y</tspan><tspan x="46.77" y="0">al </tspan><tspan class="cls-17" x="58.49" y="0">Z</tspan><tspan x="65.33" y="0">oo</tspan></text><circle cx="591.5" cy="384" r="4"/><text class="cls-3" transform="translate(600.5 388.24)"><tspan class="cls-6">T</tspan><tspan x="6.85" y="0">he </tspan><tspan class="cls-18" x="22.96" y="0">O</tspan><tspan x="32.35" y="0">ude Chu</tspan><tspan class="cls-19" x="76.38" y="0">r</tspan><tspan x="80.28" y="0">ch</tspan></text><circle cx="487.5" cy="394" r="4"/><text class="cls-3" transform="translate(496.5 398.24)"><tspan class="cls-6">T</tspan><tspan x="6.85" y="0">he </tspan><tspan class="cls-20" x="22.96" y="0">N</tspan><tspan x="31.93" y="0">ieu</tspan><tspan class="cls-21" x="47.45" y="0">w</tspan><tspan x="56.55" y="0">e Chu</tspan><tspan class="cls-19" x="87.37" y="0">r</tspan><tspan x="91.28" y="0">ch</tspan></text><circle cx="461.5" cy="501" r="4"/><text class="cls-3" transform="translate(470.5 505.24)"><tspan class="cls-16">A</tspan><tspan x="7.82" y="0">ms</tspan><tspan class="cls-12" x="22.58" y="0">t</tspan><tspan x="26.67" y="0">e</tspan><tspan class="cls-22" x="32.93" y="0">r</tspan><tspan x="36.85" y="0">dam </tspan><tspan class="cls-6" x="62.19" y="0">M</tspan><tspan x="72.98" y="0">useum</tspan></text><circle cx="365.5" cy="362" r="4"/><text class="cls-3" transform="translate(374.5 366.24)"><tspan class="cls-16">A</tspan><tspan x="7.82" y="0">nn </tspan><tspan class="cls-23" x="24.28" y="0">F</tspan><tspan class="cls-24" x="30.51" y="0">r</tspan><tspan x="34.63" y="0">ank </tspan><tspan class="cls-6" x="56" y="0">M</tspan><tspan x="66.8" y="0">useum</tspan></text><circle cx="644.5" cy="517" r="4"/><text class="cls-3" transform="translate(653.5 521.24)"><tspan class="cls-4">R</tspan><tspan x="6.91" y="0">emb</tspan><tspan class="cls-24" x="29.44" y="0">r</tspan><tspan x="33.55" y="0">andt </tspan><tspan class="cls-25" x="59.94" y="0">H</tspan><tspan x="68.81" y="0">ouse </tspan><tspan class="cls-6" x="96.71" y="0">M</tspan><tspan x="107.51" y="0">useum</tspan></text><circle cx="282.5" cy="821" r="4"/><text class="cls-3" transform="translate(291.5 825.24)"><tspan class="cls-26">S</tspan><tspan class="cls-12" x="6.14" y="0">t</tspan><tspan x="10.24" y="0">edelijk </tspan><tspan class="cls-6" x="46.32" y="0">M</tspan><tspan x="57.12" y="0">useum</tspan></text><circle cx="286.5" cy="737" r="4"/><text class="cls-3" transform="translate(295.5 741.24)"><tspan class="cls-27">V</tspan><tspan x="7.03" y="0">ondelpark</tspan></text><circle cx="662.5" cy="627" r="4"/><text class="cls-3" transform="translate(671.5 631.24)"><tspan class="cls-25">H</tspan><tspan x="8.87" y="0">ermita</tspan><tspan class="cls-28" x="41.62" y="0">g</tspan><tspan x="47.66" y="0">e</tspan><tspan class="cls-29" x="53.92" y="0"> </tspan><tspan class="cls-16" x="56.78" y="0">A</tspan><tspan x="64.61" y="0">ms</tspan><tspan class="cls-12" x="79.37" y="0">t</tspan><tspan x="83.46" y="0">e</tspan><tspan class="cls-22" x="89.72" y="0">r</tspan><tspan x="93.63" y="0">dam</tspan></text></g></g></g></svg>