<svg xmlns="http://www.w3.org/2000/svg" viewBox="0 0 1252.84 858.65"><defs><style>.cls-1,.cls-2{fill:none;stroke:#000;}.cls-2{stroke-miterlimit:10;}</style></defs><title>mapAndPaths_1</title><g id="Layer_2" data-name="Layer 2"><g id="MapAndPaths"><polyline id="Path" class="cls-1" points="0.44 90.15 314.44 80.15 321.44 83.15 339.44 85.15 350.44 67.15 365.44 16.15 343.44 10.15 341.44 17.15 337.44 18.15 340.44 9.15 321.44 2.15"/><polyline id="Path-2" class="cls-1" points="331.44 2.15 367.44 9.15 369.44 2.15"/><polyline id="Path-3" class="cls-1" points="378.44 2.15 377.44 10.15 389.44 15.15 394.44 17.15 458.44 10.15 464.44 11.15 466.44 2.15"/><polyline id="Path-4" class="cls-1" points="484.44 3.15 489.44 19.15 479.44 149.15 515.44 151.15 512.44 126.15 518.44 96.15 522.44 101.15 519.44 104.15 539.44 140.15 553.44 134.15 532.44 97.15 527.44 99.15 521.44 88.15 517.44 87.15 500.44 17.15 497.44 18.15 498.44 8.15 497.44 1.15"/><polyline id="Path-5" class="cls-1" points="594.5 2.15 623.5 129.15 643.5 134.15 648.5 143.15 656.5 148.15 718.5 102.15 726.5 91.15 733.5 72.15 733.5 58.15 715.5 0.15"/><polyline id="Path-6" class="cls-1" points="599.44 2.15 607.44 37.15 611.44 36.15 603.44 1.15"/><polyline id="Path-7" class="cls-1" points="663.44 3.15 667.44 11.15 673.44 8.15 671.44 2.15"/><polyline id="Path-8" class="cls-1" points="724.5 2.15 742.5 60.15 742.5 74.15 737.5 89.15 727.5 104.15 675.5 144.15 668.5 146.15 664.5 152.15 671.5 158.15 667.5 171.15 675.5 181.15 740.5 132.15 746.5 139.15 693.5 183.15 690.5 188.15 693.5 194.15 713.5 203.15 721.5 196.15 719.5 192.15 712.5 199.15 699.5 186.15 737.5 156.15 743.5 154.15 740.5 159.15 744.5 163.15 723.5 186.15 723.5 189.15 729.5 188.15 747.5 167.15 750.5 169.15 773.5 146.15 776.5 150.15 754.5 171.15 757.5 177.15 751.5 184.15 797.5 192.15 798.5 199.15 802.5 203.15 822.5 204.15 825.5 209.15 933.5 187.15 921.5 119.15 930.5 117.15 934.5 140.15 932.5 144.15 941.5 185.15 1049.5 165.15 1052.5 161.15 1060.5 156.15 1049.5 130.15 1067.5 124.15 1083.5 150.15 1132.5 138.15 1129.5 129.15 1113.5 118.15 1124.5 98.15 1133.5 104.15 1134.5 109.15 1142.5 108.15 1144.5 120.15 1153.5 125.15 1155.5 119.15 1172.5 127.15 1212.5 120.15 1227.5 130.15 1251.5 133.15"/><polyline id="Path-9" class="cls-1" points="1246.44 3.5 1232.44 60.5 1241.44 65.5 1242.44 72.5 1248.44 72.5 1250.44 68.5"/><polyline id="Path-11" class="cls-1" points="1.44 95.5 309.44 86.5 312.44 88.5 309.44 90.5 306.44 90.5 196.44 203.5 190.44 244.5 139.44 336.5 135.44 336.5 108.44 223.5 103.44 224.5 130.44 342.5 135.44 345.5 97.44 411.5 91.44 419.5 80.44 443.5 78.44 450.5 0.44 589.5"/><polyline id="Path-12" class="cls-1" points="1.44 603.5 80.44 461.5 85.44 458.5 92.44 458.5 164.44 627.5"/><polyline id="Path-13" class="cls-1" points="164.44 627.15 137.44 640.15 0.44 694.15"/><polyline id="Path-14" class="cls-1" points="0.5 701.15 102.5 660.15 148.5 641.15 254.5 588.15 264.5 599.15 267.5 600.15 275.5 610.15 282.5 631.15 283.5 650.15 289.5 662.15 292.5 664.15 310.5 673.15 319.5 683.15 323.5 705.15 332.5 713.15 337.5 715.15 363.5 719.15 413.5 760.15 408.5 768.15 405.5 773.15 402.5 851.15 402.5 858"/><polyline id="Path-15" class="cls-1" points="408.5 858.5 411.5 773.5 411.5 769.5 418.5 760.5 422.5 760.5 425.5 763.5 435.5 779.5 431.5 781.5 437.5 788.5 444.5 797.5 456.5 806.5 468.5 811.5 572.5 821.5 592.5 822.5 600.5 820.5 605.5 818.5 614.5 817.5 646.5 804.5 654.5 804.5 684.5 793.5 693.5 829.5 702.5 858.5"/><polyline id="Path-16" class="cls-1" points="731.44 858.5 715.44 801.5 710.44 784.5 720.44 779.5 724.44 779.5 740.44 766.5 749.44 756.5 768.44 750.5 787.44 752.5 796.44 748.5 811.44 733.5 840.44 731.5 858.44 725.5 868.44 720.5 887.44 712.5 901.44 711.5 915.44 710.5 926.44 704.5 943.44 682.5 951.44 679.5 980.44 673.5 995.44 655.5 998.44 655.5 1024.44 629.5 1048.44 610.5 1049.44 606.5 1061.44 598.5 1071.44 597.5 1121.44 596.5 1129.44 594.5 1138.44 595.5 1143.44 596.5 1213.44 595.5 1250.44 594.5"/><polyline id="Path-17" class="cls-1" points="1251 583.5 1062.44 586.5 1059.44 587.5 1058.44 583.5 1061.44 579.5 1068.44 578.5 1251 575.5"/><path id="Path-18" class="cls-1" d="M1127.44,858.15l124-45"/><path id="Path-19" class="cls-1" d="M1138.44,858.15l113-40"/><polyline id="Path-20" class="cls-1" points="1251 569.5 1038.44 570.5 1035.44 572.5 952.44 526.5 956.44 518.5 963.44 513.5 967.44 517.5 970.44 519.5 983.44 506.5 984.44 500.5 1008.44 476.5 1043.44 509.5 1036.44 516.5 1042.44 522.5 1094.44 469.5 1089.44 465.5 1048.44 507.5 1034.44 494.5 1031.44 494.5 1028.44 490.5 1020.44 485.5 1010.44 474.5 1079.44 404.5 1026.44 376.5 1005.44 366.5 969.44 355.5 967.44 359.5 957.44 355.5 952.44 352.5 857.44 327.5 832.44 331.5 831.44 328.5 828.5 328.5 829.5 331.5 810.5 335.5 810.5 340.5 806.5 340.5 802.5 295.5 854.5 302.5 855.5 299.5 826.5 291.5 832.5 265.5 963.5 302.5 963.5 306.15 1039.5 328.15 1040.5 324.15 1049.5 327.15 1048.5 331.15 1251.5 387.15"/><polyline id="Path-21" class="cls-1" points="1251.5 492.15 1239.5 494.15 1240.5 499.15 1233.5 498.15 1233.5 493.5 1217.5 492.5 1214.5 495.5 1219.5 503.5 1220.5 508.5 1226.5 515.5 1235.5 515.5 1235.5 508.5 1240.5 508.5 1240.5 511.5 1247.5 511.5 1247.5 516.5 1251 516.5"/><polyline id="Path-22" class="cls-1" points="1252.44 374.15 1223.44 333.15 1188.44 334.15 1187.44 329.15 1192.44 328.15 1190.44 319.15 949.44 249.15 943.44 250.15 938.44 254.15 934.44 250.15 910.44 254.15 908.44 243.15 987.44 228.15 1068.44 253.15 1156.44 276.15 1220.44 295.15 1252.44 297.15"/><polyline id="Path-23" class="cls-1" points="1251 337.5 1237.5 337.5 1237.5 341.5 1246.5 353.5 1251.5 362.5"/><polygon id="Path-24" class="cls-1" points="318.44 85.15 201.44 204.15 199.44 212.15 206.44 213.15 277.44 185.15 286.44 183.15 290.44 176.15 305.44 165.15 329.44 108.15 333.44 96.15 331.44 90.15 318.44 85.15"/><polygon id="Path-25" class="cls-1" points="94.5 442.15 125.5 382.15 131.5 384.15 128.5 377.15 146.5 342.15 146.5 336.15 171.5 295.15 181.5 298.15 174.5 291.15 208.5 223.15 278.5 195.15 281.5 189.15 287.5 186.15 288.5 191.15 292.5 202.15 225.5 376.15 221.5 407.15 215.5 411.15 211.5 410.15 98.5 449.15 94.5 442.15"/><polygon id="Path-26" class="cls-1" points="99.44 455.15 170.44 623.15 207.44 606.15 167.44 507.15 163.44 489.15 167.44 468.15 181.44 433.15 175.44 428.15 99.44 455.15"/><polygon id="Path-2-2" data-name="Path" class="cls-1" points="214.5 601.15 171.5 497.15 171.5 485.15 173.5 465.15 192.5 422.15 212.5 415.15 219.5 413.15 218.5 418.15 207.5 433.15 205.5 446.15 223.5 516.15 230.5 531.15 243.5 536.15 252.5 563.15 253.5 585.15 247.5 587.15 214.5 601.15"/><polygon id="Path-3-2" data-name="Path" class="cls-1" points="394.5 48.5 395.5 42.5 396.5 26.5 399.5 22.5 407.5 20.5 409.5 23.5 417.5 20.5 457.5 17.5 460.5 15.5 465.5 16.5 464.5 23.5 471.5 23.5 471.5 27.5 464.5 26.5 463.5 38.5 465.5 39.5 462.5 46.5 458.5 45.5 453.5 43.5 416.5 46.5 416.5 49.5 414.5 47.5 394.5 48.5"/><polyline id="Path-4-2" data-name="Path" class="cls-1" points="401.44 59.5 400.44 67.5 398.44 104.5 401.44 105.5 422.44 126.5 425.44 126.5 426.44 121.5 429.44 97.5 428.44 92.5 430.44 86.5 429.44 80.5 431.44 75.5 430.44 56.5 424.44 57.5 420.44 55.5 416.5 55.5 416.5 58.5 409.44 58.5 408.44 55.5 407.44 58.5"/><polygon id="Path-5-2" data-name="Path" class="cls-1" points="336.5 103.5 333.5 108.5 333.5 113.5 332.5 120.5 338.5 128.5 345.5 133.5 347.5 137.5 431.5 215.5 435.5 214.5 440.5 204.5 443.5 204.5 449.5 193.5 447.5 192.5 465.5 159.5 463.5 150.5 463.5 125.5 465.5 123.5 466.5 103.5 463.5 101.5 465.5 58.5 467.5 54.5 466.5 50.5 454.5 49.5 448.5 53.5 439.5 56.5 438.5 60.5 436.5 90.5 433.5 91.5 433.5 99.15 434.5 107.15 434.5 113.5 430.5 118.5 430.5 132.5 427.5 135.5 388.5 100.5 389.5 79.5 391.5 79.5 392.5 74.5 390.5 74.5 391.5 42.5 394.5 25.5 392.5 23.5 392.5 20.5 374.5 17.5 371.5 30.5 369.5 31.5 368.5 40.5 356.5 68.5 353.5 69.5 355.5 72.5 354.5 75.5 350.5 74.5 345.5 82.5 350.5 85.5 346.5 97.5 339.5 104.5 336.5 103.5"/><polygon id="Path-27" class="cls-1" points="346.44 144.15 262.44 360.15 364.44 325.15 369.44 323.15 373.44 324.15 430.44 223.15 346.44 144.15"/><polygon id="Path-28" class="cls-1" points="228.44 494.15 211.44 448.15 213.44 438.15 222.44 427.15 230.44 410.15 232.44 402.15 235.44 401.15 244.44 403.15 242.44 418.15 239.44 424.15 238.44 434.15 234.44 450.15 250.44 487.15 246.44 488.15 228.44 494.15"/><polygon id="Path-6-2" data-name="Path" class="cls-1" points="261.44 363.5 254.44 381.5 249.44 396.5 285.44 383.5 314.44 372.5 318.44 372.5 348.44 360.5 353.44 361.5 372.44 327.5 369.44 326.5 340.44 337.5 337.44 337.5 308.44 348.5 305.44 348.5 261.44 363.5"/><polygon id="Path-29" class="cls-1" points="249.44 399.5 315.44 374.5 319.44 374.5 346.44 363.5 352.44 363.5 347.44 373.5 341.44 449.5 338.44 449.5 254.44 485.5 238.44 449.5 239.44 441.5 241.44 434.5 249.44 399.5"/><polygon id="Path-30" class="cls-1" points="255.44 488.5 259.44 488.5 338.44 452.5 341.44 452.5 338.44 529.5 337.44 531.5 333.44 530.5 284.44 558.5 274.44 533.5 272.44 527.5 255.44 488.5"/><polygon id="Path-31" class="cls-1" points="250.5 490.5 231.5 501.5 234.5 508.5 261.5 565.5 258.5 567.5 262.5 576.5 259.5 578.5 265.5 589.5 281.5 605.5 288.5 625.5 295.5 627.5 304.5 623.5 341.5 600.5 338.5 591.5 334.5 589.5 336.5 570.5 332.5 570.5 295.5 590.5 288.5 578.5 288.5 574.5 270.5 535.5 268.5 529.5 250.5 490.5"/><polygon id="Path-32" class="cls-1" points="285.44 560.5 334.44 534.5 337.44 534.5 335.44 566.5 298.44 586.5 291.44 576.5 292.44 572.5 285.44 560.5"/><polygon id="Path-33" class="cls-1" points="340.5 588.5 342.5 529.5 343.5 526.5 344.5 489.5 345.5 486.5 351.5 376.5 369.5 345.5 391.5 357.5 378.5 384.5 377.5 390.5 372.5 490.5 370.5 492.5 369.5 530.5 368.5 532.5 367.5 569.5 368.5 573.5 372.5 579.5 372.5 583.5 369.5 583.5 345.5 598.5 343.5 595.5 340.5 588.5"/><polygon id="Path-34" class="cls-1" points="370.5 341.15 372.5 344.15 392.5 354.15 422.5 301.15 425.5 297.15 452.5 246.15 455.5 244.15 437.5 228.15 437.5 226.15 435.5 224.15 433.5 227.15 370.5 341.15"/><polygon id="Path-35" class="cls-1" points="397.44 356.15 399.44 359.15 423.44 372.15 487.44 258.15 485.44 255.15 459.44 247.15 397.44 356.15"/><polygon id="Path-36" class="cls-1" points="436.5 222.5 438.5 224.5 440.5 222.5 459.5 240.5 464.5 243.5 485.5 250.5 488.5 253.5 490.5 252.5 518.5 262.5 521.5 264.5 525.5 264.5 526.5 260.5 528.5 261.5 532.5 256.5 532.5 252.5 535.5 249.5 542.5 244.5 541.5 243.5 548.5 230.5 553.5 225.5 571.5 196.5 543.5 166.5 541.5 166.5 534.5 160.5 519.5 154.5 516.44 154.5 501.44 159.5 497.44 159.5 477.44 161.5 470.44 166.5 458.44 183.5 452.44 194.5 450.5 194.5 444.5 205.5 445.5 206.5 436.5 222.5"/><polygon id="Path-37" class="cls-1" points="460.44 317.15 494.44 257.15 518.44 265.15 519.44 268.15 491.44 311.15 489.44 313.15 478.44 329.15 460.44 317.15"/><polygon id="Path-38" class="cls-1" points="459.5 320.5 477.5 331.5 446.5 380.5 444.5 381.5 438.5 409.5 440.5 410.5 438.5 416.5 436.5 417.5 432.5 435.5 432.5 441.5 427.5 491.5 425.5 497.5 421.5 537.5 423.5 540.5 411.5 548.5 409.5 548.5 409.5 532.5 410.5 530.5 411.5 494.5 412.5 491.5 415.5 440.5 416.5 411.5 418.5 393.5 429.5 373.5 431.5 370.5 459.5 320.5"/><polygon id="Path-39" class="cls-1" points="404.5 564.5 404.5 532.5 405.5 530.5 406.5 494.5 407.5 491.5 409.5 441.5 411.5 439.5 411.5 413.5 413.5 408.5 412.5 393.5 422.5 375.5 396.5 360.5 383.5 384.5 381.5 395.5 380.5 437.5 377.5 488.5 376.5 491.5 374.5 530.5 373.5 532.5 372.5 565.5 373.5 571.5 376.5 575.5 376.5 579.5 380.5 579.5 404.5 564.5"/><polygon id="Path-40" class="cls-1" points="577.5 199.5 556.5 234.5 556.5 238.5 559.5 244.5 562.5 246.5 564.5 246.5 580.5 259.5 583.5 259.5 583.5 261.5 583.5 265.5 578.5 272.5 576.5 272.5 549.5 246.5 545.44 246.5 530.44 261.5 461.44 367.5 456.44 377.5 450.44 382.5 452.44 385.5 442.44 421.5 439.44 439.5 437.44 442.5 432.44 492.5 431.44 496.5 427.44 533.5 457.44 572.5 483.44 578.5 503.5 578.5 511.5 580.5 520.5 573.5 520.5 569.5 518.5 563.5 500.5 540.5 495.5 525.5 496.5 522.5 516.5 521.5 517.5 518.5 526.5 518.5 533.5 479.5 546.5 457.5 592.5 396.5 596.5 393.5 624.5 350.5 626.5 346.5 662.5 321.5 660.5 317.5 660.5 312.5 663.5 309.5 673.5 312.5 689.5 285.5 692.5 284.5 697.5 271.5 577.5 199.5"/><polygon id="Path-41" class="cls-1" points="678.5 316.15 693.5 290.15 703.5 275.15 707.5 276.15 787.5 290.15 787.5 293.15 789.5 295.15 791.5 313.15 791.5 325.15 795.5 345.15 792.5 353.15 783.5 362.15 796.5 375.15 813.5 380.15 813.5 375.15 824.5 373.15 826.5 397.15 826.5 421.5 821.5 440.5 817.5 452.5 818.5 455.5 828.5 460.5 827.5 464.5 831.5 467.5 823.5 473.5 811.5 488.5 799.5 501.5 795.5 501.5 784.5 516.5 777.5 524.5 774.5 523.5 733.5 567.5 723.5 578.5 704.5 590.5 693.5 594.5 692.5 592.5 648.5 606.5 644.5 597.5 641.5 595.5 640.5 586.5 620.5 575.5 618.5 577.5 616.5 575.5 617.5 573.5 607.5 565.5 604.5 566.5 601.5 563.5 608.5 553.5 608.5 550.5 611.5 550.5 626.5 527.5 629.5 527.5 639.5 511.5 649.5 501.5 683.5 523.5 760.5 473.5 733.5 448.5 734.5 445.5 748.5 434.5 745.5 431.5 751.5 427.5 755.5 429.5 765.5 427.5 793.5 440.5 796.5 438.5 810.5 413.5 813.5 396.5 813.5 383.5 794.5 377.5 781.5 364.5 772.5 367.5 746.5 357.5 742.5 364.5 734.5 359.5 739.5 353.5 739.5 348.15 713.5 336.15 678.5 316.15"/><polygon id="Path-42" class="cls-1" points="696.5 340.5 704.5 345.5 697.5 356.5 700.5 357.5 701.5 355.5 706.5 360.5 704.5 362.5 715.5 372.5 709.5 380.5 711.5 382.5 717.5 375.5 721.5 377.5 713.5 388.5 721.5 395.5 729.5 386.5 732.5 388.5 724.5 397.5 733.5 404.5 740.5 396.5 743.5 398.5 736.5 408.5 745.5 415.5 752.5 407.5 755.5 409.5 747.5 418.5 746.5 422.5 749.5 424.5 742.5 428.5 740.5 427.5 730.5 432.5 724.5 437.5 720.5 436.5 720.5 433.5 685.5 401.5 682.5 401.5 682.5 398.5 677.5 383.5 680.5 371.5 675.5 367.5 683.5 357.5 686.5 356.5 689.5 352.5 696.5 340.5"/><polygon id="Path-43" class="cls-1" points="662.5 335.15 668.5 331.15 674.5 337.15 680.5 346.15 681.5 356.15 672.5 365.15 669.5 363.15 664.5 385.15 671.5 404.15 673.5 406.15 673.5 408.15 709.5 441.15 713.5 442.15 713.5 446.15 710.5 447.15 696.5 457.15 643.5 409.15 639.5 408.15 662.5 335.15"/><polygon id="Path-44" class="cls-1" points="539.44 475.5 571.44 429.5 575.44 428.5 600.44 393.5 612.44 374.5 615.44 373.5 626.44 354.5 630.44 356.5 631.44 362.5 629.44 369.5 625.44 376.5 609.44 401.5 567.44 462.5 563.44 469.5 551.44 491.5 548.44 496.5 537.44 518.5 531.44 518.5 539.44 475.5"/><polygon id="Path-45" class="cls-1" points="628.5 348.5 635.5 342.5 638.5 341.5 663.5 322.5 667.5 328.5 661.5 332.5 658.5 333.5 658.5 335.5 655.5 334.5 639.5 383.5 641.5 385.5 640.5 390.5 636.5 390.5 630.5 413.5 638.5 413.5 639.5 410.5 642.5 411.5 663.5 431.5 664.5 435.5 660.5 447.5 657.5 459.5 651.5 468.5 643.5 475.5 638.5 477.5 640.5 485.5 646.5 500.5 628.5 517.5 623.5 514.5 616.5 508.5 589.5 499.5 600.5 476.5 604.5 471.5 618.5 448.5 613.5 444.5 599.5 471.5 599.5 474.5 596.5 474.5 559.5 538.5 559.5 542.5 551.5 556.5 544.5 561.5 537.5 568.5 529.5 570.5 522.5 562.5 506.5 538.5 501.5 525.5 517.5 522.5 537.5 521.5 541.5 517.5 550.5 499.5 556.5 489.5 569.5 463.5 600.5 417.5 611.5 401.5 629.5 374.5 633.5 365.5 633.5 359.5 628.5 348.5"/><polygon id="Path-46" class="cls-1" points="555.44 562.5 558.44 562.5 575.44 561.5 602.44 509.5 588.44 503.5 566.44 541.5 563.44 544.5 555.44 562.5"/><polygon id="Path-47" class="cls-1" points="578.5 561.15 590.5 563.15 598.5 551.15 602.5 549.15 621.5 519.15 623.5 518.15 622.5 515.15 606.5 509.15 578.5 558.15 578.5 561.15"/><polygon id="Path-48" class="cls-1" points="641.44 480.15 646.44 492.15 680.44 467.15 683.44 468.15 684.44 465.15 693.44 459.15 691.44 455.15 666.44 434.15 658.44 464.15 641.44 480.15"/><polygon id="Path-49" class="cls-1" points="659.44 496.15 668.44 509.15 681.44 517.15 702.44 504.15 707.44 500.15 741.44 477.15 738.44 473.15 743.44 469.15 739.44 463.15 741.44 462.15 739.44 460.15 737.44 461.15 724.44 452.15 659.44 496.15"/><polygon id="Path-50" class="cls-1" points="409.5 551.5 409.5 560.5 468.5 616.5 507.5 625.5 557.5 636.5 558.5 635.5 580.5 626.5 582.5 627.5 590.5 626.5 591.5 624.5 629.5 612.5 629.5 604.5 629.5 596.5 625.5 591.5 606.5 580.5 580.5 577.5 574.5 575.5 558.5 577.5 556.5 574.5 551.5 574.5 549.5 576.5 533.5 575.5 523.5 574.5 510.5 583.5 505.5 585.5 488.5 585.5 469.5 581.5 461.5 579.5 455.5 576.5 456.5 573.5 449.5 565.5 447.5 566.5 425.5 542.5 409.5 551.5"/><polygon id="Path-51" class="cls-1" points="380.44 581.5 406.44 566.5 409.44 568.5 467.44 622.5 553.44 641.5 552.44 643.5 553.44 669.5 555.44 671.5 552.44 671.5 549.44 671.5 482.44 656.5 452.44 650.5 380.44 581.5"/><polygon id="Path-52" class="cls-1" points="347.44 601.15 373.44 585.15 395.44 605.15 398.44 606.15 449.44 654.15 554.44 679.15 556.44 719.15 428.44 690.15 347.44 601.15"/><polygon id="Path-53" class="cls-1" points="313.5 621.5 340.5 604.5 363.5 627.5 368.5 631.5 370.5 636.5 423.5 693.5 409.5 715.5 409.5 718.5 365.5 685.5 363.5 688.5 409.5 724.5 433.5 745.5 427.5 753.5 425.5 752.5 422.5 756.5 420.5 756.5 368.5 715.5 357.5 711.5 348.5 711.5 337.5 710.5 329.5 706.5 327.5 699.5 325.5 687.5 323.5 680.5 309.5 664.5 306.5 661.5 298.5 658.5 292.5 652.5 290.5 644.5 291.5 635.5 296.5 630.5 309.5 624.5 319.5 633.5 313.5 621.5"/><polygon id="Path-54" class="cls-1" points="411.5 718.5 411.5 721.5 412.5 723.5 414.5 723.5 460.5 760.5 479.5 763.5 481.5 761.5 558.5 770.5 558.5 767.5 556.5 728.5 487.5 710.5 427.5 697.5 426.5 694.5 423.5 697.5 413.5 718.5 411.5 718.5"/><polygon id="Path-55" class="cls-1" points="557.5 639.5 555.5 643.5 558.5 668.5 558.5 671.5 561.5 672.5 588.5 662.5 591.5 663.5 599.5 661.5 600.5 658.5 634.5 647.5 640.5 647.5 633.5 622.5 632.5 617.5 630.5 617.5 592.5 629.5 590.5 628.5 583.5 630.5 581.5 632.5 560.5 640.5 557.5 639.5"/><polygon id="Path-56" class="cls-1" points="557.5 677.5 562.5 677.5 590.5 668.5 591.5 665.5 599.5 663.5 604.5 664.5 639.5 651.5 643.5 652.5 649.5 669.5 654.5 691.5 650.44 691.5 611.44 704.5 610.44 706.5 601.44 707.5 599.5 707.5 562.5 719.5 559.5 719.5 559.5 713.5 557.5 677.5"/><polygon id="Path-57" class="cls-1" points="559.5 723.5 563.5 724.5 601.5 712.5 601.5 710.5 610.5 707.5 612.5 708.5 655.5 695.5 659.5 697.5 661.5 701.5 659.5 703.5 660.5 707.5 663.5 706.5 663.5 700.5 671.5 696.5 677.5 712.5 667.5 715.5 664.5 709.5 662.5 710.5 664.5 720.5 664.5 723.5 661.5 723.5 640.5 730.5 641.5 734.5 662.5 726.5 666.5 726.5 677.5 756.5 677.5 761.5 682.5 777.5 684.5 787.5 653.5 797.5 650.5 799.5 644.5 800.5 613.5 812.5 603.5 812.5 592.5 816.5 494.5 807.5 470.5 804.5 463.5 802.5 451.5 794.5 441.5 785.5 426.5 758.5 434.5 747.5 436.5 747.5 448.5 756.5 458.5 764.5 470.5 765.5 479.5 767.5 560.5 775.5 562.5 770.5 560.5 768.5 561.5 765.5 559.5 723.5"/><polygon id="Path-59" class="cls-1" points="652.5 611.5 661.5 640.5 708.5 625.5 716.5 623.5 758.5 609.5 767.5 608.5 792.5 621.5 794.5 624.5 864.5 662.5 868.5 665.5 882.5 672.5 888.5 673.5 915.5 660.5 923.5 658.5 928.5 654.5 950.5 638.5 964.5 620.5 967.5 613.5 963.5 605.5 960.5 604.5 957.5 603.5 936.5 592.5 937.5 590.5 933.5 588.5 932.5 590.5 922.5 584.5 923.5 582.5 920.5 580.5 919.5 582.5 840.5 539.5 835.5 537.5 796.5 515.5 791.5 520.5 784.5 520.5 767.5 540.5 743.5 568.5 741.5 568.5 734.5 574.5 735.5 575.5 728.5 584.5 723.5 587.5 725.5 589.5 728.5 589.5 733.5 592.5 739.5 593.5 750.5 601.5 750.5 603.5 741.5 600.5 738.5 597.5 731.5 594.5 725.5 593.5 721.5 589.5 707.5 594.5 700.5 595.5 694.5 596.5 652.5 611.5"/><polygon id="Path-60" class="cls-1" points="835.5 369.5 854.5 415.5 879.5 406.5 889.5 416.5 873.5 431.5 870.5 429.5 863.5 434.5 867.5 443.5 850.5 452.5 858.5 468.5 856.5 470.5 866.5 477.5 869.5 479.5 898.5 495.5 904.5 485.5 929.5 458.5 937.5 450.5 945.5 450.5 995.5 398.5 995.5 395.5 991.5 391.5 993.5 380.5 989.5 376.5 965.5 371.5 959.5 371.5 856.5 344.5 835.5 369.5"/><polygon id="Path-61" class="cls-1" points="901.44 496.15 950.44 524.15 959.44 512.15 957.44 511.15 961.44 505.15 964.44 508.15 986.44 485.15 994.44 475.15 982.44 459.15 984.44 457.15 996.44 466.15 1014.44 448.15 1017.44 450.15 1021.44 446.15 1020.44 445.15 1046.44 415.15 1043.44 406.15 1004.44 397.15 953.44 449.15 946.44 456.15 940.44 455.15 937.44 456.15 936.44 459.15 937.44 465.15 918.44 486.15 910.44 484.15 905.44 488.15 901.44 496.15"/><polygon id="Path-62" class="cls-1" points="800.44 503.5 811.44 491.5 814.44 491.5 827.44 478.5 826.44 476.5 834.44 468.5 835.44 470.5 846.44 475.5 865.44 492.5 863.44 495.5 878.44 503.5 880.44 499.5 924.44 526.5 923.44 529.5 933.44 534.5 936.44 537.5 930.44 554.5 929.44 556.5 927.44 555.5 922.44 564.5 924.44 565.5 921.44 569.5 918.44 568.5 907.44 567.5 873.44 548.5 816.44 516.5 804.44 507.5 800.44 503.5"/><polygon id="Path-63" class="cls-1" points="924.5 571.5 927.5 566.5 928.5 567.5 933.5 559.5 932.5 557.5 945.5 542.5 951.44 542.5 957.44 547.5 1004.44 573.5 1014.44 573.5 1018.44 572.5 1030.44 577.5 1033.44 580.5 1050.44 581.5 1053.44 585.5 1055.44 585.5 1056.44 588.5 1047.44 597.5 1024.44 618.5 977.44 665.5 971.44 667.5 941.44 676.5 936.44 682.5 930.44 689.5 923.44 699.5 916.44 703.5 892.44 706.5 884.44 705.5 869.44 711.5 866.44 714.5 846.44 721.5 816.44 728.5 809.5 728.5 798.5 739.5 789.5 745.5 786.5 746.5 772.5 746.5 763.5 742.5 761.5 744.5 744.5 749.5 727.5 769.5 713.5 776.5 705.5 777.5 702.5 775.5 695.5 753.5 695.5 750.5 677.5 695.5 676.5 689.5 692.5 685.5 693.5 688.5 701.5 715.5 855.5 665.5 881.5 680.5 886.5 679.5 920.5 664.5 920.5 662.5 925.5 662.5 950.5 643.5 973.5 621.5 975.5 616.5 966.5 601.5 932.5 581.5 924.5 571.5"/><polygon id="Path-64" class="cls-1" points="663.5 645.5 668.5 666.5 668.5 669.5 674.5 685.5 679.5 685.5 780.5 653.5 784.5 654.5 794.5 649.5 799.5 649.5 799.5 644.5 803.5 638.5 802.5 635.5 766.5 615.5 763.5 615.5 720.5 628.5 716.5 626.5 663.5 645.5"/><polygon id="Path-65" class="cls-1" points="696.5 684.15 696.5 687.15 704.5 708.15 706.5 709.15 847.5 664.15 848.5 662.15 821.5 647.15 802.5 652.15 800.5 651.15 796.5 652.15 796.5 654.15 735.5 673.15 733.5 672.15 696.5 684.15"/><polygon id="Path-58" class="cls-1" points="294.44 185.5 300.44 201.5 231.44 378.5 226.44 398.5 240.44 400.5 246.44 397.5 248.44 387.5 344.44 139.5 342.44 136.5 338.44 132.5 326.44 132.5 324.44 138.5 309.44 179.5 294.44 185.5"/><path id="path0" class="cls-2" d="M.44,94.17c34.43,0,53.57.15,72.9-.59,53.62-2.07,61.38-4.39,103.36-4.77,45.55-.41,45.26,2.25,72.36,0,38.43-3.19,61.6-10.4,64.4-4,1.79,4.12-6.51,9.83-28.62,31-31.33,30-25.2,28.66-42.94,43.73-24,20.38-36.67,24.12-44.53,42.94-3.32,7.94-6.5,20.32-3.18,22.26,2.42,1.42,6.92-3.55,12.72-8,19-14.43,31.1-6.91,61.22-20.67a123.31,123.31,0,0,0,23.06-13.52c9.36-7.1,20.69-15.7,27-30.21,5.83-13.34,2.95-21.38,8.75-23.85,6.36-2.71,17.57,3.67,19.08,11.13a11.89,11.89,0,0,1-1.59,8c-10.33,18.87-15.27,40.28-24.65,59.63-3.92,8.08-9.5,22.08-20.67,50.09-6.27,15.71-8.75,22.48-16.7,42.14-3,7.43-7.17,17.75-12.72,31-15.75,37.65-20.78,46.83-24.65,65.2-1,5-1.32,7.32-3.18,15.9-5.31,24.4-7.77,26.69-8,34.19-.24,10.22,4.2,11.54,17.49,37.37,11.81,22.93,7.87,21,20.67,46.12,11.92,23.35,15.54,25.4,15.9,35,.16,4.16-.17,13.08,4.77,15.9,2.45,1.4,5.55.92,6.36.8,3.92-.6,5.79-2.91,9.54-5.57,2.67-1.89,5.49-3.12,11.13-5.57,11.44-5,14.63-3.63,17.49-7.16s2-7.62,1.59-14.31c-.79-13.32,1.85-9.6,3.18-37.37.67-13.94,0-14.31.8-27,.69-10.7,1.55-16.06,2.39-23.85a401.52,401.52,0,0,0,2.39-61.22c-.67-15.14-2.11-22.85,3.18-31,3.38-5.21,6.68-6.26,11.13-14.31,4.67-8.46,5.88-16.1,8-15.9,1.11.11,1.32,2.34,2.39,4.77,3.94,9,17.08,15.17,23.85,11.93,2.84-1.36,3-3.62,6.36-11.13,1.88-4.17,6.56-11.79,15.9-27,5.68-9.26,5.31-8.11,11.13-17.49,12.27-19.76,18.4-29.64,21.47-36.58,4.81-10.85,6.15-17.34,11.13-18.29,3.67-.7,5.09,2.43,13.52,5.57,10,3.73,14.36,1.69,16.7,4.77,4,5.21-3.74,17.2-8,23.85-27.71,43.78-3.05,11.73-35,58.84-20.16,29.74-23.53,33-27,44.53-3.45,11.36-4.95,23.94-6.36,35.78-1.32,11.07-1.25,14.78-2.39,31.8-3,44.75-6.19,59.18-4,88.26.29,3.8.6,6.88.8,8.75a43.76,43.76,0,0,1,8-4.77c6.76-3.13,10.76-2.85,11.93-5.57s-1.56-5.05-3.18-8.75c-3.4-7.77.73-14.43,4-26.24,1.93-7,2.61-15.55,4-32.6,1.27-15.93.38-18.18,2.39-27.83,1.27-6.1,1.49-4.52,5.57-19.88,3.37-12.69,5.07-19.15,5.57-24.65.77-8.56-.37-10.35,1.59-15.11,2.44-5.93,5.69-6.71,11.93-13.52,4.74-5.17,7.93-10.87,14.31-22.26,5.7-10.18,5.3-11.11,9.54-18.29,5.53-9.37,10.19-14.54,15.11-20.67,16-20,13.79-24,27-40.55,14.39-18,17.32-13.67,28.62-28.62,17.1-22.62,10.84-33.16,23.85-46.12,18.29-18.22,55.21-21.82,69.17-7.16,13.81,14.5-2,39.34,10.34,48.5,13.07,9.73,34.28-15.69,73.15-14.31,25.29.9,49,12.83,48.5,20.67-.62,10.34-42.59,3.88-70,33.39C698.5,286,690.21,295,688,308.26c-.85,5-1.21,12.81-7.16,18.29-4.82,4.44-9.11,3.5-13.52,8-4.91,5-4.43,11-5.57,18.29-3.9,25-21.77,31.28-17.49,44.53.93,2.87,4.33,6.15,11.13,12.72,13.84,13.36,19.93,13.17,20.67,19.08.9,7.18-7.71,10.27-9.54,24.65-.39,3.07-.09,3.65-.8,5.57-3.24,8.82-13.86,8.22-15.9,14.31-2.15,6.41,8.42,10.69,8,19.08-.44,7.88-10,8.53-22.26,20.67-12.83,12.72-8.46,18.09-23.85,35-7.51,8.25-12.06,10.82-11.13,14.31,1.7,6.42,18.2,2.21,32.6,13.52,1.31,1,14.24,11.42,11.93,21.47-1.56,6.78-9.34,10.28-18.29,14.31-9.14,4.12-14.16,4.5-24.65,7.16-23.3,5.9-24.18,10.51-37.37,11.93-8.8.95-13.94-.51-31.8-4.77-55.37-13.2-51.6-10.06-58-13.52-13.4-7.19-32-22.06-46.91-40.55-5.43-6.75-10.73-14.46-18.29-14.31s-9.2,8.11-23.06,15.9c-7.71,4.34-8.72,2.72-22.26,8.75-13.87,6.17-20.94,9.32-21.47,14.31-.57,5.41,7,9,17.49,17.49,9.16,7.37,6.59,7.14,27.83,29.42C408.64,665.24,418.86,676,428,681.17c6.28,3.6,17.17,6.64,39,12.72,28.83,8,43.24,12.07,56.45,13.52,24.59,2.69,32.47-1.08,39.76,6.36,8.26,8.44,9.54,25,2.39,35.78-6.33,9.57-17.27,11.66-27,13.52-26.76,5.1-51.74-5.49-57.25-8-6.56-2.93-14.71-5.93-31-11.93-6.43-2.36-12.21-4.4-16.7-1.59C428.16,745,428,753.14,428,754.32c-.08,3.65.68,12.74,15.11,25.44,16,14.12,34.1,19.59,45.32,22.26,27.55,6.56,30.07.1,76.33,4.77,22.44,2.27,28.21,4.43,42.14,2.39,11.44-1.68,21.14-5.36,40.55-12.72,21.83-8.28,23.45-10.89,37.37-14.31,17.13-4.21,21.55-1.94,24.65-6.36,5.61-8-5.09-20.72-19.08-57.25-10.13-26.45-9.78-33.49-6.36-38.17,5.4-7.39,18.9-9.56,23.85-4.77,5.78,5.58-2.74,18,3.18,23.85,3.69,3.62,10.53,2.26,22.26-.8,16.76-4.36,25.15-6.54,39.76-11.93,31.12-11.46,27-6.44,47.71-15.11,15.8-6.61,29.23-14.16,43.73-13.52a64,64,0,0,1,16.7,3.18c7.23,2.59,8.51,4.82,12.72,6.36,3.71,1.36,10.13,2.35,35-10.34a301.11,301.11,0,0,0,31-18.29c26.21-17.46,28.18-23.23,28.62-27,1-8.68-4.87-15.87-5.57-16.7-5.71-6.77-11.71-5.49-24.65-11.93-10.9-5.42-17.4-8.66-19.08-14.31-4-13.36,23.9-23.94,22.26-39.76-.76-7.31-7.4-11.73-45.32-31.8-39.54-20.93-45-22.85-51.68-31.8-10.53-14.18-12.26-30.25-14.31-49.3-3.55-32.93,4.8-46.42-5.57-57.25-9.89-10.32-22.4-3.2-31-14.31-6.52-8.41-4.86-19.61-1.59-39.76,4-24.39,5.94-36.59,12.72-43.73,13.67-14.4,40.54-8.4,108.93,10.34C1039.21,300.62,1036,303,1064.84,307.47c51.79,8,68.38,1.39,88.28,5.82,13.93,3.11,17.71,5.42,19.86,7.69,9,9.54,3,22.13,7.46,32.52,4.34,10.18,19.37,19.83,64,20"/></g></g></svg>