<svg xmlns="http://www.w3.org/2000/svg" viewBox="0 0 1626.15 916.27"><defs><style>.cls-1{fill:none;stroke:#000;stroke-miterlimit:10;}</style></defs><title>path1</title><g id="Layer_2" data-name="Layer 2"><g id="Layer_1-2" data-name="Layer 1"><path id="path1" class="cls-1" d="M0,16.74c43.31,0,78.7-1.06,103-2,67.44-2.6,77.19-5.52,130-6,57.29-.52,56.92,2.82,91,0,48.34-4,77.48-13.08,81-5,2.26,5.18-8.19,12.36-36,39-39.41,37.75-31.69,36-54,55-30.16,25.63-46.12,30.33-56,54-4.17,10-8.17,25.55-4,28,3,1.79,8.7-4.46,16-10,23.91-18.14,39.12-8.69,77-26a155.09,155.09,0,0,0,29-17c11.77-8.93,26-19.75,34-38,7.33-16.77,3.71-26.89,11-30,8-3.41,22.09,4.62,24,14,.95,4.67-1.31,8.74-2,10-13,23.73-19.2,50.66-31,75-4.92,10.16-11.95,27.77-26,63-7.88,19.76-11,28.27-21,53-3.77,9.34-9,22.32-16,39-19.81,47.35-26.13,58.89-31,82-1.32,6.27-1.65,9.21-4,20-6.67,30.69-9.78,33.56-10,43-.31,12.85,5.28,14.52,22,47,14.85,28.84,9.9,26.47,26,58,15,29.36,19.55,31.94,20,44,.2,5.23-.22,16.46,6,20,3.08,1.76,7,1.16,8,1,4.92-.76,7.28-3.66,12-7,3.36-2.38,6.91-3.92,14-7,14.39-6.25,18.4-4.57,22-9s2.5-9.59,2-18c-1-16.76,2.33-12.07,4-47,.84-17.54,0-18,1-34,.87-13.46,1.94-20.2,3-30,1.31-12.18,4.55-42.24,3-77-.85-19-2.65-28.74,4-39,4.25-6.55,8.41-7.87,14-18,5.88-10.65,7.39-20.25,10-20,1.39.13,1.66,2.94,3,6,5,11.29,21.49,19.07,30,15,3.58-1.71,3.74-4.56,8-14,2.37-5.25,8.24-14.83,20-34,7.14-11.64,6.68-10.2,14-22,15.43-24.85,23.14-37.28,27-46,6-13.65,7.74-21.81,14-23,4.62-.88,6.4,3.05,17,7,12.58,4.69,18.05,2.12,21,6,5,6.55-4.71,21.64-10,30-34.85,55.06-3.84,14.75-44,74-25.35,37.4-29.6,41.5-34,56-4.34,14.29-6.22,30.11-8,45-1.66,13.92-1.57,18.59-3,40-3.77,56.28-7.79,74.43-5,111,.36,4.78.75,8.65,1,11a55,55,0,0,1,10-6c8.5-3.94,13.53-3.59,15-7,1.4-3.25-2-6.35-4-11-4.28-9.78.92-18.15,5-33,2.43-8.84,3.28-19.56,5-41,1.6-20,.48-22.86,3-35,1.6-7.67,1.87-5.69,7-25,4.24-16,6.38-24.09,7-31,1-10.77-.46-13,2-19,3.07-7.46,7.15-8.44,15-17,6-6.5,10-13.67,18-28,7.17-12.8,6.67-14,12-23,7-11.79,12.82-18.29,19-26,20.16-25.13,17.34-30.14,34-51,18.1-22.66,21.78-17.19,36-36,21.51-28.45,13.64-41.71,30-58,23-22.91,69.43-27.45,87-9,17.36,18.24-2.48,49.47,13,61,16.43,12.24,43.12-19.74,92-18,31.81,1.13,61.59,16.13,61,26-.78,13-53.57,4.87-88,42-16.74,18-27.16,29.29-30,46-1.07,6.3-1.52,16.11-9,23-6.06,5.58-11.45,4.4-17,10-6.18,6.24-5.58,13.86-7,23-4.9,31.48-27.38,39.34-22,56,1.16,3.61,5.44,7.74,14,16,17.41,16.81,25.06,16.56,26,24,1.14,9-9.69,12.91-12,31-.49,3.86-.12,4.59-1,7-4.07,11.09-17.43,10.34-20,18-2.7,8.07,10.59,13.44,10,24-.56,9.91-12.59,10.72-28,26-16.14,16-10.64,22.75-30,44-9.45,10.37-15.16,13.6-14,18,2.14,8.07,22.89,2.78,41,17,1.65,1.3,17.91,14.36,15,27-2,8.52-11.74,12.93-23,18-11.5,5.18-17.81,5.66-31,9-29.3,7.42-30.41,13.21-47,15-11.07,1.19-17.53-.64-40-6-69.63-16.61-64.89-12.65-73-17-16.85-9-40.3-27.74-59-51-6.83-8.49-13.5-18.19-23-18s-11.57,10.2-29,20c-9.7,5.46-11,3.42-28,11-17.44,7.77-26.34,11.73-27,18-.72,6.8,8.75,11.35,22,22,11.52,9.26,8.29,9,35,37,25.71,27,38.57,40.45,50,47,7.9,4.53,21.6,8.35,49,16,36.25,10.12,54.38,15.18,71,17,30.92,3.39,40.84-1.36,50,8,10.39,10.62,12,31.39,3,45-8,12-21.72,14.66-34,17-33.65,6.41-65.07-6.9-72-10-8.25-3.69-18.5-7.46-39-15-8.08-3-15.36-5.54-21-2-6.73,4.22-7,14.52-7,16-.1,4.59.85,16,19,32,20.18,17.76,42.88,24.64,57,28,34.65,8.25,37.82.13,96,6,28.23,2.85,35.48,5.57,53,3,14.39-2.11,26.59-6.74,51-16,27.46-10.42,29.49-13.7,47-18,21.55-5.29,27.1-2.44,31-8,7.05-10-6.4-26.06-24-72-12.74-33.27-12.3-42.12-8-48,6.79-9.3,23.77-12,30-6,7.26,7-3.44,22.69,4,30,4.64,4.56,13.25,2.84,28-1,21.08-5.49,31.63-8.23,50-15,39.13-14.42,34-8.1,60-19,19.87-8.32,36.76-17.81,55-17a80.44,80.44,0,0,1,21,4c9.1,3.26,10.71,6.06,16,8,4.66,1.71,12.74,3,44-13a378.67,378.67,0,0,0,39-23c33-22,35.44-29.21,36-34,1.28-10.92-6.12-20-7-21-7.18-8.52-14.72-6.9-31-15-13.7-6.82-21.89-10.89-24-18-5-16.81,30.06-30.11,28-50-1-9.19-9.3-14.75-57-40-49.73-26.33-56.64-28.74-65-40-13.24-17.83-15.42-38-18-62-4.46-41.41,6-58.38-7-72-12.43-13-28.17-4-39-18-8.2-10.58-6.12-24.66-2-50,5-30.68,7.48-46,16-55,17.19-18.11,51-10.57,137,13,132.77,36.38,128.68,39.36,165,45,84.69,13.16,94.53-4.95,136,17,28.24,14.94,47.48,35.93,99,58a404.56,404.56,0,0,0,41,15"/></g></g></svg>