<svg xmlns="http://www.w3.org/2000/svg" viewBox="0 0 1524.59 1059.3"><defs><style>.cls-1,.cls-6{fill:#fff;}.cls-2,.cls-28{fill:none;}.cls-2{stroke:#fff;stroke-width:1.22px;}.cls-3,.cls-4{fill:#e50099;}.cls-4{font-size:38.92px;font-family:Lato-Semibold, Lato;}.cls-4,.cls-8{font-weight:700;}.cls-5{letter-spacing:-0.01em;}.cls-6{font-size:43.79px;font-family:Lato-Thin, Lato;letter-spacing:0.2em;}.cls-7{letter-spacing:0.19em;}.cls-8{font-size:19.46px;font-family:Lato-Bold, Lato;}.cls-9{letter-spacing:-0.02em;}.cls-10{letter-spacing:-0.01em;}.cls-11{letter-spacing:0em;}.cls-12{letter-spacing:0em;}.cls-13{letter-spacing:-0.01em;}.cls-14{letter-spacing:0em;}.cls-15{letter-spacing:-0.01em;}.cls-16{letter-spacing:-0.01em;}.cls-17{letter-spacing:-0.04em;}.cls-18{letter-spacing:-0.01em;}.cls-19{letter-spacing:-0.02em;}.cls-20{letter-spacing:-0.02em;}.cls-21{letter-spacing:0em;}.cls-22{letter-spacing:-0.03em;}.cls-23{letter-spacing:0em;}.cls-24{letter-spacing:-0.01em;}.cls-25{letter-spacing:0em;}.cls-26{letter-spacing:-0.08em;}.cls-27{letter-spacing:-0.01em;}</style></defs><title>Asset 15</title><g id="Layer_2" data-name="Layer 2"><g id="MapAndPaths"><g id="Map"><rect class="cls-1" x="353.35" y="1003.89" width="83.85" height="23.93"/><rect class="cls-1" x="353.35" y="1027.82" width="83.85" height="23.93"/><rect class="cls-1" x="817.94" y="755.56" width="102" height="23.93"/><rect class="cls-1" x="817.94" y="779.27" width="109.87" height="23.93"/><rect class="cls-1" x="572.37" y="623.57" width="86.29" height="23.93"/><rect class="cls-1" x="572.37" y="600.46" width="109.4" height="23.93"/><polyline id="Path" class="cls-2" points="1.22 109.65 383.15 97.49 391.67 101.14 413.56 103.57 426.94 81.68 445.19 19.64 418.43 12.34 415.99 20.86 411.13 22.07 414.78 11.13 391.67 2.61"/><polyline id="Path-2" class="cls-2" points="403.83 2.61 447.62 11.13 450.05 2.61"/><polyline id="Path-3" class="cls-2" points="461 2.61 459.78 12.34 474.38 18.43 480.46 20.86 558.31 12.34 565.6 13.56 568.04 2.61"/><polyline id="Path-4" class="cls-2" points="589.93 3.83 596.01 23.29 583.85 181.42 627.64 183.85 623.99 153.44 631.29 116.95 636.15 123.03 632.5 126.68 656.83 170.47 673.86 163.17 648.32 118.17 642.23 120.6 634.94 107.22 630.07 106 609.39 20.86 605.74 22.07 606.96 9.91 605.74 1.4"/><polyline id="Path-5" class="cls-2" points="723.81 2.61 759.08 157.09 783.41 163.17 789.49 174.12 799.22 180.2 874.63 124.25 884.37 110.87 892.88 87.76 892.88 70.73 870.99 0.18"/><polyline id="Path-6" class="cls-2" points="729.81 2.61 739.54 45.19 744.41 43.97 734.68 1.4"/><polyline id="Path-7" class="cls-2" points="807.66 3.83 812.52 13.56 819.82 9.91 817.39 2.61"/><polyline id="Path-8" class="cls-2" points="881.93 2.61 903.83 73.16 903.83 90.19 897.75 108.44 885.58 126.68 822.33 175.34 813.82 177.77 808.95 185.07 817.47 192.36 812.6 208.18 822.33 220.34 901.39 160.74 908.69 169.25 844.23 222.77 840.58 228.85 844.23 236.15 868.55 247.1 878.28 238.59 875.85 233.72 867.34 242.23 851.52 226.42 897.75 189.93 905.04 187.5 901.39 193.58 906.26 198.45 880.72 226.42 880.72 230.07 888.01 228.85 909.91 203.31 913.56 205.74 941.53 177.77 945.18 182.63 918.42 208.18 922.07 215.47 914.77 223.99 970.73 233.72 971.94 242.23 976.81 247.1 1001.14 248.32 1004.78 254.4 1136.15 227.64 1121.56 144.93 1132.5 142.49 1137.37 170.47 1134.93 175.34 1145.88 225.21 1277.25 200.88 1280.9 196.01 1290.63 189.93 1277.25 158.31 1299.14 151.01 1318.6 182.63 1378.2 168.04 1374.56 157.09 1355.09 143.71 1368.47 119.38 1379.42 126.68 1380.64 132.76 1390.37 131.55 1392.8 146.14 1403.75 152.22 1406.18 144.93 1426.86 154.66 1475.51 146.14 1493.76 158.31 1522.95 161.96"/><polyline id="Path-9" class="cls-2" points="1516.79 4.26 1499.76 73.59 1510.71 79.67 1511.93 88.19 1519.22 88.19 1521.66 83.32"/><polyline id="Path-11" class="cls-2" points="2.43 116.16 377.07 105.21 380.72 107.65 377.07 110.08 373.42 110.08 239.62 247.53 232.32 297.4 170.29 409.3 165.42 409.3 132.58 271.86 126.5 273.07 159.34 416.6 165.42 420.25 119.2 500.53 111.9 510.26 98.53 539.45 96.09 547.97 1.22 717.04"/><polyline id="Path-12" class="cls-2" points="2.43 734.07 98.53 561.35 104.61 557.7 113.12 557.7 200.7 763.26"/><polyline id="Path-13" class="cls-2" points="200.7 762.83 167.86 778.65 1.22 844.33"/><polyline id="Path-14" class="cls-2" points="1.29 852.84 125.36 802.97 181.31 779.86 310.25 715.39 322.41 728.77 326.06 729.99 335.79 742.15 344.31 767.7 345.52 790.81 352.82 805.4 356.47 807.84 378.36 818.78 389.31 830.95 394.18 857.71 405.12 867.44 411.2 869.87 442.83 874.74 503.65 924.61 497.57 934.34 493.92 940.42 490.27 1035.3 490.27 1043.63"/><polyline id="Path-15" class="cls-2" points="497.57 1044.24 501.21 940.85 501.21 935.98 509.73 925.04 514.6 925.04 518.24 928.68 530.41 948.15 525.54 950.58 532.84 959.09 541.36 970.04 555.95 980.99 570.55 987.07 697.05 999.23 721.38 1000.45 731.11 998.02 737.19 995.58 748.13 994.37 787.06 978.55 796.79 978.55 833.28 965.18 844.23 1008.96 855.17 1044.24"/><polyline id="Path-16" class="cls-2" points="890.37 1044.24 870.91 974.91 864.83 954.23 876.99 948.15 881.86 948.15 901.32 932.33 912.26 920.17 935.38 912.87 958.49 915.3 969.43 910.44 987.68 892.19 1022.95 889.76 1044.85 882.46 1057.01 876.38 1080.12 866.65 1097.15 865.43 1114.18 864.22 1127.56 856.92 1148.24 830.16 1157.97 826.51 1193.24 819.21 1211.49 797.32 1215.14 797.32 1246.76 765.69 1275.95 742.58 1277.17 737.72 1291.77 727.99 1303.93 726.77 1364.75 725.55 1374.48 723.12 1385.42 724.34 1391.51 725.55 1476.65 724.34 1521.66 723.12"/><polyline id="Path-17" class="cls-2" points="1522.34 709.74 1292.98 713.39 1289.33 714.61 1288.12 709.74 1291.77 704.88 1300.28 703.66 1522.34 700.01"/><path id="Path-18" class="cls-2" d="M1372,1043.81l150.83-54.74"/><path id="Path-19" class="cls-2" d="M1385.43,1043.81l137.45-48.65"/><polyline id="Path-20" class="cls-2" points="1522.34 692.71 1263.79 693.93 1260.14 696.36 1159.18 640.41 1164.05 630.68 1172.56 624.6 1177.43 629.46 1181.08 631.89 1196.89 616.08 1198.11 608.78 1227.3 579.59 1269.87 619.73 1261.36 628.25 1268.65 635.54 1331.91 571.08 1325.82 566.21 1275.95 617.3 1258.92 601.49 1255.28 601.49 1251.63 596.62 1241.9 590.54 1229.73 577.16 1313.66 492.01 1249.19 457.96 1223.65 445.79 1179.86 432.41 1177.43 437.28 1165.27 432.41 1159.18 428.76 1043.63 398.36 1013.22 403.22 1012 399.57 1008.43 399.57 1009.65 403.22 986.54 408.09 986.54 414.17 981.67 414.17 976.81 359.43 1040.06 367.95 1041.28 364.3 1006 354.57 1013.3 322.94 1172.64 367.95 1172.64 372.38 1265.08 399.14 1266.3 394.28 1277.25 397.93 1276.03 402.79 1522.95 470.91"/><polyline id="Path-21" class="cls-2" points="1522.95 598.63 1508.36 601.06 1509.57 607.14 1501.06 605.92 1501.06 600.27 1481.6 599.05 1477.95 602.7 1484.03 612.43 1485.24 618.51 1492.54 627.03 1503.49 627.03 1503.49 618.51 1509.57 618.51 1509.57 622.16 1518.09 622.16 1518.09 628.25 1522.34 628.25"/><polyline id="Path-22" class="cls-2" points="1524.09 455.1 1488.82 405.23 1446.24 406.44 1445.03 400.36 1451.11 399.14 1448.68 388.2 1155.54 303.05 1148.24 304.27 1142.15 309.13 1137.29 304.27 1108.1 309.13 1105.66 295.75 1201.76 277.51 1300.28 307.92 1407.32 335.89 1485.17 359 1524.09 361.44"/><polyline id="Path-23" class="cls-2" points="1522.34 410.52 1505.92 410.52 1505.92 415.38 1516.87 429.98 1522.95 440.93"/><polygon id="Path-24" class="cls-2" points="388.02 103.57 245.7 248.32 243.27 258.05 251.78 259.26 338.15 225.21 349.09 222.77 353.96 214.26 372.2 200.88 401.4 131.55 406.26 116.95 403.83 109.65 388.02 103.57"/><polygon id="Path-25" class="cls-2" points="115.63 537.81 153.34 464.83 160.64 467.26 156.99 458.75 178.88 416.17 178.88 408.88 209.29 359 221.45 362.65 212.94 354.14 254.29 271.43 339.44 237.37 343.09 230.07 350.39 226.42 351.6 232.5 356.47 245.88 274.97 457.53 270.11 495.24 262.81 500.1 257.94 498.88 120.5 546.32 115.63 537.81"/><polygon id="Path-26" class="cls-2" points="121.64 553.62 208 757.97 253 737.29 204.35 616.87 199.48 594.98 204.35 569.43 221.38 526.86 214.08 520.78 121.64 553.62"/><polygon id="Path-2-2" data-name="Path" class="cls-2" points="261.59 731.21 209.29 604.71 209.29 590.11 211.72 565.78 234.83 513.48 259.16 504.97 267.68 502.53 266.46 508.62 253.08 526.86 250.65 542.67 272.54 627.82 281.06 646.06 296.87 652.14 307.81 684.99 309.03 711.75 301.73 714.18 261.59 731.21"/><polygon id="Path-3-2" data-name="Path" class="cls-2" points="480.54 58.99 481.75 51.7 482.97 32.23 486.62 27.37 496.35 24.93 498.78 28.58 508.51 24.93 557.17 21.29 560.82 18.85 566.9 20.07 565.68 28.58 574.2 28.58 574.2 33.45 565.68 32.23 564.47 46.83 566.9 48.05 563.25 56.56 558.38 55.34 552.3 52.91 507.3 56.56 507.3 60.21 504.86 57.78 480.54 58.99"/><polyline id="Path-4-2" data-name="Path" class="cls-2" points="488.97 72.37 487.76 82.1 485.32 127.11 488.97 128.32 514.52 153.87 518.17 153.87 519.38 147.79 523.03 118.59 521.82 112.51 524.25 105.21 523.03 97.92 525.46 91.83 524.25 68.72 516.95 69.94 512.08 67.51 507.3 67.51 507.3 71.16 498.7 71.16 497.49 67.51 496.27 71.16"/><polygon id="Path-5-2" data-name="Path" class="cls-2" points="409.99 125.89 406.34 131.97 406.34 138.06 405.12 146.57 412.42 156.3 420.94 162.38 423.37 167.25 525.54 262.12 530.41 260.91 536.49 248.74 540.14 248.74 547.44 235.36 545 234.15 566.9 194.01 564.47 183.06 564.47 152.65 566.9 150.22 568.11 125.89 564.47 123.46 566.9 71.16 569.33 66.29 568.11 61.43 553.52 60.21 546.22 65.08 535.27 68.72 534.06 73.59 531.62 110.08 527.98 111.3 527.98 120.6 529.19 130.33 529.19 138.06 524.33 144.14 524.33 161.17 520.68 164.82 473.24 122.24 474.45 96.7 476.89 96.7 478.1 90.62 475.67 90.62 476.89 51.7 480.54 31.02 478.1 28.58 478.1 24.93 456.21 21.29 452.56 37.1 450.13 38.31 448.91 49.26 434.32 83.32 430.67 84.54 433.1 88.19 431.88 91.83 427.02 90.62 420.94 100.35 427.02 104 422.15 118.59 413.64 127.11 409.99 125.89"/><polygon id="Path-27" class="cls-2" points="422.07 175.34 319.9 438.07 443.97 395.5 450.05 393.06 454.92 394.28 524.25 271.43 422.07 175.34"/><polygon id="Path-28" class="cls-2" points="278.55 601.06 257.87 545.11 260.3 532.94 271.25 519.56 280.98 498.88 283.41 489.15 287.06 487.94 298.01 490.37 295.57 508.62 291.93 515.91 290.71 528.08 285.84 547.54 305.3 592.54 300.44 593.76 278.55 601.06"/><polygon id="Path-6-2" data-name="Path" class="cls-2" points="318.68 442.14 310.17 464.04 304.09 482.28 347.88 466.47 383.15 453.09 388.02 453.09 424.51 438.5 430.59 439.71 453.7 398.36 450.05 397.14 414.78 410.52 411.13 410.52 375.85 423.9 372.2 423.9 318.68 442.14"/><polygon id="Path-29" class="cls-2" points="304.09 485.93 384.37 455.52 389.23 455.52 422.07 442.14 429.37 442.14 423.29 454.31 415.99 546.75 412.34 546.75 310.17 590.54 290.71 546.75 291.93 537.02 294.36 528.5 304.09 485.93"/><polygon id="Path-30" class="cls-2" points="311.39 594.19 316.25 594.19 412.34 550.4 415.99 550.4 412.34 644.06 411.13 646.49 406.26 645.27 346.66 679.33 334.5 648.92 332.06 641.63 311.39 594.19"/><polygon id="Path-31" class="cls-2" points="305.38 596.62 282.27 610 285.92 618.51 318.76 687.85 315.11 690.28 319.98 701.23 316.33 703.66 323.63 717.04 343.09 736.5 351.6 760.83 360.12 763.26 371.06 758.4 416.07 730.42 412.42 719.47 407.56 717.04 409.99 693.93 405.12 693.93 360.12 718.26 351.6 703.66 351.6 698.79 329.71 651.36 327.28 644.06 305.38 596.62"/><polygon id="Path-32" class="cls-2" points="347.88 681.76 407.48 650.14 411.13 650.14 408.69 689.06 363.69 713.39 355.18 701.23 356.39 696.36 347.88 681.76"/><polygon id="Path-33" class="cls-2" points="414.85 715.82 417.29 644.06 418.5 640.41 419.72 595.4 420.94 591.75 428.23 457.96 450.13 420.25 476.89 434.85 461.07 467.69 459.86 474.99 453.78 596.62 451.35 599.05 450.13 645.27 448.91 647.71 447.69 692.71 448.91 697.58 453.78 704.88 453.78 709.74 450.13 709.74 420.94 727.99 418.5 724.34 414.85 715.82"/><polygon id="Path-34" class="cls-2" points="451.35 414.96 453.78 418.61 478.1 430.77 514.6 366.3 518.24 361.44 551.09 299.4 554.73 296.97 532.84 277.51 532.84 275.08 530.41 272.64 527.98 276.29 451.35 414.96"/><polygon id="Path-35" class="cls-2" points="484.11 433.2 486.54 436.85 515.73 452.66 593.58 314 591.15 310.35 559.52 300.62 484.11 433.2"/><polygon id="Path-36" class="cls-2" points="531.62 270.64 534.06 273.07 536.49 270.64 559.6 292.53 565.68 296.18 591.23 304.7 594.87 308.35 597.31 307.13 631.37 319.29 635.01 321.73 639.88 321.73 641.1 316.86 643.53 318.08 648.39 311.99 648.39 307.13 652.04 303.48 660.56 297.4 659.34 296.18 667.86 280.37 673.94 274.29 695.83 239.01 661.77 202.52 659.34 202.52 650.83 195.22 632.58 187.93 628.85 187.93 610.61 194.01 605.74 194.01 581.42 196.44 572.9 202.52 558.31 223.2 551.01 236.58 548.65 236.58 541.36 249.96 542.57 251.18 531.62 270.64"/><polygon id="Path-37" class="cls-2" points="560.74 385.76 602.09 312.78 631.29 322.51 632.5 326.16 598.45 378.47 596.01 380.9 582.63 400.36 560.74 385.76"/><polygon id="Path-38" class="cls-2" points="559.6 389.84 581.49 403.22 543.79 462.82 541.36 464.04 534.06 498.1 536.49 499.31 534.06 506.61 531.62 507.83 526.76 529.72 526.76 537.02 520.68 597.84 518.24 605.13 513.38 653.79 515.81 657.44 501.21 667.17 498.78 667.17 498.78 647.71 500 645.27 501.21 601.49 502.43 597.84 506.08 535.8 507.3 500.53 509.73 478.63 523.11 454.31 525.54 450.66 559.6 389.84"/><polygon id="Path-39" class="cls-2" points="492.7 686.63 492.7 647.71 493.92 645.27 495.13 601.49 496.35 597.84 498.78 537.02 501.21 534.59 501.21 502.96 503.65 496.88 502.43 478.63 514.6 456.74 482.97 438.5 467.16 467.69 464.72 481.07 463.51 532.15 459.86 594.19 458.64 597.84 456.21 645.27 454.99 647.71 453.78 687.85 454.99 695.14 458.64 700.01 458.64 704.88 463.51 704.88 492.7 686.63"/><polygon id="Path-40" class="cls-2" points="703.13 242.66 677.59 285.24 677.59 290.1 681.24 297.4 684.88 299.83 687.32 299.83 706.78 315.64 710.43 315.64 710.43 318.08 710.43 322.94 704.35 331.46 701.91 331.46 669.07 299.83 664.13 299.83 645.88 318.08 561.96 447.01 555.87 459.17 548.58 465.25 551.01 468.9 538.84 512.69 535.2 534.59 532.76 538.24 526.68 599.05 525.46 603.92 520.6 648.92 557.09 696.36 588.72 703.66 613.12 703.66 622.85 706.09 633.8 697.58 633.8 692.71 631.37 685.41 609.47 657.44 603.39 639.19 604.61 635.54 628.93 634.33 630.15 630.68 641.1 630.68 649.61 583.24 665.42 556.48 721.38 482.28 726.24 478.63 760.3 426.33 762.73 421.47 806.52 391.06 804.09 386.19 804.09 380.11 807.74 376.46 819.9 380.11 839.36 347.27 843.01 346.05 849.09 330.24 703.13 242.66"/><polygon id="Path-41" class="cls-2" points="825.98 384.55 844.23 352.92 856.39 334.68 861.25 335.89 958.56 352.92 958.56 356.57 961 359 963.43 380.9 963.43 395.5 968.29 419.82 964.64 429.55 953.7 440.5 969.51 456.31 990.19 462.39 990.19 456.31 1003.57 453.88 1006 483.07 1006 512.69 999.92 535.8 995.05 550.4 996.27 554.05 1008.43 560.13 1007.22 565 1012.08 568.64 1002.35 575.94 987.76 594.19 973.16 610 968.29 610 954.91 628.25 946.4 637.98 942.75 636.76 892.88 690.28 880.72 703.66 857.61 718.26 844.23 723.12 843.01 720.69 789.49 737.72 784.63 726.77 780.98 724.34 779.76 713.39 755.43 700.01 753 702.44 750.57 700.01 751.78 697.58 739.62 687.85 735.97 689.06 732.32 685.41 740.84 673.25 740.84 669.6 744.49 669.6 762.73 641.63 766.38 641.63 778.54 622.16 790.71 610 832.06 636.76 925.72 575.94 892.88 545.53 894.1 541.88 911.13 528.5 907.48 524.86 914.77 519.99 919.64 522.42 931.8 519.99 965.86 535.8 969.51 533.37 986.54 502.96 990.19 482.28 990.19 466.47 967.08 459.17 951.26 443.36 940.32 447.01 908.69 434.85 903.83 443.36 894.1 437.28 900.18 429.98 900.18 423.47 868.55 408.88 825.98 384.55"/><polygon id="Path-42" class="cls-2" points="847.88 414.17 857.61 420.25 849.09 433.63 852.74 434.85 853.96 432.41 860.04 438.5 857.61 440.93 870.99 453.09 863.69 462.82 866.12 465.25 873.42 456.74 878.28 459.17 868.55 472.55 878.28 481.07 888.01 470.12 891.66 472.55 881.93 483.5 892.88 492.01 901.39 482.28 905.04 484.72 896.53 496.88 907.48 505.39 915.99 495.66 919.64 498.1 909.91 509.04 908.69 513.91 912.34 516.34 903.83 521.21 901.39 519.99 889.23 526.07 881.93 532.15 877.07 530.94 877.07 527.29 834.5 488.37 830.85 488.37 830.85 484.72 824.76 466.47 828.41 451.88 822.33 447.01 832.06 434.85 835.71 433.63 839.36 428.76 847.88 414.17"/><polygon id="Path-43" class="cls-2" points="806.52 407.66 813.82 402.79 821.12 410.09 828.41 421.04 829.63 433.2 818.68 444.15 815.03 441.72 808.95 468.48 817.47 491.59 819.9 494.02 819.9 496.45 863.69 536.59 868.55 537.81 868.55 542.67 864.9 543.89 847.88 556.05 783.41 497.67 778.54 496.45 806.52 407.66"/><polygon id="Path-44" class="cls-2" points="656.83 578.38 695.75 522.42 700.62 521.21 731.03 478.63 745.62 455.52 749.27 454.31 762.65 431.2 767.52 433.63 768.74 440.93 766.3 449.44 761.44 457.96 741.98 488.37 690.89 562.56 686.02 571.08 671.43 597.84 667.78 603.92 654.4 630.68 647.1 630.68 656.83 578.38"/><polygon id="Path-45" class="cls-2" points="765.16 423.9 773.68 416.6 777.33 415.38 807.74 392.27 812.6 399.57 805.3 404.44 801.65 405.65 801.65 408.09 798 406.87 778.54 466.47 780.98 468.9 779.76 474.99 774.89 474.99 767.6 502.96 777.33 502.96 778.54 499.31 782.19 500.53 807.74 524.86 808.95 529.72 804.09 544.32 800.44 558.91 793.14 569.86 783.41 578.38 777.33 580.81 779.76 590.54 787.06 608.78 765.16 629.46 759.08 625.81 750.57 618.51 717.73 607.57 731.11 579.59 735.97 573.51 753 545.53 746.92 540.67 729.89 573.51 729.89 577.16 726.24 577.16 681.24 655.01 681.24 659.87 671.5 676.9 662.99 682.98 654.48 691.5 644.75 693.93 636.23 684.2 616.77 655.01 610.69 639.19 630.15 635.54 654.48 634.33 659.34 629.46 670.29 607.57 677.59 595.4 693.4 563.78 731.11 507.83 744.49 488.37 766.38 455.52 771.25 444.58 771.25 437.28 765.16 423.9"/><polygon id="Path-46" class="cls-2" points="676.29 684.2 679.94 684.2 700.62 682.98 733.46 619.73 716.43 612.43 689.67 658.65 686.02 662.3 676.29 684.2"/><polygon id="Path-47" class="cls-2" points="704.35 682.55 718.94 684.99 728.67 670.39 733.54 667.96 756.65 631.47 759.08 630.25 757.87 626.6 738.4 619.3 704.35 678.9 704.35 682.55"/><polygon id="Path-48" class="cls-2" points="780.9 584.03 786.98 598.63 828.34 568.22 831.99 569.43 833.2 565.78 844.15 558.49 841.72 553.62 811.31 528.08 801.58 564.57 780.9 584.03"/><polygon id="Path-49" class="cls-2" points="802.79 603.49 813.74 619.3 829.55 629.03 855.1 613.22 861.18 608.36 902.53 580.38 898.88 575.51 904.97 570.65 900.1 563.35 902.53 562.13 900.1 559.7 897.67 560.92 881.86 549.97 802.79 603.49"/><polygon id="Path-50" class="cls-2" points="498.78 670.82 498.78 681.76 570.55 749.88 617.99 760.83 678.8 774.21 680.02 772.99 706.78 762.04 709.21 763.26 718.94 762.04 720.16 759.61 766.38 745.02 766.38 735.28 766.38 725.55 761.51 719.47 738.4 706.09 706.78 702.44 699.48 700.01 680.02 702.44 677.59 698.79 671.5 698.79 669.07 701.23 649.61 700.01 637.45 698.79 621.63 709.74 615.55 712.17 594.87 712.17 571.76 707.31 562.03 704.88 554.73 701.23 555.95 697.58 547.44 687.85 545 689.06 518.24 659.87 498.78 670.82"/><polygon id="Path-51" class="cls-2" points="463.43 707.31 495.06 689.06 498.7 691.5 569.25 757.18 673.86 780.29 672.64 782.72 673.86 814.35 676.29 816.78 672.64 816.78 668.99 816.78 587.5 798.53 551.01 791.24 463.43 707.31"/><polygon id="Path-52" class="cls-2" points="423.29 731.21 454.92 711.75 481.68 736.07 485.32 737.29 547.36 795.67 675.08 826.08 677.51 874.74 521.82 839.46 423.29 731.21"/><polygon id="Path-53" class="cls-2" points="382.01 755.96 414.85 735.28 442.83 763.26 448.91 768.13 451.35 774.21 515.81 843.54 498.78 870.3 498.78 873.95 445.26 833.81 442.83 837.46 498.78 881.25 527.98 906.79 520.68 916.52 518.24 915.3 514.6 920.17 512.16 920.17 448.91 870.3 435.53 865.43 424.58 865.43 411.2 864.22 401.47 859.35 399.04 850.84 396.61 836.24 394.18 827.73 377.15 808.27 373.5 804.62 363.77 800.97 356.47 793.67 354.04 783.94 355.25 772.99 361.33 766.91 377.15 759.61 389.31 770.56 382.01 755.96"/><polygon id="Path-54" class="cls-2" points="501.21 873.95 501.21 877.6 502.43 880.03 504.86 880.03 560.82 925.04 583.93 928.68 586.36 926.25 680.02 937.2 680.02 933.55 677.59 886.11 593.66 864.22 520.68 848.41 519.46 844.76 515.81 848.41 503.65 873.95 501.21 873.95"/><polygon id="Path-55" class="cls-2" points="678.8 777.86 676.37 782.72 680.02 813.13 680.02 816.78 683.67 818 716.51 805.83 720.16 807.05 729.89 804.62 731.11 800.97 772.46 787.59 779.76 787.59 771.25 757.18 770.03 751.1 767.6 751.1 721.38 765.69 718.94 764.48 710.43 766.91 708 769.34 682.45 779.07 678.8 777.86"/><polygon id="Path-56" class="cls-2" points="678.8 824.08 684.88 824.08 718.94 813.13 720.16 809.48 729.89 807.05 735.97 808.27 778.54 792.45 783.41 793.67 790.71 814.35 796.79 841.11 791.85 841.11 744.41 856.92 743.19 859.35 732.24 860.57 729.89 860.57 684.88 875.16 681.24 875.16 681.24 867.87 678.8 824.08"/><polygon id="Path-57" class="cls-2" points="681.24 880.03 686.1 881.25 732.32 866.65 732.32 864.22 743.27 860.57 745.7 861.79 798 845.97 802.87 848.41 805.3 853.27 802.87 855.7 804.09 860.57 807.74 859.35 807.74 852.05 817.47 847.19 824.76 866.65 812.6 870.3 808.95 863 806.52 864.22 808.95 876.38 808.95 880.03 805.3 880.03 779.76 888.54 780.98 893.41 806.52 883.68 811.38 883.68 824.76 920.17 824.76 926.25 830.85 945.71 833.28 957.88 795.57 970.04 791.92 972.47 784.63 973.69 746.92 988.29 734.75 988.29 721.38 993.15 602.17 982.2 572.98 978.55 564.47 976.12 549.87 966.39 537.71 955.45 519.46 922.6 529.19 909.22 531.62 909.22 546.22 920.17 558.38 929.9 572.98 931.12 583.93 933.55 682.45 943.28 684.88 937.2 682.45 934.77 683.67 931.12 681.24 880.03"/><polygon id="Path-59" class="cls-2" points="794.36 743.8 805.3 779.07 862.47 760.83 872.2 758.4 923.29 741.37 934.24 740.15 964.64 755.96 967.08 759.61 1052.22 805.83 1057.09 809.48 1074.12 818 1081.41 819.21 1114.26 803.4 1123.99 800.97 1130.07 796.1 1156.83 776.64 1173.86 754.75 1177.51 746.23 1172.64 736.5 1168.99 735.28 1165.34 734.07 1139.8 720.69 1141.02 718.26 1136.15 715.82 1134.93 718.26 1122.77 710.96 1123.99 708.52 1120.34 706.09 1119.12 708.52 1023.03 656.22 1016.95 653.79 969.51 627.03 963.43 633.11 954.91 633.11 934.24 657.44 905.04 691.5 902.61 691.5 894.1 698.79 895.31 700.01 886.8 710.96 880.72 714.61 883.15 717.04 886.8 717.04 892.88 720.69 900.18 721.9 913.56 731.64 913.56 734.07 902.61 730.42 898.96 726.77 890.45 723.12 883.15 721.9 878.28 717.04 861.25 723.12 852.74 724.34 845.44 725.55 794.36 743.8"/><polygon id="Path-60" class="cls-2" points="1016.95 449.44 1040.06 505.39 1070.47 494.45 1082.63 506.61 1063.17 524.86 1059.52 522.42 1051.01 528.5 1055.87 539.45 1035.19 550.4 1044.92 569.86 1042.49 572.29 1054.65 580.81 1058.3 583.24 1093.58 602.7 1100.88 590.54 1131.29 557.7 1141.02 547.97 1150.75 547.97 1211.57 484.72 1211.57 481.07 1206.7 476.2 1209.13 462.82 1204.27 457.96 1175.07 451.88 1167.78 451.88 1042.49 419.03 1016.95 449.44"/><polygon id="Path-61" class="cls-2" points="1097.15 603.49 1156.75 637.55 1167.7 622.95 1165.27 621.74 1170.13 614.44 1173.78 618.09 1200.54 590.11 1210.27 577.95 1195.67 558.49 1198.11 556.05 1212.7 567 1234.6 545.11 1238.25 547.54 1243.11 542.67 1241.9 541.46 1273.52 504.97 1269.87 494.02 1222.43 483.07 1160.4 546.32 1151.89 554.84 1144.59 553.62 1140.94 554.84 1139.72 558.49 1140.94 565.78 1117.83 591.33 1108.1 588.89 1102.02 593.76 1097.15 603.49"/><polygon id="Path-62" class="cls-2" points="974.3 612.43 987.68 597.84 991.33 597.84 1007.14 582.02 1005.92 579.59 1015.65 569.86 1016.87 572.29 1030.25 578.38 1053.36 599.05 1050.93 602.7 1069.17 612.43 1071.61 607.57 1125.13 640.41 1123.91 644.06 1136.07 650.14 1139.72 653.79 1132.42 674.47 1131.21 676.9 1128.78 675.68 1122.69 686.63 1125.13 687.85 1121.48 692.71 1117.83 691.5 1104.45 690.28 1063.09 667.17 993.76 628.25 979.16 617.3 974.3 612.43"/><polygon id="Path-63" class="cls-2" points="1125.2 695.14 1128.85 689.06 1130.07 690.28 1136.15 680.55 1134.93 678.12 1150.75 659.87 1157.97 659.87 1165.27 665.95 1222.43 697.58 1234.6 697.58 1239.46 696.36 1254.06 702.44 1257.71 706.09 1278.39 707.31 1282.04 712.17 1284.47 712.17 1285.68 715.82 1274.74 726.77 1246.76 752.31 1189.59 809.48 1182.29 811.91 1145.8 822.86 1139.72 830.16 1132.42 838.67 1123.91 850.84 1115.39 855.7 1086.2 859.35 1076.47 858.14 1058.23 865.43 1054.58 869.08 1030.25 877.6 993.76 886.11 985.32 886.11 971.94 899.49 961 906.79 957.35 908.01 940.32 908.01 929.37 903.14 926.94 905.57 906.26 911.66 885.58 935.98 868.55 944.5 858.82 945.71 855.17 943.28 846.66 916.52 846.66 912.87 824.76 845.97 823.55 838.67 843.01 833.81 844.23 837.46 853.96 870.3 1041.28 809.48 1072.9 827.73 1078.98 826.51 1120.34 808.27 1120.34 805.83 1126.42 805.83 1156.83 782.72 1184.81 755.96 1187.24 749.88 1176.29 731.64 1134.93 707.31 1125.2 695.14"/><polygon id="Path-64" class="cls-2" points="807.74 785.15 813.82 810.7 813.82 814.35 821.12 833.81 827.2 833.81 950.05 794.89 954.91 796.1 967.08 790.02 973.16 790.02 973.16 783.94 978.02 776.64 976.81 772.99 933.02 748.66 929.37 748.66 877.07 764.48 872.2 762.04 807.74 785.15"/><polygon id="Path-65" class="cls-2" points="847.88 832.16 847.88 835.81 857.61 861.36 860.04 862.57 1031.55 807.84 1032.76 805.4 999.92 787.16 976.81 793.24 974.38 792.03 969.51 793.24 969.51 795.67 895.31 818.78 892.88 817.57 847.88 832.16"/><polygon id="Path-58" class="cls-2" points="358.82 225.63 366.12 245.09 282.19 460.39 276.11 484.72 293.14 487.15 300.44 483.5 302.87 471.34 419.64 169.68 417.21 166.03 412.34 161.17 397.75 161.17 395.31 168.47 377.07 218.34 358.82 225.63"/><circle class="cls-1" cx="380.11" cy="965.78" r="4.87"/><circle class="cls-3" cx="478.94" cy="925.95" r="7.6"/><text class="cls-4" transform="translate(232.71 934.43)"><tspan class="cls-5">R</tspan><tspan x="24.44" y="0">ijksmuseum</tspan></text><circle class="cls-1" cx="561.35" cy="609.39" r="4.87"/><circle class="cls-1" cx="444.58" cy="440.32" r="4.87"/><circle class="cls-1" cx="783.94" cy="628.85" r="4.87"/><text class="cls-6" transform="translate(962.91 134.58) rotate(-12.35)">AMSTER<tspan class="cls-7" x="220.06" y="0">D</tspan><tspan x="261.46" y="0">AM</tspan></text><circle class="cls-1" cx="808.27" cy="763.87" r="4.87"/><text class="cls-8" transform="translate(822.57 773.92)"><tspan class="cls-9">H</tspan><tspan x="14.69" y="0">ermita</tspan><tspan class="cls-10" x="70.7" y="0">g</tspan><tspan x="80.8" y="0">e </tspan><tspan class="cls-11" x="0" y="23.35">A</tspan><tspan x="13.5" y="23.35">ms</tspan><tspan class="cls-12" x="38.35" y="23.35">t</tspan><tspan x="45.51" y="23.35">e</tspan><tspan class="cls-13" x="55.9" y="23.35">r</tspan><tspan x="62.9" y="23.35">dam</tspan></text><rect class="cls-1" x="791.85" y="620.34" width="85.89" height="19.67"/><text class="cls-8" transform="translate(576.86 619.45)"><tspan class="cls-11">A</tspan><tspan x="13.5" y="0">ms</tspan><tspan class="cls-14" x="38.35" y="0">t</tspan><tspan x="45.51" y="0">e</tspan><tspan class="cls-15" x="55.9" y="0">r</tspan><tspan x="62.9" y="0">dam</tspan><tspan class="cls-16" x="0" y="23.35">M</tspan><tspan x="18.21" y="23.35">useum</tspan></text><rect class="cls-1" x="453.16" y="430.17" width="108.18" height="23.93"/><rect class="cls-1" x="453.16" y="454.1" width="65.61" height="23.93"/><text class="cls-8" transform="translate(457.66 449.16)"><tspan class="cls-11">A</tspan><tspan x="13.5" y="0">nne </tspan><tspan class="cls-17" x="50.57" y="0">F</tspan><tspan class="cls-18" x="60.8" y="0">r</tspan><tspan x="67.93" y="0">ank</tspan><tspan class="cls-19" x="0" y="23.35">H</tspan><tspan x="14.69" y="23.35">ouse</tspan></text><circle class="cls-1" cx="341.19" cy="1014.44" r="4.87"/><text class="cls-8" transform="translate(357.92 1023.27)"><tspan class="cls-20">S</tspan><tspan class="cls-21" x="10.25" y="0">t</tspan><tspan x="17.41" y="0">edelijk </tspan><tspan class="cls-16" x="0" y="23.35">M</tspan><tspan x="18.21" y="23.35">useum</tspan></text><rect class="cls-1" x="791.85" y="619.93" width="106.02" height="23.93"/><rect class="cls-1" x="791.85" y="643.85" width="65.4" height="23.93"/><rect class="cls-1" x="791.85" y="667.78" width="85.89" height="23.93"/><text class="cls-8" transform="translate(795.12 639.39)"><tspan class="cls-22">R</tspan><tspan class="cls-23" x="11.86" y="0">emb</tspan><tspan class="cls-24" x="49.6" y="0">r</tspan><tspan x="56.73" y="0">andt </tspan><tspan class="cls-19"><tspan x="0" y="23.35">H</tspan><tspan class="cls-25" x="14.69" y="23.35">ouse </tspan></tspan><tspan class="cls-16" x="0" y="46.71">M</tspan><tspan x="18.21" y="46.71">useum</tspan></text><rect class="cls-1" x="392.35" y="954.42" width="96.39" height="23.93"/><rect class="cls-1" x="392.35" y="978.35" width="83.85" height="23.93"/><text class="cls-8" transform="translate(396.84 973.4)"><tspan class="cls-26">V</tspan><tspan x="12.04" y="0">an </tspan><tspan class="cls-27" x="37.62" y="0">G</tspan><tspan class="cls-14" x="51.63" y="0">o</tspan><tspan x="62.73" y="0">gh </tspan><tspan class="cls-16" x="0" y="23.35">M</tspan><tspan x="18.21" y="23.35">useum</tspan></text></g><path id="path0" class="cls-28" d="M2.43,723.12C13,706,23.58,687.74,34.06,668.39c12.15-22.42,12.34-26.51,23.11-45C73.55,595.24,76.55,597,83.93,579.59c7-16.55,8.23-27.39,15.81-29.19,7.88-1.87,16.37,7.52,19.46,10.95,10.24,11.33,10.27,22.09,17,42.57,1.46,4.43,5.43,13.49,13.38,31.63,14.41,32.89,17,34.82,29.19,63.25,6.91,16.16,13,31.74,15.81,38.92,5.34,13.67,3.88,23.41,9.73,25.54,5,1.83,8.4-3.65,24.33-12.16,8.15-4.36,6.59-2.56,28-12.16,14.81-6.65,22.21-10,25.54-12.16,6-4,10.61-7.93,19.46-10.95C310,713,313.44,714,315,714.61c4,1.63,4.54,4.53,9.73,10.95,5.81,7.18,7.54,6.55,12.16,12.16a51.81,51.81,0,0,1,9.73,19.46c3.74,13.27-1.08,15.17,2.43,26.76.83,2.74,4.44,14.13,14.6,21.89,5.21,4,6.71,2.86,14.6,8.51,7,5,11.14,8,13.38,13.38,2,4.86,0,5.62,2.43,17,1.4,6.56,2.7,9.26,3.65,10.95a24.84,24.84,0,0,0,7.3,8.51c4.21,2.9,7,2.19,18.25,3.65,8.21,1.07,12.88,1.67,18.25,3.65,4.49,1.65,7.94,3.71,14.6,8.51,12,8.65,18,13,25.54,20.68,12.44,12.68,15,20.31,23.11,20.68,3,.14,6-.74,9.73,1.22,1.06.56,2.65,1.61,7.3,8.51a102.6,102.6,0,0,1,7.3,12.16c2.77,5.46,4.28,9.52,4.87,10.95,5.16,12.68,21,24.56,36.49,29.19,5.63,1.68,4.85.51,24.33,2.43,17.52,1.73,21,3,36.49,4.87,31.17,3.82,27.69.12,51.09,3.65,21,3.16,29.08,6.93,40.14,2.43,4.6-1.87,8.84-4.82,17-6.08,5.94-.92,9.44-.25,15.81-2.43,4.07-1.39,5.14-2.52,9.73-4.87,3.85-2,7.51-3.43,20.68-7.3,10.65-3.13,18.57-5.2,21.89-6.08,22.44-6,33.66-8.94,35.27-10.95,12.85-15.93-14.92-54.73-15.81-88.79a56.25,56.25,0,0,0-1.22-10.95c-3.1-14.51-11.27-23.82-14.6-28-13.12-16.4-17.47-36-21.89-56-6.42-28.91.26-36.61-9.73-48.65-2.18-2.63-11.62-8.68-30.41-20.68-18.24-11.65-23.85-14.88-24.33-20.68s5.29-6.35,15.81-19.46c11.33-14.11,10.76-20.82,23.11-32.84,3.75-3.66,3.69-2.92,9.73-8.51a210.08,210.08,0,0,0,19.46-20.68c15.09-17.77,39.38-30.94,60.82-42.57,18.62-10.1,24.9-11.4,25.54-17,1.23-10.83-21-14.72-43.79-41.36-7.83-9.15-24-28.09-19.46-46.22,1-4.07,3.93-8.79,9.73-18.25,11.39-18.54,16-19.4,15.81-25.54-.31-13-20.87-16.61-20.68-29.19.1-6.44,5.53-9.5,12.16-17,14.7-16.69,16.54-34,19.46-41.36,13.46-33.72,116.62-21.78,209.21-37.71,82.27-14.15,64.8-34.57,161.77-53.52,101-19.73,96.41,7,188.53-12.16,23.42-4.87,69.26-16.08,98.52,8.51a59.93,59.93,0,0,1,10.95,12.16"/><path id="path1" class="cls-28" d="M1.22,111.3c69.73-2.53,126-4,165.42-4.87,120.8-2.69,108-.44,127.72-2.43,41-4.16,55.44-9.78,77.85-1.22,9.07,3.47,26.11,11.81,36.49,4.87a59.16,59.16,0,0,0,14.6-15.81c.24-.38.27-.44,3.65-6.08,6.14-10.24,6.82-11.36,7.3-12.16,6.14-10.48,8-23.46,8.51-26.76,2.12-14.56-1-19.81,3.65-24.33,3.13-3,7.19-3.23,14.6-3.65,6.35-.36,18.81-1.06,21.89,4.87,1.95,3.74-1.55,6.86-3.65,15.81-1,4.15-1.09,7.17,0,23.11,1.94,28.37,2.82,26.12,2.43,32.84-.93,16.25-5.45,18.83-2.43,26.76,2.69,7.08,6.66,6,18.25,18.25,10.83,11.43,13.86,19.21,18.25,18.25,3-.66,4.47-5,6.08-9.73,2.83-8.37,2.45-15.08,2.43-20.68,0-11.64,1.58-9.3,2.43-25.54,1.22-23.14-2-29.23,3.65-36.49,4.14-5.35,10-7.35,13.38-8.51,7.74-2.65,18.75-3.28,25.54,1.22,8,5.3,7.43,15.94,7.3,51.09-.2,52.27,1,58.1-3.65,73-3,9.65-7.27,18.19-15.81,35.27-10.1,20.2-18.91,34.48-23.11,41.36-27.11,44.34-23,42.77-52.3,91.23-20.23,33.45-42.95,68.52-40.14,70.55.81.59,2.69-2.36,7.3-3.65,10.85-3,26.54,6.06,29.19,17,1.79,7.4-3.15,12.33-8.51,23.11-5.56,11.18-7.36,22.45-10.95,45-5.27,33.11,3.64,40.54,2.43,76.63-1.55,46.31-16.71,48.37-12.16,83.93,1.23,9.62,4.84,35.4,23.11,58.38,10.17,12.8,12.86,9.59,35.27,31.63,22.57,22.18,24.14,29.66,38.92,37.71,9.76,5.31,12.43,3.89,40.14,9.73,47.32,10,47.62,15.85,71.76,17,23.68,1.16,43.18-3.52,53.52-6.08,17.61-4.36,16.72-6.6,38.92-13.38,35.08-10.71,39.93-5.92,64.47-15.81,21.38-8.62,18.42-12.56,38.92-19.46,19.56-6.58,22.19-3,47.44-10.95,16.32-5.15,20.72-8.38,30.41-7.3,8.35.94,15,5.1,28,13.38C981.24,772.16,992,779,993.76,780.29c26.31,18.93,51,36.72,80.28,37.71,34.3,1.15,59.87-21.3,82.71-41.36,11.25-9.88,23.07-20.5,20.68-30.41-2.86-11.84-23-10-41.36-30.41-5.55-6.16-15.05-16.71-13.38-29.19,1.77-13.22,15.41-23.57,28-26.76,18.4-4.67,30.86,6.94,59.6,19.46,25.76,11.23,46.33,15.23,68.12,19.46,40.07,7.79,72.84,5.61,99.74,3.65,37-2.7,43.88-7.51,83.93-9.73a546.57,546.57,0,0,1,60.82,0"/><path id="path2" class="cls-28" d="M0,849.62q17.55-8,36.49-15.81c23.75-9.75,34.5-13,58.38-21.89,7.66-2.84,38-14.2,75.41-30.41,58.11-25.19,38.18-20.92,58.38-28,10.85-3.79,30.4-9.84,30.41-18.25a6.68,6.68,0,0,0-1.22-3.65c-7.64-11.93-10.61-26.3-17-38.92-2.2-4.33.21.21-18.25-41.36C210,623,208.26,619.5,206.78,611.22a92.19,92.19,0,0,1,0-35.27c2.44-12,5.2-12.11,12.16-34.06,5.66-17.84,4.43-19.66,8.51-24.33,8.26-9.43,22.75-12.81,30.41-14.6,9.18-2.14,17.4-2.42,20.68-8.51,1.65-3.06,1.15-5.94,3.65-7.3,3.21-1.75,6.39,1.73,12.16,1.22,3.86-.35,6.38-2.26,8.51-3.65,7.45-4.87,10.46-3.64,34.06-12.16,6.12-2.21,4.08-1.63,21.89-8.51,6.31-2.44,17.62-10.37,25.54-9.73a19.11,19.11,0,0,0,3.65,0c4.31-.42,7.05-2.2,9.73-3.65,6.84-3.7,6.86-1.75,15.81-6.08,5.21-2.52,5.81-3.48,8.51-3.65,4.6-.29,6.45,2.23,9.73,1.22,2.18-.68,3.4-2.43,6.08-7.3,5.64-10.24,4.48-13,7.3-14.6,2.19-1.27,5.3-1,19.46,6.08a176.79,176.79,0,0,1,15.81,8.51c21.34,13.44,33.05,10.51,35.27,18.25,1,3.57-1.06,4.82-4.87,15.81a176,176,0,0,0-6.08,25.54c-2.45,14.42-.39,21.23,0,36.49.36,14.27-1.35,12.09-4.87,48.65-3.56,36.95-.78,28.41-3.65,54.74-2,18.44-4.56,33.47,0,35.27,1.72.68,5.2-1.57,12.16-6.08,8.35-5.41,9.39-7.27,12.16-7.3,5.72-.06,9.34,7.74,14.6,15.81,5.1,7.84,13.67,21,25.54,28,7.55,4.44,7,.85,45,7.3a35.28,35.28,0,0,0,13.38,0c1-.19,16.21-3.43,18.25-12.16.62-2.65-.22-4.77-8.51-17-6.24-9.22-11.77-18.92-18.25-28-3.42-4.77-6.18-8.43-4.87-10.95,1.13-2.16,4.59-2.22,9.73-2.43,25-1,27.91-3,29.19-4.87,1.6-2.37-.25-3.41,0-10.95s2.23-10.77,4.87-20.68c2.69-10.1,2.13-12.38,3.65-18.25,3.4-13.14,11.15-20.92,19.46-30.41,5.77-6.59,14-17.78,30.41-40.14,15-20.46,15.1-23.19,38.92-57.17,10.73-15.3,16.09-22.94,19.46-26.76,21.69-24.54,38.62-27.86,54.74-41.36,33.25-27.85,17.37-60.79,38.92-83.93,30.89-33.16,98.57-3.11,240.84,30.41,127.44,30,120.89,17.16,209.21,42.57a1204.87,1204.87,0,0,1,217.73,86.36"/><path id="path3" class="cls-28" d="M2.43,725.55q20.09-33.86,40.14-69.33C63,620.13,69.19,607.64,92.44,565c48.11-88.22,49.2-85.74,76.63-138.66,39.33-75.89,31.46-70.12,42.57-83.93,15.69-19.5,22.43-44.74,34.06-66.9.6-1.14,2.23-4.23,1.22-7.3-1.14-3.44-4.65-3.94-6.08-6.08C236.27,255.29,253,237.8,253,237.8c27.33-28.57,41-42.85,53.52-54.74,12.94-12.28,22.82-22.78,42.57-43.79,12-12.74,28.51-22.15,36.49-37.71a2.42,2.42,0,0,1,1.22-1.22c1.79-.67,4.24,1.83,4.87,2.43,6.12,5.81,20.69,2.26,23.11,7.3,2.14,4.46-8.31,9.28-12.16,24.33-1,3.72-2.26,9.11,0,14.6,2.17,5.26,6.27,7.35,10.95,10.95,8.1,6.23,10.18,11,17,19.46,9.28,11.43,17.93,18,41.36,38.92,23.6,21.1,35.39,31.65,47.44,43.79,18.16,18.31,25.33,27.67,41.36,35.27a194.12,194.12,0,0,0,25.54,9.73c13.33,3.87,14.89,2.51,24.33,6.08,15.87,6,18.13,12.38,25.54,10.95,2.65-.51,4.64-1.77,17-15.81,8-9.07,12-13.61,14.6-17,13.51-17.82,13-24.44,23.11-37.71,4.86-6.4,12.7-16.71,23.11-21.89,37.95-18.88,102.52,34.23,128.93,56,8.66,7.12,12,12.26,21.89,19.46,8.51,6.21,32.38,23.64,66.9,30.41,19.75,3.88,34.64,2.62,37.71,10.95,1.49,4-1.18,6.56-2.43,14.6-1.57,10,1.1,15.54,4.87,30.41,7.79,30.79,3,33.56,9.73,41.36,8.51,9.88,16.05,5.28,25.54,15.81,9,10,10,22.78,10.95,34.06,1.55,19.17-4,21-3.65,43.79.18,13.43.51,26.21,8.51,37.71,6.41,9.2,14.84,13.45,19.46,15.81,23.28,11.91,44.93,26.83,68.12,38.92,35.92,18.73,66.49,37.62,70.55,40.14,33.89,21,35.08,24.57,48.65,28,24.25,6.08,44.57.78,52.3,13.38,5,8.16.17,16.41,6.08,20.68s13.82-2.1,29.19-4.87c14.72-2.64,19.39,1.13,40.14,2.43,16.76,1.06,18.26-1.11,45-2.43,39.82-2,50.91,2.14,98.52,0,9-.4,16.31-.9,20.68-1.22"/><path id="path4" class="cls-28" d="M1.22,113.73c44.35-1.31,80.46-2.67,104.61-3.65,80.66-3.25,161.57-1.16,242.05-7.3,17.79-1.36,36,4.35,53.52,1.22,1.73-.31,6.15-1.18,8.51,1.22,3.24,3.28.37,10.41-3.65,23.11-5.14,16.23-10,21.41-7.3,25.54,2.11,3.2,5.82,1.76,12.16,4.87,8,3.94,11.39,10.81,14.6,15.81,6.68,10.43,10.65,9.53,30.41,26.76,21.07,18.38,15,18,32.84,32.84,12,9.91,21.5,23.25,35.27,30.41a7.18,7.18,0,0,1,3.65,3.65c1.6,4.42-3.57,9.66-7.3,14.6-5,6.65-4.18,8.5-10.95,23.11-1.57,3.4-4.35,9.2-24.33,43.79-17.74,30.72-26.62,46.09-26.76,46.22a42.2,42.2,0,0,0-10.95,19.46,4.65,4.65,0,0,0,0,2.43c1,3.46,6.09,3,13.38,6.08,9.15,3.88,10.15,8.42,17,9.73a3.68,3.68,0,0,1,2.43,1.22c1.69,2.31-1.25,7.12-3.65,10.95-11.39,18.21-12.18,18.53-13.38,21.89-1.38,3.87-.81,4.78-1.22,19.46-.23,8.12-.84,16.22-1.22,24.33-.6,13.16-1.21,22.56-2.43,41.36-2.13,32.8-3.19,49.2-4.87,63.25,0,0-6.7,56.22-2.43,74.2.73,3.08,2.31,5.45,3.65,12.16.61,3,.84,5.38,2.43,6.08,1.85.82,4.32-1.12,6.08-2.43,9-6.74,7.92-3.29,18.25-10.95,4.25-3.15,9.1-5.41,13.38-8.51a4.93,4.93,0,0,1,3.65-1.22c2.3.43,3.1,3.34,4.87,6.08,2.41,3.75,5.25,5,8.51,7.3,5.32,3.68,7.42,6.92,25.54,24.33,23.21,22.3,24.31,21.35,26.76,25.54A13.6,13.6,0,0,0,579,756c8.89-1,20,4.86,53.52,13.38a246.57,246.57,0,0,0,31.63,6.08c8.9,1.09,13.86,1.17,19.46,0,7.29-1.52,10-4,18.25-7.3,5.59-2.25,8.63-2.84,23.11-6.08,37.31-8.36,46-10.9,52.3-19.46,2-2.76,3.36-4.54,3.65-7.3,1.62-15.58-32.41-33.86-60.82-40.14-20.31-4.49-36.74-8.12-56-2.43-8.27,2.45-21.46,7.93-26.76,2.43-1.89-2-1.07-3.55-2.43-8.51-1.82-6.6-6.51-12.2-15.81-23.11-3.8-4.45-7.72-8.74-10.95-15.81-1.77-3.87-2.43-6.61-1.22-8.51,1.32-2.06,4.22-2.15,8.51-2.43,15.65-1,10.25-2,23.11-2.43,5.5-.2,9.1-.13,13.38-2.43a21.31,21.31,0,0,0,4.87-3.65c6.32-6.15,8.53-13.51,10.95-19.46,3.49-8.59,3.81-5.35,10.95-19.46,6.64-13.14,7-17.13,13.38-26.76,2.5-3.75,2.69-3.5,7.3-9.73,7.87-10.64,12.21-18,17-25.54,3.56-5.6,1.65-2.33,21.89-31.63,8-11.56,13.51-25,23.11-35.27,1.45-1.54,7-7.34,8.51-15.81.46-2.54.85-4.72,0-7.3-1.85-5.64-7.64-7.22-7.3-10.95.13-1.4,1.05-2.37,2.43-3.65A72.32,72.32,0,0,1,778.47,413c7.21-4,6.36-6,14.6-12.16,9.68-7.2,13.44-6.3,20.68-10.95,12.56-8.06,11.74-17.51,25.54-37.71,0,0,6.13-9,19.46-23.11,35.48-37.65,159-21,187.32-17,46.09,6.52,83.53,13.88,126.5,23.11,119.82,25.73,180.91,39.14,238.41,65.68a631,631,0,0,1,110.69,65.68"/><path id="path5" class="cls-28" d="M1.22,847.19a955.71,955.71,0,0,0,141.1-53.52c31.71-15.07,47.56-22.61,62-30.41,0,0,89.52-48.26,105.82-47.44a7.8,7.8,0,0,0,4.87-1.22c.49-.34,2.36-1.75,2.43-3.65.1-2.49-3-3.26-4.87-6.08-2.51-3.83-.31-7.82,0-13.38.29-5.24-1.29-8.41-4.87-17-9.22-22.23-6.82-20.7-12.16-31.63-7.72-15.79-10.12-13.62-18.25-29.19-3.06-5.87-6.5-15.67-13.38-35.27-7.95-22.64-9.25-28.58-8.51-36.49a47.18,47.18,0,0,1,4.87-18.25c5.09-9.86,10.15-10,13.38-19.46,2.57-7.5,1-12.13,4.87-14.6,1.39-.89,2-.52,10.95-1.22,7.65-.59,9.49-1,10.95-2.43,2-1.91,2-4.37,2.43-7.3,1.83-12.59,8.11-12.71,9.73-24.33,1-6.87-.66-11,2.43-13.38,1.65-1.27,3.29-1,6.08-1.22,5.73-.44,7.87-2.27,17-6.08.53-.22,6-2.17,17-6.08,5-1.78,15.94-5.66,24.33-8.51,39.62-13.47,37.37-9,46.22-14.6,0,0,14.94-9.45,23.11-8.51a20.7,20.7,0,0,0,4.87,0c1.35-.16,4.92-.57,7.3-2.43,3.21-2.52,3.51-7.13,3.65-8.51.73-7.32,5.81-13.49,23.11-43.79,10.24-17.94,6.89-13,19.46-35.27,7.23-12.8,16.56-29.27,29.19-49.87,14.91-24.31,13.4-20.1,18.25-29.19,12.4-23.27,12.22-32,21.89-36.49,8.49-4,10.91,1.7,30.41-2.43,4.58-1,10.1-2.48,18.25-2.43a70.21,70.21,0,0,1,12.16,1.22C655,190.12,668.1,201.07,672.64,205c11.47,9.81,6.38,10.47,20.68,24.33,2.56,2.48,5.74,5.38,6.08,9.73.44,5.5-4,9.15-8.51,14.6-9.42,11.33-6.58,15.15-15.81,29.19-5.7,8.67-9.62,11.53-18.25,20.68-10.17,10.78-19.76,24.22-38.92,51.09-6.84,9.59-12.67,18.15-24.33,35.27,0,0-11.11,16.32-34.06,52.3C552,454,547.72,460.81,543.71,471.34c-2.1,5.52-4,11.62-7.3,28-2.77,13.59-5,24.63-7.3,42.57-6.35,49.85.49,47.2-6.08,68.12-4.09,13-9.38,22.42-6.08,35.27,2,8,6.83,15.12,9.73,19.46,4,6,8,10.16,15.81,18.25,9.44,9.76,14.16,14.65,18.25,17,8.53,5,16.36,5.91,28,7.3,10.27,1.23,17.1.68,25.54,0,12.43-1,16.62-2.81,19.46-6.08a14.71,14.71,0,0,0,3.65-8.51c.36-6.3-4.35-9.33-15.81-23.11a103.09,103.09,0,0,1-13.38-21.89c-1.38-3.06-2.63-6.25-1.22-8.51,1.64-2.63,5.73-2.23,13.38-2.43,13.72-.37,21.42-.66,24.33-4.87,1.76-2.55.24-4.31,0-10.95-.26-7.29,1.43-9.43,7.3-30.41,4-14.37,3.35-13.82,4.87-17,4-8.51,7.81-10.44,14.6-19.46,8.07-10.72,5.64-11.86,13.38-23.11,6.91-10,10.22-11.11,21.89-24.33,7-7.89,11.35-13.8,18.25-23.11,11.54-15.57,12.91-19.42,29.19-42.57,11.37-16.17,14.8-20.12,19.46-24.33,6.41-5.78,10.12-7.51,21.89-15.81,0,0,12.76-9,25.54-19.46,26.44-21.64,21.08-48.58,38.92-65.68,21.72-20.81,55.2-5.38,103.39-3.65,52.51,1.88,68.51-14.45,143.53-35.27,43.32-12,131.42-36.48,221.38-29.19C1371.48,251,1442,264,1524.09,315.64"/><path id="path6" class="cls-28" d="M2.43,113.73q114.3-5.14,228.67-8.51c49.86-1.47,99.77-1.46,149.61-3.65a41.3,41.3,0,0,1,4.87,0c9.24.58,11.9,4.06,20.68,4.87,4.17.38,7.16.66,9.73-1.22,3.27-2.38,3-6.14,4.87-10.95,2.8-7.22,8-10.55,10.95-13.38,16-15.33,3.73-52.05,19.46-60.82,2.23-1.24,8.38-.83,20.68,0,15.64,1.06,18.92,2.85,29.19,3.65,11.14.86,20.8-.64,40.14-3.65,22.29-3.47,27.43-6.11,32.84-2.43,8.41,5.71,7.73,20.06,7.3,30.41-3.74,89.67,2.32,84.12-4.87,116.77a348.56,348.56,0,0,1-18.25,58.38c-13,31.34-20.76,36.39-48.65,82.71-43.56,72.34-40.05,85.47-62,111.9a100,100,0,0,0-19.46,34.06c-3.05,9.39-3.84,16.95-4.87,29.19-3.29,39.34-3.65,56-3.65,56-.73,34.38-1.1,51.57-2.43,71.76-2.16,32.83.44,66.27-6.08,98.52a15.83,15.83,0,0,0,0,7.3c1.11,4.41,3.64,5.41,6.08,9.73,3.32,5.88,1.09,8.35,3.65,13.38,2.73,5.38,7.54,7,12.16,9.73,8.45,4.94,10.19,9.84,20.68,23.11,11.16,14.12,11,10.87,26.76,29.19,17.68,20.55,21.59,28.94,35.27,38.92A69.52,69.52,0,0,0,534,848.41a67.85,67.85,0,0,0,18.25,3.65c21.72,1.56,37.06,10.49,87.58,20.68,31.55,6.36,40,5.79,46.22,4.87,7-1,8.22-2.12,35.27-10.95,11.17-3.65,21.64-6.89,42.57-13.38,18.5-5.74,32.47-9.88,40.14-12.16,43.46-12.91,49-13.59,93.66-26.76,28.8-8.5,43.19-12.74,51.09-15.81C960.35,794,972.92,792,984,786.37c2.9-1.46,7.37-3.86,13.38-3.65,3.58.12,7.61,1.17,18.25,8.51,15.29,10.56,16,14.66,25.54,18.25,6.29,2.37,6.24.68,14.6,3.65,11.19,4,12.8,7.54,19.46,8.51,5.27.77,8.91-.77,20.68-6.08,18-8.12,27-12.18,29.19-13.38,0,0,38.1-20.83,52.3-42.57,2.78-4.26,4.06-8.18,3.65-12.16a16.84,16.84,0,0,0-3.65-8.51c-4.69-6.21-10.08-7.24-20.68-12.16-3.52-1.63-10.46-6-24.33-14.6-6.24-3.89-10.3-6.54-10.95-10.95-.48-3.25,1.16-5.69,3.65-9.73,10.28-16.67,6.88-14.77,14.6-25.54,7.13-10,10.69-14.93,13.38-15.81,11.78-3.85,21.78,15.21,46.22,30.41,19,11.82,36.59,15,54.74,18.25,19.12,3.44,31.07,2.62,66.9,1.22,24.73-1,49.48-1.31,74.2-2.43,29.76-1.35,72.42-2.27,126.5,0"/><path id="path7" class="cls-28" d="M2.43,113.73c68.43-2.25,123.89-3.82,163-4.87C258,106.4,295,105.94,318.68,104c0,0,29.62-2.43,56-2.43h6.08a6.91,6.91,0,0,1,1.22,4.87c-.66,3.49-4.86,5-8.51,7.3-5.51,3.51-7.16,7.28-10.95,12.16C351,140.62,314.36,173,281,208.6c-3.74,4-15.35,16.47-31.63,32.84a24.59,24.59,0,0,0-6.08,6.08c-4.37,6.73-5.1,16.81-1.22,19.46,3.1,2.12,8.38-1,13.38-3.65,20.89-10.94,21.23-4.28,46.22-15.81,19.27-8.89,28.91-13.34,35.27-18.25,3.5-2.7,10.2-8.23,14.6-6.08,1.93.94,2.94,3.48,4.87,8.51A61.32,61.32,0,0,1,360,243.88c1.52,10.56-4.38,20.23-6.08,23.11-12.67,21.46-18.14,46.43-28,69.33-22,51.29-13.59,47.68-29.19,76.63-8.72,16.18-16.61,27-19.46,46.22-2.69,18-3.65,30.41-3.65,30.41-.92,11.82-.94,19.56-6.08,28-3.9,6.38-6.61,6.37-9.73,10.95-5.71,8.38-2.26,21.51,4.87,47.44,12.74,46.32,14.09,50.22,19.46,56s11.19,9.39,17,19.46c4.43,7.65,6.24,14.39,8.51,23.11,5.62,21.55,1.76,22.37,6.08,32.84,5.76,14,12.21,11.51,23.11,30.41a91.48,91.48,0,0,1,10.95,26.76c3.26,14.58-.35,17.09,3.65,25.54,2.74,5.79,4.9,5.61,23.11,21.89,15,13.43,17.06,16.69,18.25,20.68,2.27,7.64-.82,10.49,2.43,18.25a30.66,30.66,0,0,0,13.38,14.6c6.31,3.27,9.59,1.74,20.68,3.65a107,107,0,0,1,20.68,6.08c8.25,3.49,9.45,6.16,28,21.89,15.46,13.13,23.19,19.69,30.41,24.33,6.12,3.93,9.23,5.38,13.38,9.73,8,8.36,8.45,15.54,12.16,23.11,9.67,19.75,33.93,27.07,45,30.41,12.66,3.82,20.37,3.15,36.49,3.65,51.26,1.59,51.42,10.78,87.58,9.73A228.43,228.43,0,0,0,770,985.85c15.81-5.54,14.23-7.13,37.71-15.81,15.87-5.87,28.77-9.64,54.74-19.46,17-6.44,21.62-8.65,26.76-13.38,9.77-9,9.16-15.68,19.46-21.89,10-6,21.22-6.1,24.33-6.08,9.69.06,11.1,3,21.89,2.43,6-.32,12.35-.73,18.25-4.87,3.68-2.58,3.52-4,9.73-9.73,3.77-3.45,7.16-6.56,10.95-8.51,8.12-4.19,13.17-.54,24.33-1.22,7.93-.48,14.62-3.56,28-9.73,16.66-7.69,16.47-10.7,26.76-13.38,9.93-2.58,10.34.16,25.54-2.43,11-1.87,18.34-3.22,25.54-8.51,6.92-5.09,5.29-7.65,13.38-15.81a70.89,70.89,0,0,1,26.76-17c13-4.44,17.45-1,26.76-6.08,7.85-4.27,10.86-10.13,15.81-17,7.92-11,8.63-8.2,35.27-34.06,27.75-26.92,28.53-31.5,40.14-36.49,13.1-5.63,24.5-5.12,34.06-4.87,32.45.86,64.85-3.88,97.31-3.65,25.2.18,61.95.1,108.26-1.22"/><path id="path8" class="cls-28" d="M2.43,113.73c119.25,1,187.57-2.46,228.67-6.08,42.44-3.74,85.29-1,127.72-4.87,12.93-1.17,26,2.31,38.92,1.22,3.62-.31,9.56-.95,12.16,2.43,1.57,2,1.76,5.31-2.43,17-6.1,17.05-9.74,19.22-8.51,24.33,1.51,6.27,7.75,6.07,18.25,14.6s10.52,13.94,20.68,25.54c9,10.3,15.45,13.39,26.76,21.89C483.53,224,484.52,229.63,506,250c6.72,6.36,51.9,49.11,85.14,58.38,9,2.52,17.61,6.55,26.76,8.51,8.91,1.92,16.62,2.68,18.25,7.3,1.11,3.17-1.17,6.65-2.43,8.51-30.18,44.67-39.56,49.89-42.57,63.25-.47,2.1-1.42,7.19-4.87,8.51-4.68,1.8-11.41-4.29-13.38-6.08-6.9-6.24-7.57-11.78-12.16-12.16-2.9-.24-5.25,1.73-6.08,2.43-4,3.35-4.18,8.54-4.87,12.16-1.49,7.87-5.52,9.37-13.38,20.68-9.09,13.08-5.15,13.16-14.6,28-8.87,13.92-14.64,17.44-15.81,28-.43,3.86.27,4.08,0,12.16a143.35,143.35,0,0,1-2.43,21.89C501,526,502.5,538,502.35,557.7c-.2,26.71-3.1,20.65-4.87,58.38-1.78,38-2.67,56.94-1.22,62a11.5,11.5,0,0,1,0,7.3c-1.78,4.67-7,6.5-12.16,8.51-16.4,6.33-26.59,10.35-26.76,14.6-.11,2.79,4.13,5,6.08,6.08,12.84,7.05,21.73,19.65,32.84,29.19,19.76,17,29.64,25.44,36.49,32.84,7.11,7.68,9.94,11.71,17,15.81,10.25,5.93,17.93,5.38,30.41,7.3,26.68,4.1,22.15,11.32,46.22,14.6,29.88,4.07,44.82,6.1,45,6.08.69-.06,3.27-.34,4.87,1.22,1.79,1.74,1.36,4.83,1.22,6.08-.4,3.36,1-5.24,1.22,23.11.08,11.91.11,17.86,0,18.25a8.82,8.82,0,0,0,0,6.08,7.25,7.25,0,0,0,3.65,3.65c3.82,1.62,8.22-1.5,12.16-3.65.06,0-.63.34,19.46-6.08,23.77-7.6,35.66-11.4,41.36-13.38,20.43-7.11,25-9.68,37.71-12.16,7.48-1.46,14.88,1.82,18.25-2.43,2.36-3,1.49-7.22,0-13.38-4.57-18.92-9.59-33.64-9.73-34.06-6.66-19.54-3.18-12.37-8.51-28-4.1-12-6.91-18.47-3.65-23.11,1.89-2.69,4.68-3.12,10.95-4.87,12.9-3.59,7.18-3.45,24.33-8.51,18.09-5.34,18.5-3.74,34.06-8.51,19.52-6,23.61-10,25.54-12.16,4.58-5.2,4-8.2,9.73-15.81,5.42-7.14,10.31-10.21,15.81-14.6,16.17-12.9,14.33-18.66,32.84-36.49,12.22-11.76,11.65-7.94,21.89-18.25,16.49-16.6,14.81-23.35,29.19-36.49,14.8-13.52,19.84-9.36,26.76-19.46,9.22-13.47,6.66-30.21,3.65-49.87-4.25-27.74-11.35-28.07-12.16-49.87-.77-20.65,5.27-29.11-1.22-36.49-8.37-9.53-22.63-.18-34.06-9.73-10.4-8.69-9.46-25.51-8.51-42.57,1-17.6,2.11-37.92,15.81-49.87,8.57-7.47,21.14-10.87,51.09-7.3,53.45,6.38,86.51,25.92,159.34,51.09a256.77,256.77,0,0,0,35.27,9.73c27.19,5.41,40.28,3.29,58.38,4.87,33.66,2.92,32.37,14,91.23,32.84,17.28,5.52,16.94,4.41,70.55,18.25,31.46,8.12,56.85,15,73,19.46"/><path id="path9" class="cls-28" d="M0,729.2C13.55,706,34,670.57,58.38,627c22.47-40.1,24.5-44.66,53.52-97.31,85-154.23,101.28-176.33,109.47-201.91,7-21.76,20.93-40.73,29.19-62a9.44,9.44,0,0,1,2.43-3.65c3.74-3.4,9.53-2.58,10.95-2.43,9.69,1,29.29-8,62-23.11,31.54-14.51,37.26-20.05,40.14-23.11a100.94,100.94,0,0,0,15.81-23.11c9.75-19.73,8.84-34.43,17-36.49,3.28-.83,6.15.85,10.95,3.65,11.14,6.5,16,15.46,20.68,21.89,6.65,9.22,7.77,6.32,28,24.33C485,227.31,498.23,239.09,506,250c3.88,5.42,10.1,14.87,18.25,14.6,1.36,0,4.5-.42,9.73-4.87,8.68-7.38,12-16.52,14.6-23.11,8.2-20.88,12.3-31.32,19.46-37.71,3.55-3.17,9.2-6.81,29.19-9.73,17.61-2.57,38.48-5.62,65.68,0,32,6.61,53.83,21.32,70.55,32.84,37.44,25.81,40.08,42.12,83.93,70.55,13.65,8.85,25,14.81,31.63,18.25,35.73,18.61,53.6,27.91,76.63,30.41,18.87,2,29.1-1.29,37.71,7.3,6.79,6.78,8.15,16.56,9.73,28,3,21.69-3,29.48,3.65,38.92,5.77,8.14,15.82,10.2,19.46,10.95,15,3.08,23.17-5,41.36-8.51,10.88-2.1,19.82-1,37.71,1.22,36.8,4.55,41.78,13.91,87.58,23.11a270.22,270.22,0,0,1,30.41,7.3c10.32,3.18,12.3,4.55,31.63,12.16,0,0,24,9.45,53.52,24.33,5.16,2.6,10.6,5.43,12.16,10.95,1.14,4,.42,10.14-9.73,21.89-11.87,13.75-20.52,16.52-34.06,26.76-10.57,8-18.81,17.49-35.27,36.49-20.95,24.17-17.26,24.7-26.76,31.63s-19.85,11.29-28,24.33c-4.2,6.73-4.21,10-3.65,12.16,2,7.54,13.24,9.77,24.33,13.38,27.74,9,22,16.22,47.44,24.33,35.62,11.35,47.44,13.38,47.44,13.38,2.89.49,8.9,1.43,12.16,6.08,4.1,5.83.27,12.34,3.65,15.81,4.44,4.55,16.69-.83,20.68-2.43,13.79-5.54,19.61-2.41,60.82-1.22,46.06,1.33,46.49-2.33,143.53-2.43h8.51"/></g></g></svg>