<?xml version="1.0" encoding="utf-8"?>
<!-- Generator: Adobe Illustrator 21.0.0, SVG Export Plug-In . SVG Version: 6.00 Build 0)  -->
<svg version="1.1" id="MapAndPaths" xmlns="http://www.w3.org/2000/svg" xmlns:xlink="http://www.w3.org/1999/xlink" x="0px"
	 y="0px" viewBox="0 0 1920 1080" style="enable-background:new 0 0 1920 1080;" xml:space="preserve">
<style type="text/css">
	.st0{fill:#FFFFFF;}
	.st1{fill:none;stroke:#FFFFFF;stroke-width:1.2164;}
	.st2{fill:#E50099;}
	.st3{fill:none;}
	.st4{font-family:'Lato-Semibold';}
	.st5{font-size:38.9233px;}
	.st6{font-family:'Lato-Thin';}
	.st7{font-size:43.7887px;}
	.st8{letter-spacing:8;}
	.st9{font-family:'Lato-Bold';}
	.st10{font-size:19.4616px;}
</style>
<g>
	<rect width="1920" height="1080"/>
</g>
<g id="Map">
	<rect x="497.1" y="1017.4" class="st0" width="83.9" height="23.9"/>
	<rect x="497.1" y="1041.4" class="st0" width="83.9" height="23.9"/>
	<rect x="961.7" y="769.1" class="st0" width="102" height="23.9"/>
	<rect x="961.7" y="792.8" class="st0" width="109.9" height="23.9"/>
	<rect x="716.1" y="637.1" class="st0" width="86.3" height="23.9"/>
	<rect x="716.1" y="614" class="st0" width="109.4" height="23.9"/>
	<g>
		<g transform="translate(-94.000000, -82.000000)">
			<polyline id="Path_11_" class="st1" points="238.9,205.2 620.9,193 629.4,196.7 651.3,199.1 664.7,177.2 682.9,115.2 
				656.2,107.9 653.7,116.4 648.9,117.6 652.5,106.7 629.4,98.2 			"/>
			<polyline id="Path-2_1_" class="st1" points="641.6,98.2 685.3,106.7 687.8,98.2 			"/>
			<polyline id="Path-3_1_" class="st1" points="698.7,98.2 697.5,107.9 712.1,114 718.2,116.4 796,107.9 803.3,109.1 805.8,98.2 
							"/>
			<polyline id="Path-4_1_" class="st1" points="827.7,99.4 833.7,118.8 821.6,277 865.4,279.4 861.7,249 869,212.5 873.9,218.6 
				870.2,222.2 894.6,266 911.6,258.7 886,213.7 880,216.1 872.7,202.8 867.8,201.6 847.1,116.4 843.5,117.6 844.7,105.5 
				843.5,96.9 			"/>
			<polyline id="Path-5_1_" class="st1" points="961.5,98.2 996.8,252.6 1021.1,258.7 1027.2,269.7 1036.9,275.7 1112.4,219.8 
				1122.1,206.4 1130.6,183.3 1130.6,166.3 1108.7,95.7 			"/>
			<polyline id="Path-6_1_" class="st1" points="967.5,98.2 977.3,140.7 982.1,139.5 972.4,96.9 			"/>
			<polyline id="Path-7_1_" class="st1" points="1045.4,99.4 1050.2,109.1 1057.5,105.5 1055.1,98.2 			"/>
			<polyline id="Path-8_1_" class="st1" points="1119.7,98.2 1141.6,168.7 1141.6,185.7 1135.5,204 1123.3,222.2 1060.1,270.9 
				1051.5,273.3 1046.7,280.6 1055.2,287.9 1050.3,303.7 1060.1,315.9 1139.1,256.3 1146.4,264.8 1082,318.3 1078.3,324.4 
				1082,331.7 1106.3,342.6 1116,334.1 1113.6,329.3 1105.1,337.8 1089.3,322 1135.5,285.5 1142.8,283 1139.1,289.1 1144,294 
				1118.4,322 1118.4,325.6 1125.7,324.4 1147.6,298.9 1151.3,301.3 1179.3,273.3 1182.9,278.2 1156.1,303.7 1159.8,311 
				1152.5,319.5 1208.5,329.3 1209.7,337.8 1214.5,342.6 1238.9,343.9 1242.5,349.9 1373.9,323.2 1359.3,240.5 1370.2,238 
				1375.1,266 1372.7,270.9 1383.6,320.8 1515,296.4 1518.6,291.6 1528.4,285.5 1515,253.9 1536.9,246.6 1556.3,278.2 1615.9,263.6 
				1612.3,252.6 1592.8,239.3 1606.2,214.9 1617.1,222.2 1618.4,228.3 1628.1,227.1 1630.5,241.7 1641.5,247.8 1643.9,240.5 
				1664.6,250.2 1713.2,241.7 1731.5,253.9 1760.7,257.5 			"/>
			<polyline id="Path-9_1_" class="st1" points="1754.5,99.8 1737.5,169.1 1748.4,175.2 1749.7,183.7 1756.9,183.7 1759.4,178.9 			
				"/>
			<polyline id="Path-11_1_" class="st1" points="240.2,211.7 614.8,200.8 618.4,203.2 614.8,205.6 611.1,205.6 477.3,343.1 
				470,392.9 408,504.9 403.1,504.9 370.3,367.4 364.2,368.6 397.1,512.1 403.1,515.8 356.9,596.1 349.6,605.8 336.3,635 
				333.8,643.5 238.9,812.6 			"/>
			<polyline id="Path-12_1_" class="st1" points="240.2,829.6 336.3,656.9 342.3,653.2 350.8,653.2 438.4,858.8 			"/>
			<polyline id="Path-13_1_" class="st1" points="438.4,858.4 405.6,874.2 238.9,939.9 			"/>
			<polyline id="Path-14_1_" class="st1" points="239,948.4 363.1,898.5 419,875.4 548,810.9 560.1,824.3 563.8,825.5 573.5,837.7 
				582,863.2 583.2,886.4 590.5,901 594.2,903.4 616.1,914.3 627,926.5 631.9,953.3 642.8,963 648.9,965.4 680.6,970.3 
				741.4,1020.2 735.3,1029.9 731.6,1036 728,1130.8 728,1139.2 			"/>
			<polyline id="Path-15_1_" class="st1" points="735.3,1139.8 738.9,1036.4 738.9,1031.5 747.5,1020.6 752.3,1020.6 756,1024.2 
				768.1,1043.7 763.3,1046.1 770.6,1054.6 779.1,1065.6 793.7,1076.5 808.3,1082.6 934.8,1094.8 959.1,1096 968.8,1093.6 
				974.9,1091.1 985.9,1089.9 1024.8,1074.1 1034.5,1074.1 1071,1060.7 1082,1104.5 1092.9,1139.8 			"/>
			<polyline id="Path-16_1_" class="st1" points="1128.1,1139.8 1108.6,1070.5 1102.6,1049.8 1114.7,1043.7 1119.6,1043.7 
				1139,1027.9 1150,1015.7 1173.1,1008.4 1196.2,1010.9 1207.2,1006 1225.4,987.7 1260.7,985.3 1282.6,978 1294.7,971.9 
				1317.8,962.2 1334.9,961 1351.9,959.8 1365.3,952.5 1386,925.7 1395.7,922.1 1431,914.8 1449.2,892.9 1452.9,892.9 1484.5,861.2 
				1513.7,838.1 1514.9,833.3 1529.5,823.5 1541.7,822.3 1602.5,821.1 1612.2,818.7 1623.2,819.9 1629.2,821.1 1714.4,819.9 
				1759.4,818.7 			"/>
			<polyline id="Path-17_1_" class="st1" points="1760.1,805.3 1530.7,808.9 1527.1,810.2 1525.8,805.3 1529.5,800.4 1538,799.2 
				1760.1,795.6 			"/>
			<path id="Path-18_1_" class="st1" d="M1609.8,1139.4l150.8-54.7"/>
			<path id="Path-19_1_" class="st1" d="M1623.2,1139.4l137.4-48.7"/>
			<polyline id="Path-20_1_" class="st1" points="1760.1,788.3 1501.5,789.5 1497.9,791.9 1396.9,736 1401.8,726.2 1410.3,720.1 
				1415.2,725 1418.8,727.4 1434.6,711.6 1435.8,704.3 1465,675.1 1507.6,715.3 1499.1,723.8 1506.4,731.1 1569.6,666.6 
				1563.5,661.8 1513.7,712.8 1496.7,697 1493,697 1489.4,692.2 1479.6,686.1 1467.5,672.7 1551.4,587.6 1486.9,553.5 1461.4,541.3 
				1417.6,528 1415.2,532.8 1403,528 1396.9,524.3 1281.4,493.9 1250.9,498.8 1249.7,495.1 1246.2,495.1 1247.4,498.8 1224.3,503.6 
				1224.3,509.7 1219.4,509.7 1214.5,455 1277.8,463.5 1279,459.8 1243.7,450.1 1251,418.5 1410.4,463.5 1410.4,467.9 1502.8,494.7 
				1504,489.8 1515,493.5 1513.8,498.3 1760.7,566.5 			"/>
			<polyline id="Path-21_1_" class="st1" points="1760.7,694.2 1746.1,696.6 1747.3,702.7 1738.8,701.5 1738.8,695.8 1719.3,694.6 
				1715.7,698.3 1721.8,708 1723,714.1 1730.3,722.6 1741.2,722.6 1741.2,714.1 1747.3,714.1 1747.3,717.7 1755.8,717.7 
				1755.8,723.8 1760.1,723.8 			"/>
			<polyline id="Path-22_1_" class="st1" points="1761.8,550.6 1726.5,500.8 1684,502 1682.8,495.9 1688.8,494.7 1686.4,483.7 
				1393.3,398.6 1386,399.8 1379.9,404.7 1375,399.8 1345.8,404.7 1343.4,391.3 1439.5,373.1 1538,403.5 1645,431.4 1722.9,454.6 
				1761.8,457 			"/>
			<polyline id="Path-23_1_" class="st1" points="1760.1,506.1 1743.6,506.1 1743.6,510.9 1754.6,525.5 1760.7,536.5 			"/>
			<polygon id="Path-24_1_" class="st1" points="625.7,199.1 483.4,343.9 481,353.6 489.5,354.8 575.9,320.8 586.8,318.3 
				591.7,309.8 609.9,296.4 639.1,227.1 644,212.5 641.6,205.2 			"/>
			<polygon id="Path-25_1_" class="st1" points="353.4,633.4 391.1,560.4 398.4,562.8 394.7,554.3 416.6,511.7 416.6,504.4 
				447,454.6 459.2,458.2 450.7,449.7 492,367 577.2,332.9 580.8,325.6 588.1,322 589.3,328.1 594.2,341.4 512.7,553.1 507.8,590.8 
				500.5,595.6 495.7,594.4 358.2,641.9 			"/>
			<polygon id="Path-26_1_" class="st1" points="359.4,649.2 445.7,853.5 490.7,832.8 442.1,712.4 437.2,690.5 442.1,665 
				459.1,622.4 451.8,616.3 			"/>
			<polygon id="Path_10_" class="st1" points="499.3,826.8 447,700.3 447,685.7 449.4,661.3 472.6,609 496.9,600.5 505.4,598.1 
				504.2,604.2 490.8,622.4 488.4,638.2 510.3,723.4 518.8,741.6 534.6,747.7 545.5,780.5 546.8,807.3 539.5,809.7 			"/>
			<polygon id="Path_9_" class="st1" points="718.3,154.5 719.5,147.2 720.7,127.8 724.3,122.9 734.1,120.5 736.5,124.1 
				746.2,120.5 794.9,116.8 798.5,114.4 804.6,115.6 803.4,124.1 811.9,124.1 811.9,129 803.4,127.8 802.2,142.4 804.6,143.6 
				801,152.1 796.1,150.9 790,148.5 745,152.1 745,155.8 742.6,153.3 			"/>
			<polyline id="Path_8_" class="st1" points="726.7,167.9 725.5,177.7 723.1,222.7 726.7,223.9 752.2,249.4 755.9,249.4 
				757.1,243.3 760.8,214.1 759.5,208.1 762,200.8 760.8,193.5 763.2,187.4 762,164.3 754.7,165.5 749.8,163.1 745,163.1 745,166.7 
				736.4,166.7 735.2,163.1 734,166.7 			"/>
			<polygon id="Path_7_" class="st1" points="647.7,221.4 644.1,227.5 644.1,233.6 642.8,242.1 650.1,251.8 658.7,257.9 
				661.1,262.8 763.3,357.7 768.1,356.5 774.2,344.3 777.9,344.3 785.2,330.9 782.7,329.7 804.6,289.6 802.2,278.6 802.2,248.2 
				804.6,245.8 805.8,221.4 802.2,219 804.6,166.7 807.1,161.8 805.8,157 791.2,155.8 783.9,160.6 773,164.3 771.8,169.1 
				769.3,205.6 765.7,206.8 765.7,216.1 766.9,225.9 766.9,233.6 762.1,239.7 762.1,256.7 758.4,260.4 711,217.8 712.2,192.2 
				714.6,192.2 715.8,186.2 713.4,186.2 714.6,147.2 718.3,126.6 715.8,124.1 715.8,120.5 693.9,116.8 690.3,132.6 687.9,133.9 
				686.6,144.8 672,178.9 668.4,180.1 670.8,183.7 669.6,187.4 664.7,186.2 658.7,195.9 664.7,199.5 659.9,214.1 651.4,222.7 			"/>
			<polygon id="Path-27_1_" class="st1" points="659.8,270.9 557.6,533.6 681.7,491 687.8,488.6 692.6,489.8 762,367 			"/>
			<polygon id="Path-28_1_" class="st1" points="516.3,696.6 495.6,640.7 498,628.5 509,615.1 518.7,594.4 521.1,584.7 524.8,583.5 
				535.7,585.9 533.3,604.2 529.7,611.5 528.4,623.6 523.6,643.1 543,688.1 538.2,689.3 			"/>
			<polygon id="Path_6_" class="st1" points="556.4,537.7 547.9,559.6 541.8,577.8 585.6,562 620.9,548.6 625.7,548.6 662.2,534 
				668.3,535.3 691.4,493.9 687.8,492.7 652.5,506.1 648.9,506.1 613.6,519.4 609.9,519.4 			"/>
			<polygon id="Path-29_1_" class="st1" points="541.8,581.5 622.1,551.1 627,551.1 659.8,537.7 667.1,537.7 661,549.9 653.7,642.3 
				650.1,642.3 547.9,686.1 528.4,642.3 529.7,632.6 532.1,624.1 			"/>
			<polygon id="Path-30_1_" class="st1" points="549.1,689.7 554,689.7 650.1,645.9 653.7,645.9 650.1,739.6 648.9,742 644,740.8 
				584.4,774.9 572.2,744.5 569.8,737.2 			"/>
			<polygon id="Path-31_1_" class="st1" points="543.1,692.2 520,705.5 523.6,714.1 556.5,783.4 552.8,785.8 557.7,796.8 
				554.1,799.2 561.4,812.6 580.8,832 589.3,856.4 597.8,858.8 608.8,853.9 653.8,826 650.1,815 645.3,812.6 647.7,789.5 
				642.8,789.5 597.8,813.8 589.3,799.2 589.3,794.3 567.4,746.9 565,739.6 			"/>
			<polygon id="Path-32_1_" class="st1" points="585.6,777.3 645.2,745.7 648.9,745.7 646.4,784.6 601.4,808.9 592.9,796.8 
				594.1,791.9 			"/>
			<polygon id="Path-33_1_" class="st1" points="652.6,811.4 655,739.6 656.2,736 657.4,691 658.7,687.3 666,553.5 687.9,515.8 
				714.6,530.4 698.8,563.2 697.6,570.5 691.5,692.2 689.1,694.6 687.9,740.8 686.6,743.3 685.4,788.3 686.6,793.1 691.5,800.4 
				691.5,805.3 687.9,805.3 658.7,823.5 656.2,819.9 			"/>
			<polygon id="Path-34_1_" class="st1" points="689.1,510.5 691.5,514.2 715.8,526.3 752.3,461.9 756,457 788.8,395 792.5,392.5 
				770.6,373.1 770.6,370.6 768.1,368.2 765.7,371.8 			"/>
			<polygon id="Path-35_1_" class="st1" points="721.8,528.8 724.3,532.4 753.5,548.2 831.3,409.5 828.9,405.9 797.2,396.2 			"/>
			<polygon id="Path-36_1_" class="st1" points="769.3,366.2 771.8,368.6 774.2,366.2 797.3,388.1 803.4,391.7 829,400.2 
				832.6,403.9 835,402.7 869.1,414.8 872.7,417.3 877.6,417.3 878.8,412.4 881.3,413.6 886.1,407.5 886.1,402.7 889.8,399 
				898.3,392.9 897.1,391.7 905.6,375.9 911.7,369.8 933.6,334.6 899.5,298.1 897.1,298.1 888.6,290.8 870.3,283.5 866.6,283.5 
				848.3,289.6 843.5,289.6 819.1,292 810.6,298.1 796,318.7 788.7,332.1 786.4,332.1 779.1,345.5 780.3,346.7 			"/>
			<polygon id="Path-37_1_" class="st1" points="798.5,481.3 839.8,408.3 869,418.1 870.2,421.7 836.2,474 833.7,476.4 820.4,495.9 
							"/>
			<polygon id="Path-38_1_" class="st1" points="797.3,485.4 819.2,498.8 781.5,558.4 779.1,559.6 771.8,593.6 774.2,594.9 
				771.8,602.2 769.3,603.4 764.5,625.3 764.5,632.6 758.4,693.4 756,700.7 751.1,749.3 753.5,753 738.9,762.7 736.5,762.7 
				736.5,743.3 737.7,740.8 738.9,697 740.2,693.4 743.8,631.4 745,596.1 747.5,574.2 760.8,549.9 763.3,546.2 			"/>
			<polygon id="Path-39_1_" class="st1" points="730.4,782.2 730.4,743.3 731.6,740.8 732.9,697 734.1,693.4 736.5,632.6 
				738.9,630.1 738.9,598.5 741.4,592.4 740.2,574.2 752.3,552.3 720.7,534 704.9,563.2 702.5,576.6 701.2,627.7 697.6,689.7 
				696.4,693.4 693.9,740.8 692.7,743.3 691.5,783.4 692.7,790.7 696.4,795.6 696.4,800.4 701.2,800.4 			"/>
			<polygon id="Path-40_1_" class="st1" points="940.9,338.2 915.3,380.8 915.3,385.6 919,392.9 922.6,395.4 925,395.4 944.5,411.2 
				948.2,411.2 948.2,413.6 948.2,418.5 942.1,427 939.6,427 906.8,395.4 901.9,395.4 883.6,413.6 799.7,542.6 793.6,554.7 
				786.3,560.8 788.7,564.5 776.6,608.2 772.9,630.1 770.5,633.8 764.4,694.6 763.2,699.5 758.3,744.5 794.8,791.9 826.4,799.2 
				850.8,799.2 860.6,801.6 871.5,793.1 871.5,788.3 869.1,781 847.2,753 841.1,734.7 842.3,731.1 866.7,729.9 867.9,726.2 
				878.8,726.2 887.3,678.8 903.1,652 959.1,577.8 964,574.2 998,521.9 1000.5,517 1044.2,486.6 1041.8,481.7 1041.8,475.7 
				1045.5,472 1057.6,475.7 1077.1,442.8 1080.7,441.6 1086.8,425.8 			"/>
			<polygon id="Path-41_1_" class="st1" points="1063.7,480.1 1082,448.5 1094.1,430.2 1099,431.4 1196.3,448.5 1196.3,452.1 
				1198.7,454.6 1201.2,476.4 1201.2,491 1206,515.4 1202.4,525.1 1191.4,536 1207.2,551.9 1227.9,557.9 1227.9,551.9 1241.3,549.4 
				1243.7,578.6 1243.7,608.2 1237.6,631.4 1232.8,645.9 1234,649.6 1246.2,655.7 1244.9,660.5 1249.8,664.2 1240.1,671.5 
				1225.5,689.7 1210.9,705.5 1206,705.5 1192.6,723.8 1184.1,733.5 1180.5,732.3 1130.6,785.8 1118.4,799.2 1095.3,813.8 
				1082,818.7 1080.7,816.2 1027.2,833.3 1022.4,822.3 1018.7,819.9 1017.5,808.9 993.2,795.6 990.7,798 988.3,795.6 989.5,793.1 
				977.3,783.4 973.7,784.6 970,781 978.6,768.8 978.6,765.2 982.2,765.2 1000.5,737.2 1004.1,737.2 1016.3,717.7 1028.4,705.5 
				1069.8,732.3 1163.4,671.5 1130.6,641.1 1131.8,637.4 1148.9,624.1 1145.2,620.4 1152.5,615.5 1157.4,618 1169.5,615.5 
				1203.6,631.4 1207.2,628.9 1224.3,598.5 1227.9,577.8 1227.9,562 1204.8,554.7 1189,538.9 1178,542.6 1146.4,530.4 1141.6,538.9 
				1131.8,532.8 1137.9,525.5 1137.9,519 1106.3,504.4 			"/>
			<polygon id="Path-42_1_" class="st1" points="1085.6,509.7 1095.3,515.8 1086.8,529.2 1090.5,530.4 1091.7,528 1097.8,534 
				1095.3,536.5 1108.7,548.6 1101.4,558.4 1103.8,560.8 1111.1,552.3 1116,554.7 1106.3,568.1 1116,576.6 1125.7,565.7 
				1129.4,568.1 1119.7,579 1130.6,587.6 1139.1,577.8 1142.8,580.3 1134.3,592.4 1145.2,600.9 1153.7,591.2 1157.4,593.6 
				1147.6,604.6 1146.4,609.5 1150.1,611.9 1141.6,616.8 1139.1,615.5 1127,621.6 1119.7,627.7 1114.8,626.5 1114.8,622.8 
				1072.2,583.9 1068.6,583.9 1068.6,580.3 1062.5,562 1066.1,547.4 1060.1,542.6 1069.8,530.4 1073.4,529.2 1077.1,524.3 			"/>
			<polygon id="Path-43_1_" class="st1" points="1044.2,503.2 1051.5,498.3 1058.8,505.6 1066.1,516.6 1067.4,528.8 1056.4,539.7 
				1052.8,537.3 1046.7,564 1055.2,587.1 1057.6,589.6 1057.6,592 1101.4,632.1 1106.3,633.4 1106.3,638.2 1102.6,639.4 
				1085.6,651.6 1021.1,593.2 1016.3,592 			"/>
			<polygon id="Path-44_1_" class="st1" points="894.6,673.9 933.5,618 938.3,616.8 968.8,574.2 983.3,551.1 987,549.9 
				1000.4,526.7 1005.2,529.2 1006.5,536.5 1004,545 999.2,553.5 979.7,583.9 928.6,658.1 923.7,666.6 909.2,693.4 905.5,699.5 
				892.1,726.2 884.8,726.2 			"/>
			<polygon id="Path-45_1_" class="st1" points="1002.9,519.4 1011.4,512.1 1015.1,510.9 1045.5,487.8 1050.3,495.1 1043,500 
				1039.4,501.2 1039.4,503.6 1035.7,502.4 1016.3,562 1018.7,564.5 1017.5,570.5 1012.6,570.5 1005.3,598.5 1015.1,598.5 
				1016.3,594.9 1019.9,596.1 1045.5,620.4 1046.7,625.3 1041.8,639.9 1038.2,654.5 1030.9,665.4 1021.1,673.9 1015.1,676.4 
				1017.5,686.1 1024.8,704.3 1002.9,725 996.8,721.4 988.3,714.1 955.5,703.1 968.8,675.1 973.7,669.1 990.7,641.1 984.6,636.2 
				967.6,669.1 967.6,672.7 964,672.7 919,750.6 919,755.4 909.2,772.4 900.7,778.5 892.2,787 882.5,789.5 874,779.7 854.5,750.6 
				848.4,734.7 867.9,731.1 892.2,729.9 897.1,725 908,703.1 915.3,691 931.1,659.3 968.8,603.4 982.2,583.9 1004.1,551.1 
				1009,540.1 1009,532.8 			"/>
			<polygon id="Path-46_1_" class="st1" points="914,779.7 917.7,779.7 938.3,778.5 971.2,715.3 954.2,708 927.4,754.2 923.7,757.9 
							"/>
			<polygon id="Path-47_1_" class="st1" points="942.1,778.1 956.7,780.5 966.4,765.9 971.3,763.5 994.4,727 996.8,725.8 
				995.6,722.2 976.1,714.9 942.1,774.5 			"/>
			<polygon id="Path-48_1_" class="st1" points="1018.6,679.6 1024.7,694.2 1066.1,663.8 1069.7,665 1070.9,661.3 1081.9,654 
				1079.4,649.2 1049,623.6 1039.3,660.1 			"/>
			<polygon id="Path-49_1_" class="st1" points="1040.5,699 1051.5,714.9 1067.3,724.6 1092.8,708.8 1098.9,703.9 1140.3,675.9 
				1136.6,671.1 1142.7,666.2 1137.8,658.9 1140.3,657.7 1137.8,655.3 1135.4,656.5 1119.6,645.5 			"/>
			<polygon id="Path-50_1_" class="st1" points="736.5,766.4 736.5,777.3 808.3,845.4 855.7,856.4 916.5,869.8 917.7,868.5 
				944.5,857.6 946.9,858.8 956.7,857.6 957.9,855.2 1004.1,840.6 1004.1,830.8 1004.1,821.1 999.2,815 976.1,801.6 944.5,798 
				937.2,795.6 917.7,798 915.3,794.3 909.2,794.3 906.8,796.8 887.3,795.6 875.2,794.3 859.4,805.3 853.3,807.7 832.6,807.7 
				809.5,802.9 799.8,800.4 792.5,796.8 793.7,793.1 785.2,783.4 782.7,784.6 756,755.4 			"/>
			<polygon id="Path-51_1_" class="st1" points="701.2,802.9 732.8,784.6 736.4,787 807,852.7 911.6,875.8 910.4,878.3 911.6,909.9 
				914,912.3 910.4,912.3 906.7,912.3 825.2,894.1 788.7,886.8 			"/>
			<polygon id="Path-52_1_" class="st1" points="661,826.8 692.6,807.3 719.4,831.6 723.1,832.8 785.1,891.2 912.8,921.6 
				915.2,970.3 759.5,935 			"/>
			<polygon id="Path-53_1_" class="st1" points="619.7,851.5 652.6,830.8 680.6,858.8 686.6,863.7 689.1,869.8 753.5,939.1 
				736.5,965.8 736.5,969.5 683,929.4 680.6,933 736.5,976.8 765.7,1002.3 758.4,1012.1 756,1010.9 752.3,1015.7 749.9,1015.7 
				686.6,965.8 673.3,961 662.3,961 648.9,959.8 639.2,954.9 636.8,946.4 634.3,931.8 631.9,923.3 614.9,903.8 611.2,900.2 
				601.5,896.5 594.2,889.2 591.8,879.5 593,868.5 599.1,862.5 614.9,855.2 627,866.1 			"/>
			<polygon id="Path-54_1_" class="st1" points="738.9,969.5 738.9,973.1 740.2,975.6 742.6,975.6 798.5,1020.6 821.7,1024.2 
				824.1,1021.8 917.7,1032.7 917.7,1029.1 915.3,981.7 831.4,959.8 758.4,944 757.2,940.3 753.5,944 741.4,969.5 			"/>
			<polygon id="Path-55_1_" class="st1" points="916.5,873.4 914.1,878.3 917.7,908.7 917.7,912.3 921.4,913.5 954.2,901.4 
				957.9,902.6 967.6,900.2 968.8,896.5 1010.2,883.1 1017.5,883.1 1009,852.7 1007.8,846.6 1005.3,846.6 959.1,861.2 956.7,860 
				948.2,862.5 945.7,864.9 920.2,874.6 			"/>
			<polygon id="Path-56_1_" class="st1" points="916.5,919.6 922.6,919.6 956.7,908.7 957.9,905 967.6,902.6 973.7,903.8 
				1016.3,888 1021.1,889.2 1028.4,909.9 1034.5,936.7 1029.6,936.7 982.1,952.5 980.9,954.9 970,956.1 967.6,956.1 922.6,970.7 
				919,970.7 919,963.4 			"/>
			<polygon id="Path-57_1_" class="st1" points="919,975.6 923.8,976.8 970,962.2 970,959.8 981,956.1 983.4,957.3 1035.7,941.5 
				1040.6,944 1043,948.8 1040.6,951.3 1041.8,956.1 1045.5,954.9 1045.5,947.6 1055.2,942.7 1062.5,962.2 1050.3,965.8 
				1046.7,958.6 1044.2,959.8 1046.7,971.9 1046.7,975.6 1043,975.6 1017.5,984.1 1018.7,989 1044.2,979.2 1049.1,979.2 
				1062.5,1015.7 1062.5,1021.8 1068.6,1041.3 1071,1053.4 1033.3,1065.6 1029.6,1068 1022.4,1069.2 984.6,1083.8 972.5,1083.8 
				959.1,1088.7 839.9,1077.8 810.7,1074.1 802.2,1071.7 787.6,1061.9 775.4,1051 757.2,1018.2 766.9,1004.8 769.3,1004.8 
				783.9,1015.7 796.1,1025.4 810.7,1026.7 821.7,1029.1 920.2,1038.8 922.6,1032.7 920.2,1030.3 921.4,1026.7 			"/>
			<polygon id="Path-59_1_" class="st1" points="1032.1,839.3 1043,874.6 1100.2,856.4 1109.9,853.9 1161,836.9 1172,835.7 
				1202.4,851.5 1204.8,855.2 1289.9,901.4 1294.8,905 1311.8,913.5 1319.1,914.8 1352,898.9 1361.7,896.5 1367.8,891.7 
				1394.6,872.2 1411.6,850.3 1415.2,841.8 1410.4,832 1406.7,830.8 1403.1,829.6 1377.5,816.2 1378.7,813.8 1373.9,811.4 
				1372.7,813.8 1360.5,806.5 1361.7,804.1 1358.1,801.6 1356.8,804.1 1260.8,751.8 1254.7,749.3 1207.2,722.6 1201.2,728.7 
				1192.6,728.7 1172,753 1142.8,787 1140.3,787 1131.8,794.3 1133,795.6 1124.5,806.5 1118.4,810.2 1120.9,812.6 1124.5,812.6 
				1130.6,816.2 1137.9,817.5 1151.3,827.2 1151.3,829.6 1140.3,826 1136.7,822.3 1128.2,818.7 1120.9,817.5 1116,812.6 1099,818.7 
				1090.5,819.9 1083.2,821.1 			"/>
			<polygon id="Path-60_1_" class="st1" points="1254.7,545 1277.8,600.9 1308.2,590 1320.4,602.2 1300.9,620.4 1297.2,618 
				1288.7,624.1 1293.6,635 1272.9,645.9 1282.7,665.4 1280.2,667.8 1292.4,676.4 1296,678.8 1331.3,698.3 1338.6,686.1 1369,653.2 
				1378.7,643.5 1388.5,643.5 1449.3,580.3 1449.3,576.6 1444.4,571.8 1446.9,558.4 1442,553.5 1412.8,547.4 1405.5,547.4 
				1280.2,514.6 			"/>
			<polygon id="Path-61_1_" class="st1" points="1334.9,699 1394.5,733.1 1405.4,718.5 1403,717.3 1407.9,710 1411.5,713.6 
				1438.3,685.7 1448,673.5 1433.4,654 1435.8,651.6 1450.4,662.5 1472.3,640.7 1476,643.1 1480.8,638.2 1479.6,637 1511.2,600.5 
				1507.6,589.6 1460.2,578.6 1398.1,641.9 1389.6,650.4 1382.3,649.2 1378.7,650.4 1377.4,654 1378.7,661.3 1355.6,686.9 
				1345.8,684.4 1339.7,689.3 			"/>
			<polygon id="Path-62_1_" class="st1" points="1212,708 1225.4,693.4 1229.1,693.4 1244.9,677.6 1243.6,675.1 1253.4,665.4 
				1254.6,667.8 1268,673.9 1291.1,694.6 1288.7,698.3 1306.9,708 1309.3,703.1 1362.9,736 1361.6,739.6 1373.8,745.7 1377.4,749.3 
				1370.1,770 1368.9,772.4 1366.5,771.2 1360.4,782.2 1362.9,783.4 1359.2,788.3 1355.6,787 1342.2,785.8 1300.8,762.7 
				1231.5,723.8 1216.9,712.8 			"/>
			<polygon id="Path-63_1_" class="st1" points="1362.9,790.7 1366.6,784.6 1367.8,785.8 1373.9,776.1 1372.7,773.7 1388.5,755.4 
				1395.7,755.4 1403,761.5 1460.2,793.1 1472.3,793.1 1477.2,791.9 1491.8,798 1495.4,801.6 1516.1,802.9 1519.8,807.7 
				1522.2,807.7 1523.4,811.4 1512.5,822.3 1484.5,847.9 1427.3,905 1420,907.5 1383.5,918.4 1377.4,925.7 1370.1,934.2 
				1361.6,946.4 1353.1,951.3 1323.9,954.9 1314.2,953.7 1296,961 1292.3,964.6 1268,973.1 1231.5,981.7 1223,981.7 1209.7,995 
				1198.7,1002.3 1195.1,1003.6 1178,1003.6 1167.1,998.7 1164.7,1001.1 1144,1007.2 1123.3,1031.5 1106.3,1040 1096.5,1041.3 
				1092.9,1038.8 1084.4,1012.1 1084.4,1008.4 1062.5,941.5 1061.3,934.2 1080.7,929.4 1082,933 1091.7,965.8 1279,905 
				1310.6,923.3 1316.7,922.1 1358.1,903.8 1358.1,901.4 1364.1,901.4 1394.6,878.3 1422.5,851.5 1425,845.4 1414,827.2 
				1372.7,802.9 			"/>
			<polygon id="Path-64_1_" class="st1" points="1045.5,880.7 1051.5,906.2 1051.5,909.9 1058.8,929.4 1064.9,929.4 1187.8,890.4 
				1192.6,891.7 1204.8,885.6 1210.9,885.6 1210.9,879.5 1215.8,872.2 1214.5,868.5 1170.7,844.2 1167.1,844.2 1114.8,860 
				1109.9,857.6 			"/>
			<polygon id="Path-65_1_" class="st1" points="1085.6,927.7 1085.6,931.4 1095.3,956.9 1097.8,958.1 1269.3,903.4 1270.5,901 
				1237.6,882.7 1214.5,888.8 1212.1,887.6 1207.2,888.8 1207.2,891.2 1133,914.3 1130.6,913.1 			"/>
			<polygon id="Path-58_1_" class="st1" points="596.5,321.2 603.8,340.6 519.9,555.9 513.8,580.3 530.9,582.7 538.2,579 
				540.6,566.9 657.4,265.2 654.9,261.6 650.1,256.7 635.5,256.7 633,264 614.8,313.9 			"/>
		</g>
	</g>
	<circle class="st0" cx="523.8" cy="979.3" r="4.9"/>
	<circle class="st2" cx="622.7" cy="939.5" r="7.6"/>
	<rect x="376.4" y="919.2" class="st3" width="271.2" height="35.3"/>
	<text transform="matrix(1 0 0 1 376.4409 947.98)" class="st2 st4 st5">Rijksmuseum</text>
	<circle class="st0" cx="705.1" cy="622.9" r="4.9"/>
	<circle class="st0" cx="588.3" cy="453.9" r="4.9"/>
	<circle class="st0" cx="927.7" cy="642.4" r="4.9"/>
	<text transform="matrix(0.9769 -0.2139 0.2139 0.9769 1106.6357 148.1253)" class="st0 st6 st7 st8">AMSTERDAM</text>
	<circle class="st0" cx="952" cy="777.4" r="4.9"/>
	<rect x="966.3" y="773" class="st3" width="124" height="43.3"/>
	<text transform="matrix(1 0 0 1 966.291 787.4707)"><tspan x="0" y="0" class="st9 st10">Hermitage </tspan><tspan x="0" y="23.4" class="st9 st10">Amsterdam</tspan></text>
	<rect x="935.6" y="633.9" class="st0" width="85.9" height="19.7"/>
	<rect x="720.6" y="618.5" class="st3" width="109.8" height="43.3"/>
	<text transform="matrix(1 0 0 1 720.5869 632.9937)"><tspan x="0" y="0" class="st9 st10">Amsterdam</tspan><tspan x="0" y="23.4" class="st9 st10">Museum</tspan></text>
	<rect x="596.9" y="443.7" class="st0" width="108.2" height="23.9"/>
	<rect x="596.9" y="467.6" class="st0" width="65.6" height="23.9"/>
	<rect x="601.4" y="448.2" class="st3" width="103.7" height="43.3"/>
	<text transform="matrix(1 0 0 1 601.3848 462.7041)"><tspan x="0" y="0" class="st9 st10">Anne Frank</tspan><tspan x="0" y="23.4" class="st9 st10">House</tspan></text>
	<circle class="st0" cx="484.9" cy="1028" r="4.9"/>
	<g>
		<rect x="501.6" y="1022.4" class="st3" width="90" height="50.5"/>
		<text transform="matrix(1 0 0 1 501.6436 1036.8228)"><tspan x="0" y="0" class="st9 st10">Stedelijk </tspan><tspan x="0" y="23.4" class="st9 st10">Museum</tspan></text>
	</g>
	<rect x="935.6" y="633.5" class="st0" width="106" height="23.9"/>
	<rect x="935.6" y="657.4" class="st0" width="65.4" height="23.9"/>
	<rect x="935.6" y="681.3" class="st0" width="85.9" height="23.9"/>
	<g>
		<rect x="938.8" y="638.5" class="st3" width="122" height="68.1"/>
		<text transform="matrix(1 0 0 1 938.8491 652.937)"><tspan x="0" y="0" class="st9 st10">Rembrandt </tspan><tspan x="0" y="23.4" class="st9 st10">House </tspan><tspan x="0" y="46.7" class="st9 st10">Museum</tspan></text>
	</g>
	<rect x="536.1" y="968" class="st0" width="96.4" height="23.9"/>
	<rect x="536.1" y="991.9" class="st0" width="83.9" height="23.9"/>
	<rect x="540.6" y="972.5" class="st3" width="88" height="42.3"/>
	<text transform="matrix(1 0 0 1 540.5669 986.9521)"><tspan x="0" y="0" class="st9 st10">Van Gogh </tspan><tspan x="0" y="23.4" class="st9 st10">Museum</tspan></text>
</g>
<path id="path0" class="st3" d="M146.2,736.7c10.5-17.1,21.1-35.4,31.6-54.7c12.1-22.4,12.3-26.5,23.1-45
	c16.4-28.1,19.4-26.4,26.8-43.8c7-16.5,8.2-27.4,15.8-29.2c7.9-1.9,16.4,7.5,19.5,10.9c10.2,11.3,10.3,22.1,17,42.6
	c1.5,4.4,5.4,13.5,13.4,31.6c14.4,32.9,17,34.8,29.2,63.3c6.9,16.2,13,31.7,15.8,38.9c5.3,13.7,3.9,23.4,9.7,25.5
	c5,1.8,8.4-3.7,24.3-12.2c8.2-4.4,6.6-2.6,28-12.2c14.8-6.7,22.2-10,25.5-12.2c6-4,10.6-7.9,19.5-10.9c8.3-2.8,11.8-1.9,13.4-1.2
	c4,1.6,4.5,4.5,9.7,10.9c5.8,7.2,7.5,6.5,12.2,12.2c6.3,7.7,8.7,15.7,9.7,19.5c3.7,13.3-1.1,15.2,2.4,26.8
	c0.8,2.7,4.4,14.1,14.6,21.9c5.2,4,6.7,2.9,14.6,8.5c7,5,11.1,8,13.4,13.4c2,4.9,0,5.6,2.4,17c1.4,6.6,2.7,9.3,3.6,10.9
	c1,1.7,3.2,5.7,7.3,8.5c4.2,2.9,7,2.2,18.2,3.6c8.2,1.1,12.9,1.7,18.2,3.6c4.5,1.7,7.9,3.7,14.6,8.5c12,8.6,18,13,25.5,20.7
	c12.4,12.7,15,20.3,23.1,20.7c3,0.1,6-0.7,9.7,1.2c1.1,0.6,2.6,1.6,7.3,8.5c2.5,3.7,4.6,6.9,7.3,12.2c2.8,5.5,4.3,9.5,4.9,10.9
	c5.2,12.7,21,24.6,36.5,29.2c5.6,1.7,4.9,0.5,24.3,2.4c17.5,1.7,21,3,36.5,4.9c31.2,3.8,27.7,0.1,51.1,3.6c21,3.2,29.1,6.9,40.1,2.4
	c4.6-1.9,8.8-4.8,17-6.1c5.9-0.9,9.4-0.3,15.8-2.4c4.1-1.4,5.1-2.5,9.7-4.9c3.9-2,7.5-3.4,20.7-7.3c10.6-3.1,18.6-5.2,21.9-6.1
	c22.4-6,33.7-8.9,35.3-10.9c12.9-15.9-14.9-54.7-15.8-88.8c0-1.6-0.1-5.7-1.2-10.9c-3.1-14.5-11.3-23.8-14.6-28
	c-13.1-16.4-17.5-36-21.9-56c-6.4-28.9,0.3-36.6-9.7-48.7c-2.2-2.6-11.6-8.7-30.4-20.7c-18.2-11.6-23.8-14.9-24.3-20.7
	c-0.5-5.8,5.3-6.4,15.8-19.5c11.3-14.1,10.8-20.8,23.1-32.8c3.8-3.7,3.7-2.9,9.7-8.5c10.5-9.7,17-17.8,19.5-20.7
	c15.1-17.8,39.4-30.9,60.8-42.6c18.6-10.1,24.9-11.4,25.5-17c1.2-10.8-21-14.7-43.8-41.4c-7.8-9.2-24-28.1-19.5-46.2
	c1-4.1,3.9-8.8,9.7-18.2c11.4-18.5,16-19.4,15.8-25.5c-0.3-13-20.9-16.6-20.7-29.2c0.1-6.4,5.5-9.5,12.2-17
	c14.7-16.7,16.5-34,19.5-41.4c13.5-33.7,116.6-21.8,209.2-37.7c82.3-14.1,64.8-34.6,161.8-53.5c101-19.7,96.4,7,188.5-12.2
	c23.4-4.9,69.3-16.1,98.5,8.5c5.3,4.4,8.8,9,10.9,12.2"/>
<path id="path1" class="st3" d="M144.9,124.8c69.7-2.5,126-4,165.4-4.9c120.8-2.7,108-0.4,127.7-2.4c41-4.2,55.4-9.8,77.8-1.2
	c9.1,3.5,26.1,11.8,36.5,4.9c2.8-1.9,9.7-7.9,14.6-15.8c0.2-0.4,0.3-0.4,3.6-6.1c6.1-10.2,6.8-11.4,7.3-12.2
	c6.1-10.5,8-23.5,8.5-26.8c2.1-14.6-1-19.8,3.6-24.3c3.1-3,7.2-3.2,14.6-3.6c6.3-0.4,18.8-1.1,21.9,4.9c1.9,3.7-1.5,6.9-3.6,15.8
	c-1,4.1-1.1,7.2,0,23.1c1.9,28.4,2.8,26.1,2.4,32.8c-0.9,16.2-5.4,18.8-2.4,26.8c2.7,7.1,6.7,6,18.2,18.2
	c10.8,11.4,13.9,19.2,18.2,18.2c3-0.7,4.5-5,6.1-9.7c2.8-8.4,2.4-15.1,2.4-20.7c0-11.6,1.6-9.3,2.4-25.5c1.2-23.1-2-29.2,3.6-36.5
	c4.1-5.4,10-7.4,13.4-8.5c7.7-2.6,18.8-3.3,25.5,1.2c8,5.3,7.4,15.9,7.3,51.1c-0.2,52.3,1,58.1-3.6,73c-3,9.7-7.3,18.2-15.8,35.3
	c-10.1,20.2-18.9,34.5-23.1,41.4c-27.1,44.3-23,42.8-52.3,91.2c-20.2,33.4-42.9,68.5-40.1,70.5c0.8,0.6,2.7-2.4,7.3-3.6
	c10.9-3,26.5,6.1,29.2,17c1.8,7.4-3.2,12.3-8.5,23.1c-5.6,11.2-7.4,22.5-10.9,45c-5.3,33.1,3.6,40.5,2.4,76.6
	c-1.6,46.3-16.7,48.4-12.2,83.9c1.2,9.6,4.8,35.4,23.1,58.4c10.2,12.8,12.9,9.6,35.3,31.6c22.6,22.2,24.1,29.7,38.9,37.7
	c9.8,5.3,12.4,3.9,40.1,9.7c47.3,10,47.6,15.8,71.8,17c23.7,1.2,43.2-3.5,53.5-6.1c17.6-4.4,16.7-6.6,38.9-13.4
	c35.1-10.7,39.9-5.9,64.5-15.8c21.4-8.6,18.4-12.6,38.9-19.5c19.6-6.6,22.2-3,47.4-10.9c16.3-5.1,20.7-8.4,30.4-7.3
	c8.4,0.9,15,5.1,28,13.4c21.5,13.8,32.3,20.6,34.1,21.9c26.3,18.9,51,36.7,80.3,37.7c34.3,1.2,59.9-21.3,82.7-41.4
	c11.3-9.9,23.1-20.5,20.7-30.4c-2.9-11.8-23-10-41.4-30.4c-5.6-6.2-15.1-16.7-13.4-29.2c1.8-13.2,15.4-23.6,28-26.8
	c18.4-4.7,30.9,6.9,59.6,19.5c25.8,11.2,46.3,15.2,68.1,19.5c40.1,7.8,72.8,5.6,99.7,3.6c37-2.7,43.9-7.5,83.9-9.7
	c25.8-1.4,47-0.8,60.8,0"/>
<path id="path2" class="st3" d="M143.7,863.2c11.7-5.3,23.9-10.6,36.5-15.8c23.8-9.7,34.5-13,58.4-21.9c7.7-2.8,38-14.2,75.4-30.4
	c58.1-25.2,38.2-20.9,58.4-28c10.9-3.8,30.4-9.8,30.4-18.2c0-1.8-0.9-3.1-1.2-3.6c-7.6-11.9-10.6-26.3-17-38.9
	c-2.2-4.3,0.2,0.2-18.2-41.4c-12.6-28.4-14.3-31.9-15.8-40.1c-1-5.8-3.3-19.1,0-35.3c2.4-12,5.2-12.1,12.2-34.1
	c5.7-17.8,4.4-19.7,8.5-24.3c8.3-9.4,22.7-12.8,30.4-14.6c9.2-2.1,17.4-2.4,20.7-8.5c1.6-3.1,1.2-5.9,3.6-7.3
	c3.2-1.7,6.4,1.7,12.2,1.2c3.9-0.3,6.4-2.3,8.5-3.6c7.5-4.9,10.5-3.6,34.1-12.2c6.1-2.2,4.1-1.6,21.9-8.5
	c6.3-2.4,17.6-10.4,25.5-9.7c0.5,0,1.8,0.2,3.6,0c4.3-0.4,7.1-2.2,9.7-3.6c6.8-3.7,6.9-1.7,15.8-6.1c5.2-2.5,5.8-3.5,8.5-3.6
	c4.6-0.3,6.5,2.2,9.7,1.2c2.2-0.7,3.4-2.4,6.1-7.3c5.6-10.2,4.5-13,7.3-14.6c2.2-1.3,5.3-1,19.5,6.1c7.6,3.8,11.4,5.7,15.8,8.5
	c21.3,13.4,33.1,10.5,35.3,18.2c1,3.6-1.1,4.8-4.9,15.8c0,0-3.4,9.9-6.1,25.5c-2.4,14.4-0.4,21.2,0,36.5c0.4,14.3-1.3,12.1-4.9,48.7
	c-3.6,36.9-0.8,28.4-3.6,54.7c-2,18.4-4.6,33.5,0,35.3c1.7,0.7,5.2-1.6,12.2-6.1c8.4-5.4,9.4-7.3,12.2-7.3
	c5.7-0.1,9.3,7.7,14.6,15.8c5.1,7.8,13.7,21,25.5,28c7.6,4.4,7,0.8,45,7.3c2.3,0.4,7.2,1.2,13.4,0c1-0.2,16.2-3.4,18.2-12.2
	c0.6-2.7-0.2-4.8-8.5-17c-6.2-9.2-11.8-18.9-18.2-28c-3.4-4.8-6.2-8.4-4.9-10.9c1.1-2.2,4.6-2.2,9.7-2.4c25-1,27.9-3,29.2-4.9
	c1.6-2.4-0.2-3.4,0-10.9c0.2-7.5,2.2-10.8,4.9-20.7c2.7-10.1,2.1-12.4,3.6-18.2c3.4-13.1,11.2-20.9,19.5-30.4
	c5.8-6.6,14-17.8,30.4-40.1c15-20.5,15.1-23.2,38.9-57.2c10.7-15.3,16.1-22.9,19.5-26.8c21.7-24.5,38.6-27.9,54.7-41.4
	c33.2-27.8,17.4-60.8,38.9-83.9c30.9-33.2,98.6-3.1,240.8,30.4c127.4,30,120.9,17.2,209.2,42.6c91.7,26.4,165.2,59.4,217.7,86.4"/>
<path id="path3" class="st3" d="M146.2,739.1c13.4-22.6,26.8-45.7,40.1-69.3c20.4-36.1,26.6-48.6,49.9-91.2
	c48.1-88.2,49.2-85.7,76.6-138.7c39.3-75.9,31.5-70.1,42.6-83.9c15.7-19.5,22.4-44.7,34.1-66.9c0.6-1.1,2.2-4.2,1.2-7.3
	c-1.1-3.4-4.7-3.9-6.1-6.1c-4.6-6.8,12.2-24.3,12.2-24.3c27.3-28.6,41-42.9,53.5-54.7c12.9-12.3,22.8-22.8,42.6-43.8
	c12-12.7,28.5-22.1,36.5-37.7c0.1-0.2,0.5-0.9,1.2-1.2c1.8-0.7,4.2,1.8,4.9,2.4c6.1,5.8,20.7,2.3,23.1,7.3
	c2.1,4.5-8.3,9.3-12.2,24.3c-1,3.7-2.3,9.1,0,14.6c2.2,5.3,6.3,7.3,10.9,10.9c8.1,6.2,10.2,11,17,19.5c9.3,11.4,17.9,18,41.4,38.9
	c23.6,21.1,35.4,31.6,47.4,43.8c18.2,18.3,25.3,27.7,41.4,35.3c12.5,6,25.5,9.7,25.5,9.7c13.3,3.9,14.9,2.5,24.3,6.1
	c15.9,6,18.1,12.4,25.5,10.9c2.7-0.5,4.6-1.8,17-15.8c8-9.1,12-13.6,14.6-17c13.5-17.8,13-24.4,23.1-37.7
	c4.9-6.4,12.7-16.7,23.1-21.9c37.9-18.9,102.5,34.2,128.9,56c8.7,7.1,12,12.3,21.9,19.5c8.5,6.2,32.4,23.6,66.9,30.4
	c19.8,3.9,34.6,2.6,37.7,10.9c1.5,4-1.2,6.6-2.4,14.6c-1.6,10,1.1,15.5,4.9,30.4c7.8,30.8,3,33.6,9.7,41.4
	c8.5,9.9,16.1,5.3,25.5,15.8c9,10,10,22.8,10.9,34.1c1.6,19.2-4,21-3.6,43.8c0.2,13.4,0.5,26.2,8.5,37.7
	c6.4,9.2,14.8,13.5,19.5,15.8c23.3,11.9,44.9,26.8,68.1,38.9c35.9,18.7,66.5,37.6,70.5,40.1c33.9,21,35.1,24.6,48.7,28
	c24.2,6.1,44.6,0.8,52.3,13.4c5,8.2,0.2,16.4,6.1,20.7c6,4.3,13.8-2.1,29.2-4.9c14.7-2.6,19.4,1.1,40.1,2.4
	c16.8,1.1,18.3-1.1,45-2.4c39.8-2,50.9,2.1,98.5,0c9-0.4,16.3-0.9,20.7-1.2"/>
<path id="path4" class="st3" d="M144.9,127.3c44.4-1.3,80.5-2.7,104.6-3.6c80.7-3.3,161.6-1.2,242.1-7.3c17.8-1.4,36,4.4,53.5,1.2
	c1.7-0.3,6.2-1.2,8.5,1.2c3.2,3.3,0.4,10.4-3.6,23.1c-5.1,16.2-10,21.4-7.3,25.5c2.1,3.2,5.8,1.8,12.2,4.9
	c8,3.9,11.4,10.8,14.6,15.8c6.7,10.4,10.7,9.5,30.4,26.8c21.1,18.4,15,18,32.8,32.8c12,9.9,21.5,23.2,35.3,30.4
	c0.7,0.4,2.8,1.4,3.6,3.6c1.6,4.4-3.6,9.7-7.3,14.6c-5,6.7-4.2,8.5-10.9,23.1c-1.6,3.4-4.4,9.2-24.3,43.8
	c-17.7,30.7-26.6,46.1-26.8,46.2c0,0-8.3,7.8-10.9,19.5c-0.1,0.6-0.3,1.5,0,2.4c1,3.5,6.1,3,13.4,6.1c9.2,3.9,10.2,8.4,17,9.7
	c0.6,0.1,1.8,0.3,2.4,1.2c1.7,2.3-1.3,7.1-3.6,10.9c-11.4,18.2-12.2,18.5-13.4,21.9c-1.4,3.9-0.8,4.8-1.2,19.5
	c-0.2,8.1-0.8,16.2-1.2,24.3c-0.6,13.2-1.2,22.6-2.4,41.4c-2.1,32.8-3.2,49.2-4.9,63.3c0,0-6.7,56.2-2.4,74.2
	c0.7,3.1,2.3,5.5,3.6,12.2c0.6,3,0.8,5.4,2.4,6.1c1.9,0.8,4.3-1.1,6.1-2.4c9-6.7,7.9-3.3,18.2-10.9c4.2-3.1,9.1-5.4,13.4-8.5
	c0.6-0.5,2.1-1.5,3.6-1.2c2.3,0.4,3.1,3.3,4.9,6.1c2.4,3.7,5.3,5,8.5,7.3c5.3,3.7,7.4,6.9,25.5,24.3c23.2,22.3,24.3,21.4,26.8,25.5
	c0.6,1,2.4,4.2,6.1,6.1c3.7,1.9,7.4,1.3,8.5,1.2c8.9-1,20,4.9,53.5,13.4c6.7,1.7,17.6,4.4,31.6,6.1c8.9,1.1,13.9,1.2,19.5,0
	c7.3-1.5,10-4,18.2-7.3c5.6-2.2,8.6-2.8,23.1-6.1c37.3-8.4,46-10.9,52.3-19.5c2-2.8,3.4-4.5,3.6-7.3c1.6-15.6-32.4-33.9-60.8-40.1
	c-20.3-4.5-36.7-8.1-56-2.4c-8.3,2.4-21.5,7.9-26.8,2.4c-1.9-2-1.1-3.5-2.4-8.5c-1.8-6.6-6.5-12.2-15.8-23.1
	c-3.8-4.5-7.7-8.7-10.9-15.8c-1.8-3.9-2.4-6.6-1.2-8.5c1.3-2.1,4.2-2.2,8.5-2.4c15.6-1,10.2-2,23.1-2.4c5.5-0.2,9.1-0.1,13.4-2.4
	c1.7-0.9,3.2-2,4.9-3.6c6.3-6.2,8.5-13.5,10.9-19.5c3.5-8.6,3.8-5.3,10.9-19.5c6.6-13.1,7-17.1,13.4-26.8c2.5-3.7,2.7-3.5,7.3-9.7
	c7.9-10.6,12.2-18,17-25.5c3.6-5.6,1.7-2.3,21.9-31.6c8-11.6,13.5-25,23.1-35.3c1.4-1.5,7-7.3,8.5-15.8c0.5-2.5,0.8-4.7,0-7.3
	c-1.8-5.6-7.6-7.2-7.3-10.9c0.1-1.4,1.1-2.4,2.4-3.6c6.3-5.8,12.7-9.4,13.4-9.7c7.2-4,6.4-6,14.6-12.2c9.7-7.2,13.4-6.3,20.7-10.9
	c12.6-8.1,11.7-17.5,25.5-37.7c0,0,6.1-9,19.5-23.1c35.5-37.6,159-21,187.3-17c46.1,6.5,83.5,13.9,126.5,23.1
	c119.8,25.7,180.9,39.1,238.4,65.7c30.3,14,68.7,34.7,110.7,65.7"/>
<path id="path5" class="st3" d="M144.9,860.7c61.6-18.1,108.7-38.1,141.1-53.5c31.7-15.1,47.6-22.6,62-30.4
	c0,0,89.5-48.3,105.8-47.4c0.4,0,2.8,0.2,4.9-1.2c0.5-0.3,2.4-1.8,2.4-3.6c0.1-2.5-3-3.3-4.9-6.1c-2.5-3.8-0.3-7.8,0-13.4
	c0.3-5.2-1.3-8.4-4.9-17c-9.2-22.2-6.8-20.7-12.2-31.6c-7.7-15.8-10.1-13.6-18.2-29.2c-3.1-5.9-6.5-15.7-13.4-35.3
	c-7.9-22.6-9.2-28.6-8.5-36.5c0.4-3.9,1-10.7,4.9-18.2c5.1-9.9,10.1-10,13.4-19.5c2.6-7.5,1-12.1,4.9-14.6c1.4-0.9,2-0.5,10.9-1.2
	c7.7-0.6,9.5-1,10.9-2.4c2-1.9,2-4.4,2.4-7.3c1.8-12.6,8.1-12.7,9.7-24.3c1-6.9-0.7-11,2.4-13.4c1.7-1.3,3.3-1,6.1-1.2
	c5.7-0.4,7.9-2.3,17-6.1c0.5-0.2,6-2.2,17-6.1c5-1.8,15.9-5.7,24.3-8.5c39.6-13.5,37.4-9,46.2-14.6c0,0,14.9-9.5,23.1-8.5
	c0.4,0,2.3,0.3,4.9,0c1.3-0.2,4.9-0.6,7.3-2.4c3.2-2.5,3.5-7.1,3.6-8.5c0.7-7.3,5.8-13.5,23.1-43.8c10.2-17.9,6.9-13,19.5-35.3
	c7.2-12.8,16.6-29.3,29.2-49.9c14.9-24.3,13.4-20.1,18.2-29.2c12.4-23.3,12.2-32,21.9-36.5c8.5-4,10.9,1.7,30.4-2.4
	c4.6-1,10.1-2.5,18.2-2.4c0.9,0,6.2,0.1,12.2,1.2c17.6,3.4,30.7,14.4,35.3,18.2c11.5,9.8,6.4,10.5,20.7,24.3
	c2.6,2.5,5.7,5.4,6.1,9.7c0.4,5.5-4,9.2-8.5,14.6c-9.4,11.3-6.6,15.2-15.8,29.2c-5.7,8.7-9.6,11.5-18.2,20.7
	c-10.2,10.8-19.8,24.2-38.9,51.1c-6.8,9.6-12.7,18.2-24.3,35.3c0,0-11.1,16.3-34.1,52.3c-7.5,11.8-11.8,18.7-15.8,29.2
	c-2.1,5.5-4,11.6-7.3,28c-2.8,13.6-5,24.6-7.3,42.6c-6.3,49.8,0.5,47.2-6.1,68.1c-4.1,13-9.4,22.4-6.1,35.3c2,8,6.8,15.1,9.7,19.5
	c4,6,8,10.2,15.8,18.2c9.4,9.8,14.2,14.6,18.2,17c8.5,5,16.4,5.9,28,7.3c10.3,1.2,17.1,0.7,25.5,0c12.4-1,16.6-2.8,19.5-6.1
	c0.7-0.8,3.4-4,3.6-8.5c0.4-6.3-4.3-9.3-15.8-23.1c-0.7-0.8-7.8-9.5-13.4-21.9c-1.4-3.1-2.6-6.3-1.2-8.5c1.6-2.6,5.7-2.2,13.4-2.4
	c13.7-0.4,21.4-0.7,24.3-4.9c1.8-2.5,0.2-4.3,0-10.9c-0.3-7.3,1.4-9.4,7.3-30.4c4-14.4,3.4-13.8,4.9-17c4-8.5,7.8-10.4,14.6-19.5
	c8.1-10.7,5.6-11.9,13.4-23.1c6.9-10,10.2-11.1,21.9-24.3c7-7.9,11.3-13.8,18.2-23.1c11.5-15.6,12.9-19.4,29.2-42.6
	c11.4-16.2,14.8-20.1,19.5-24.3c6.4-5.8,10.1-7.5,21.9-15.8c0,0,12.8-9,25.5-19.5c26.4-21.6,21.1-48.6,38.9-65.7
	c21.7-20.8,55.2-5.4,103.4-3.6c52.5,1.9,68.5-14.5,143.5-35.3c43.3-12,131.4-36.5,221.4-29.2c43.2,3.5,113.7,16.5,195.8,68.1"/>
<path id="path6" class="st3" d="M146.2,127.3c76.2-3.4,152.4-6.3,228.7-8.5c49.9-1.5,99.8-1.5,149.6-3.6c1.2-0.1,2.7-0.1,4.9,0
	c9.2,0.6,11.9,4.1,20.7,4.9c4.2,0.4,7.2,0.7,9.7-1.2c3.3-2.4,3-6.1,4.9-10.9c2.8-7.2,8-10.5,10.9-13.4c16-15.3,3.7-52.1,19.5-60.8
	c2.2-1.2,8.4-0.8,20.7,0c15.6,1.1,18.9,2.9,29.2,3.6c11.1,0.9,20.8-0.6,40.1-3.6c22.3-3.5,27.4-6.1,32.8-2.4
	c8.4,5.7,7.7,20.1,7.3,30.4c-3.7,89.7,2.3,84.1-4.9,116.8c-6.3,28.8-14.8,50.1-18.2,58.4c-13,31.3-20.8,36.4-48.7,82.7
	c-43.6,72.3-40.1,85.5-62,111.9c-3.5,4.2-13.5,15.9-19.5,34.1c-3.1,9.4-3.8,16.9-4.9,29.2c-3.3,39.3-3.6,56-3.6,56
	c-0.7,34.4-1.1,51.6-2.4,71.8c-2.2,32.8,0.4,66.3-6.1,98.5c-0.2,1-0.9,3.9,0,7.3c1.1,4.4,3.6,5.4,6.1,9.7c3.3,5.9,1.1,8.3,3.6,13.4
	c2.7,5.4,7.5,7,12.2,9.7c8.4,4.9,10.2,9.8,20.7,23.1c11.2,14.1,11,10.9,26.8,29.2c17.7,20.6,21.6,28.9,35.3,38.9
	c4.3,3.2,10.3,7,18.2,9.7c8.8,3.1,15.9,3.5,18.2,3.6c21.7,1.6,37.1,10.5,87.6,20.7c31.6,6.4,40,5.8,46.2,4.9c7-1,8.2-2.1,35.3-10.9
	c11.2-3.6,21.6-6.9,42.6-13.4c18.5-5.7,32.5-9.9,40.1-12.2c43.5-12.9,49-13.6,93.7-26.8c28.8-8.5,43.2-12.7,51.1-15.8
	c11.6-4.5,24.2-6.6,35.3-12.2c2.9-1.5,7.4-3.9,13.4-3.6c3.6,0.1,7.6,1.2,18.2,8.5c15.3,10.6,16,14.7,25.5,18.2
	c6.3,2.4,6.2,0.7,14.6,3.6c11.2,4,12.8,7.5,19.5,8.5c5.3,0.8,8.9-0.8,20.7-6.1c18-8.1,27-12.2,29.2-13.4c0,0,38.1-20.8,52.3-42.6
	c2.8-4.3,4.1-8.2,3.6-12.2c-0.2-1.5-0.7-4.7-3.6-8.5c-4.7-6.2-10.1-7.2-20.7-12.2c-3.5-1.6-10.5-6-24.3-14.6
	c-6.2-3.9-10.3-6.5-10.9-10.9c-0.5-3.2,1.2-5.7,3.6-9.7c10.3-16.7,6.9-14.8,14.6-25.5c7.1-10,10.7-14.9,13.4-15.8
	c11.8-3.8,21.8,15.2,46.2,30.4c19,11.8,36.6,15,54.7,18.2c19.1,3.4,31.1,2.6,66.9,1.2c24.7-1,49.5-1.3,74.2-2.4
	c29.8-1.4,72.4-2.3,126.5,0"/>
<path id="path7" class="st3" d="M146.2,127.3c68.4-2.3,123.9-3.8,163-4.9c92.6-2.5,129.6-2.9,153.3-4.9c0,0,29.6-2.4,56-2.4
	c0,0,6.1,0,6.1,0c0.8,1.2,1.6,3,1.2,4.9c-0.7,3.5-4.9,5-8.5,7.3c-5.5,3.5-7.2,7.3-10.9,12.2c-11.4,14.7-48.1,47.1-81.5,82.7
	c-3.7,4-15.4,16.5-31.6,32.8c-0.6,0.6-3.7,2.4-6.1,6.1c-4.4,6.7-5.1,16.8-1.2,19.5c3.1,2.1,8.4-1,13.4-3.6
	c20.9-10.9,21.2-4.3,46.2-15.8c19.3-8.9,28.9-13.3,35.3-18.2c3.5-2.7,10.2-8.2,14.6-6.1c1.9,0.9,2.9,3.5,4.9,8.5
	c1.2,3,3,7.9,3.6,12.2c1.5,10.6-4.4,20.2-6.1,23.1c-12.7,21.5-18.1,46.4-28,69.3c-22,51.3-13.6,47.7-29.2,76.6
	c-8.7,16.2-16.6,27-19.5,46.2c-2.7,18-3.6,30.4-3.6,30.4c-0.9,11.8-0.9,19.6-6.1,28c-3.9,6.4-6.6,6.4-9.7,10.9
	c-5.7,8.4-2.3,21.5,4.9,47.4c12.7,46.3,14.1,50.2,19.5,56c5.5,5.9,11.2,9.4,17,19.5c4.4,7.6,6.2,14.4,8.5,23.1
	c5.6,21.6,1.8,22.4,6.1,32.8c5.8,14,12.2,11.5,23.1,30.4c3.1,5.5,8.2,14.3,10.9,26.8c3.3,14.6-0.3,17.1,3.6,25.5
	c2.7,5.8,4.9,5.6,23.1,21.9c15,13.4,17.1,16.7,18.2,20.7c2.3,7.6-0.8,10.5,2.4,18.2c0.5,1.2,4.3,9.9,13.4,14.6
	c6.3,3.3,9.6,1.7,20.7,3.6c0,0,10.7,1.8,20.7,6.1c8.2,3.5,9.5,6.2,28,21.9c15.5,13.1,23.2,19.7,30.4,24.3c6.1,3.9,9.2,5.4,13.4,9.7
	c8,8.4,8.5,15.5,12.2,23.1c9.7,19.7,33.9,27.1,45,30.4c12.7,3.8,20.4,3.1,36.5,3.6c51.3,1.6,51.4,10.8,87.6,9.7
	c33.9-1,60.2-9.8,66.9-12.2c15.8-5.5,14.2-7.1,37.7-15.8c15.9-5.9,28.8-9.6,54.7-19.5c17-6.4,21.6-8.7,26.8-13.4
	c9.8-9,9.2-15.7,19.5-21.9c10-6,21.2-6.1,24.3-6.1c9.7,0.1,11.1,3,21.9,2.4c6-0.3,12.3-0.7,18.2-4.9c3.7-2.6,3.5-4,9.7-9.7
	c3.8-3.5,7.2-6.6,10.9-8.5c8.1-4.2,13.2-0.5,24.3-1.2c7.9-0.5,14.6-3.6,28-9.7c16.7-7.7,16.5-10.7,26.8-13.4
	c9.9-2.6,10.3,0.2,25.5-2.4c11-1.9,18.3-3.2,25.5-8.5c6.9-5.1,5.3-7.7,13.4-15.8c2.5-2.6,12.1-12,26.8-17c13-4.4,17.5-1,26.8-6.1
	c7.9-4.3,10.9-10.1,15.8-17c7.9-11,8.6-8.2,35.3-34.1c27.7-26.9,28.5-31.5,40.1-36.5c13.1-5.6,24.5-5.1,34.1-4.9
	c32.4,0.9,64.9-3.9,97.3-3.6c25.2,0.2,61.9,0.1,108.3-1.2"/>
<path id="path8" class="st3" d="M146.2,127.3c119.3,1,187.6-2.5,228.7-6.1c42.4-3.7,85.3-1,127.7-4.9c12.9-1.2,26,2.3,38.9,1.2
	c3.6-0.3,9.6-0.9,12.2,2.4c1.6,2,1.8,5.3-2.4,17c-6.1,17.1-9.7,19.2-8.5,24.3c1.5,6.3,7.8,6.1,18.2,14.6
	c10.6,8.6,10.5,13.9,20.7,25.5c9,10.3,15.4,13.4,26.8,21.9c18.9,14.2,19.9,19.8,41.4,40.1c6.7,6.4,51.9,49.1,85.1,58.4
	c9,2.5,17.6,6.5,26.8,8.5c8.9,1.9,16.6,2.7,18.2,7.3c1.1,3.2-1.2,6.6-2.4,8.5c-30.2,44.7-39.6,49.9-42.6,63.3
	c-0.5,2.1-1.4,7.2-4.9,8.5c-4.7,1.8-11.4-4.3-13.4-6.1c-6.9-6.2-7.6-11.8-12.2-12.2c-2.9-0.2-5.2,1.7-6.1,2.4
	c-4,3.3-4.2,8.5-4.9,12.2c-1.5,7.9-5.5,9.4-13.4,20.7c-9.1,13.1-5.1,13.2-14.6,28c-8.9,13.9-14.6,17.4-15.8,28
	c-0.4,3.9,0.3,4.1,0,12.2c-0.4,11-1.9,19-2.4,21.9c-2.6,14.5-1.1,26.5-1.2,46.2c-0.2,26.7-3.1,20.7-4.9,58.4
	c-1.8,38-2.7,56.9-1.2,62c0.3,1,1.2,4.1,0,7.3c-1.8,4.7-7,6.5-12.2,8.5c-16.4,6.3-26.6,10.4-26.8,14.6c-0.1,2.8,4.1,5,6.1,6.1
	c12.8,7.1,21.7,19.7,32.8,29.2c19.8,17,29.6,25.4,36.5,32.8c7.1,7.7,9.9,11.7,17,15.8c10.2,5.9,17.9,5.4,30.4,7.3
	c26.7,4.1,22.2,11.3,46.2,14.6c29.9,4.1,44.8,6.1,45,6.1c0.7-0.1,3.3-0.3,4.9,1.2c1.8,1.7,1.4,4.8,1.2,6.1c-0.4,3.4,1-5.2,1.2,23.1
	c0.1,11.9,0.1,17.9,0,18.2c-0.3,0.9-1.1,3.5,0,6.1c0.7,1.7,2.2,3,3.6,3.6c3.8,1.6,8.2-1.5,12.2-3.6c0.1,0-0.6,0.3,19.5-6.1
	c23.8-7.6,35.7-11.4,41.4-13.4c20.4-7.1,25-9.7,37.7-12.2c7.5-1.5,14.9,1.8,18.2-2.4c2.4-3,1.5-7.2,0-13.4
	c-4.6-18.9-9.6-33.6-9.7-34.1c-6.7-19.5-3.2-12.4-8.5-28c-4.1-12-6.9-18.5-3.6-23.1c1.9-2.7,4.7-3.1,10.9-4.9
	c12.9-3.6,7.2-3.5,24.3-8.5c18.1-5.3,18.5-3.7,34.1-8.5c19.5-6,23.6-10,25.5-12.2c4.6-5.2,4-8.2,9.7-15.8
	c5.4-7.1,10.3-10.2,15.8-14.6c16.2-12.9,14.3-18.7,32.8-36.5c12.2-11.8,11.7-7.9,21.9-18.2c16.5-16.6,14.8-23.3,29.2-36.5
	c14.8-13.5,19.8-9.4,26.8-19.5c9.2-13.5,6.7-30.2,3.6-49.9c-4.2-27.7-11.3-28.1-12.2-49.9c-0.8-20.6,5.3-29.1-1.2-36.5
	c-8.4-9.5-22.6-0.2-34.1-9.7c-10.4-8.7-9.5-25.5-8.5-42.6c1-17.6,2.1-37.9,15.8-49.9c8.6-7.5,21.1-10.9,51.1-7.3
	c53.4,6.4,86.5,25.9,159.3,51.1c7.1,2.4,19,6.5,35.3,9.7c27.2,5.4,40.3,3.3,58.4,4.9c33.7,2.9,32.4,14,91.2,32.8
	c17.3,5.5,16.9,4.4,70.5,18.2c31.5,8.1,56.8,15,73,19.5"/>
<path id="path9" class="st3" d="M143.7,742.8c13.6-23.3,34-58.6,58.4-102.2c22.5-40.1,24.5-44.7,53.5-97.3
	c85-154.2,101.3-176.3,109.5-201.9c7-21.8,20.9-40.7,29.2-62c0.2-0.5,0.8-2.2,2.4-3.6c3.7-3.4,9.5-2.6,10.9-2.4
	c9.7,1,29.3-8,62-23.1c31.5-14.5,37.3-20.1,40.1-23.1c9-9.5,14.6-20.7,15.8-23.1c9.8-19.7,8.8-34.4,17-36.5
	c3.3-0.8,6.2,0.9,10.9,3.6c11.1,6.5,16,15.5,20.7,21.9c6.6,9.2,7.8,6.3,28,24.3c26.4,23.6,39.7,35.4,47.4,46.2
	c3.9,5.4,10.1,14.9,18.2,14.6c1.4,0,4.5-0.4,9.7-4.9c8.7-7.4,12-16.5,14.6-23.1c8.2-20.9,12.3-31.3,19.5-37.7
	c3.6-3.2,9.2-6.8,29.2-9.7c17.6-2.6,38.5-5.6,65.7,0c32,6.6,53.8,21.3,70.5,32.8c37.4,25.8,40.1,42.1,83.9,70.5
	c13.7,8.9,25,14.8,31.6,18.2c35.7,18.6,53.6,27.9,76.6,30.4c18.9,2,29.1-1.3,37.7,7.3c6.8,6.8,8.1,16.6,9.7,28
	c3,21.7-3,29.5,3.6,38.9c5.8,8.1,15.8,10.2,19.5,10.9c15,3.1,23.2-5,41.4-8.5c10.9-2.1,19.8-1,37.7,1.2
	c36.8,4.5,41.8,13.9,87.6,23.1c7.8,1.6,17.1,3.2,30.4,7.3c10.3,3.2,12.3,4.5,31.6,12.2c0,0,24,9.5,53.5,24.3
	c5.2,2.6,10.6,5.4,12.2,10.9c1.1,4,0.4,10.1-9.7,21.9c-11.9,13.8-20.5,16.5-34.1,26.8c-10.6,8-18.8,17.5-35.3,36.5
	c-20.9,24.2-17.3,24.7-26.8,31.6c-9.4,6.9-19.8,11.3-28,24.3c-4.2,6.7-4.2,10-3.6,12.2c2,7.5,13.2,9.8,24.3,13.4
	c27.7,9,22,16.2,47.4,24.3c35.6,11.4,47.4,13.4,47.4,13.4c2.9,0.5,8.9,1.4,12.2,6.1c4.1,5.8,0.3,12.3,3.6,15.8
	c4.4,4.6,16.7-0.8,20.7-2.4c13.8-5.5,19.6-2.4,60.8-1.2c46.1,1.3,46.5-2.3,143.5-2.4c3.7,0,6.7,0,8.5,0"/>
</svg>
